<?xml version="1.0" encoding="UTF-8" standalone="no"?>
<svg
   height="215.89999999999998mm"
   viewBox="-500, -500, 1000, 1000"
   width="279.4mm"
   version="1.1"
   id="svg115"
   sodipodi:docname="Fox_old.glb.svg"
   inkscape:version="1.4.2 (ebf0e940d0, 2025-05-08)"
   xmlns:inkscape="http://www.inkscape.org/namespaces/inkscape"
   xmlns:sodipodi="http://sodipodi.sourceforge.net/DTD/sodipodi-0.dtd"
   xmlns="http://www.w3.org/2000/svg"
   xmlns:svg="http://www.w3.org/2000/svg">
  <defs
     id="defs115" />
  <sodipodi:namedview
     id="namedview115"
     pagecolor="#505050"
     bordercolor="#ffffff"
     borderopacity="1"
     inkscape:showpageshadow="0"
     inkscape:pageopacity="0"
     inkscape:pagecheckerboard="1"
     inkscape:deskcolor="#505050"
     inkscape:document-units="mm"
     inkscape:zoom="1.9583334"
     inkscape:cx="528.51062"
     inkscape:cy="401.61701"
     inkscape:window-width="1920"
     inkscape:window-height="1008"
     inkscape:window-x="0"
     inkscape:window-y="0"
     inkscape:window-maximized="1"
     inkscape:current-layer="svg115" />
  <path
     d="M81.75 -5.04L89.21 -2.15L96.80 -4.67L104.01 27.19L95.41 21.67z"
     style="fill:#DB8729"
     id="path1" />
  <path
     d="M66.67 36.79L67.28 24.95L70.75 34.02z"
     style="fill:#DB8729"
     id="path2" />
  <path
     d="M-17.53 -14.60L17.08 -18.23L30.05 -19.59L5.53 -3.96zM-17.92 -16.37L5.53 -3.96L8.15 6.70z"
     style="fill:#DB8729"
     id="path3" />
  <path
     d="M49.26 -56.13L44.04 -62.45L77.76 -44.30z"
     style="fill:#DB8729"
     id="path4" />
  <path
     d="M98.73 -31.43L98.06 -29.89L85.27 -41.89z"
     style="fill:#DB8729"
     id="path5" />
  <path
     d="M-142.19 -105.73L-137.48 -94.01L-142.40 -105.08z"
     style="fill:#DB8729"
     id="path6" />
  <path
     d="M-49.67 -83.47L-59.33 -78.72L-60.44 -79.71z"
     style="fill:#DB8729"
     id="path7" />
  <path
     d="M12.19 46.19L13.79 28.20L16.34 31.02L15.32 35.99L11.40 55.15z"
     style="fill:#DB8729"
     id="path8" />
  <path
     d="M5.03 55.10L2.78 54.38L11.78 10.09z"
     style="fill:#DB8729"
     id="path9" />
  <path
     d="M-131.02 -108.79L-116.87 -93.80L-145.88 -114.58z"
     style="fill:#DB8729"
     id="path10" />
  <path
     d="M32.48 36.27L32.06 33.69L19.16 36.27L30.98 27.14L44.67 24.25L42.01 26.88z"
     style="fill:#FFFAF2"
     id="path11" />
  <path
     d="M-152.66 -55.63L-150.99 -57.39L-150.47 -55.43L-146.82 -41.87z"
     style="fill:#FFFAF2"
     id="path12" />
  <path
     d="M81.62 -0.13L89.21 -2.15L77.95 1.35L63.55 5.83L30.44 13.49z"
     style="fill:#FFFAF2"
     id="path13" />
  <path
     d="M-169.99 -59.48L-160.99 -56.65L-156.32 -51.78L-180.56 -48.16z"
     style="fill:#FFFAF2"
     id="path14" />
  <path
     d="M-62.34 6.68L-27.33 -2.15L-83.02 17.63L-104.72 -4.71zM-38.59 28.16L-83.02 17.63L-37.84 26.49z"
     style="fill:#FFFAF2"
     id="path15" />
  <path
     d="M62.58 93.58L63.02 94.11L60.29 100.52z"
     style="fill:#935B1B"
     id="path16" />
  <path
     d="M-38.40 45.13L-36.90 43.16L-39.69 55.94L-42.39 68.35L-41.52 56.16zM-45.61 55.18L-47.37 55.10L-47.16 54.50zM-44.90 55.21L-40.29 48.80L-41.00 55.40zM-44.18 55.25L-41.00 55.40L-42.39 68.35L-48.99 59.94L-47.49 55.48L-47.37 55.10z"
     style="fill:#533410"
     id="path17" />
  <path
     d="M-30.92 51.49L-29.84 51.65L-26.59 52.12L-27.86 52.79L-31.24 54.11L-40.26 57.83L-45.17 55.40L-36.46 53.01zM-24.47 34.55L-34.49 44.64L-45.17 55.40L-46.67 53.92L-46.33 53.52L-45.49 52.51L-29.42 38.78z"
     style="fill:#533410"
     id="path18" />
  <path
     d="M-28.45 10.85L-28.28 11.16L-26.58 14.18L-27.14 14.94L-29.88 13.30z"
     style="fill:#533410"
     id="path19" />
  <path
     d="M-113.63 38.16L-132.37 50.37L-130.62 48.97zM-148.27 60.72L-144.46 57.77L-140.27 55.11L-130.62 48.97L-131.22 49.45L-132.37 50.37z"
     style="fill:#533410"
     id="path20" />
  <path
     d="M-39.53 57.53L-41.42 63.14L-40.20 57.66z"
     style="fill:#533410"
     id="path21" />
  <path
     d="M-20.60 73.85L-25.08 78.97L-48.09 75.93L-27.21 72.80L-9.09 54.85L-2.24 52.87zM5.34 64.02L-25.08 78.97L-2.24 52.87z"
     style="fill:#533410"
     id="path22" />
  <path
     d="M-130.29 50.56L-110.60 53.03L-125.91 55.78L-139.51 58.22L-135.82 49.86z"
     style="fill:#533410"
     id="path23" />
  <path
     d="M-17.92 -16.37L-2.24 52.87L-9.04 39.04L-14.54 4.70z"
     style="fill:#875319"
     id="path24" />
  <path
     d="M11.78 10.09L2.78 54.38L-2.24 52.87z"
     style="fill:#BC7323"
     id="path25" />
  <path
     d="M86.60 61.85L73.06 38.26L85.39 57.62L86.21 60.36z"
     style="fill:#BC7323"
     id="path26" />
  <path
     d="M10.13 55.37L8.64 55.65L10.93 49.41L7.55 55.86L13.79 28.20L12.19 46.19L11.40 55.15z"
     style="fill:#BC7323"
     id="path27" />
  <path
     d="M-17.92 -16.37L8.15 6.70L11.78 10.09z"
     style="fill:#D48328"
     id="path28" />
  <path
     d="M16.34 31.02L13.79 28.20L30.44 13.49L63.55 5.83z"
     style="fill:#E4AA79"
     id="path29" />
  <path
     d="M67.28 24.95L98.60 -16.73L70.75 34.02z"
     style="fill:#DB8729"
     id="path30" />
  <path
     d="M11.78 10.09L30.44 13.49L7.55 55.86L5.03 55.10z"
     style="fill:#DB8729"
     id="path31" />
  <path
     d="M35.96 17.66L25.13 24.77L28.19 22.69z"
     style="fill:#DB8729"
     id="path32" />
  <path
     d="M-17.92 -16.37L11.78 10.09L-2.24 52.87z"
     style="fill:#B36E21"
     id="path33" />
  <path
     d="M35.96 17.66L41.57 15.19L36.86 23.24L23.03 26.82z"
     style="fill:#E8B897"
     id="path34" />
  <path
     d="M-131.19 -38.49L-128.25 -32.34L-113.58 4.50L-123.65 -19.99L-131.61 -39.36z"
     style="fill:#E8B897"
     id="path35" />
  <path
     d="M-214.22 -70.62L-210.76 -74.68L-208.30 -72.02L-210.38 -69.01z"
     style="fill:#F4DCCB"
     id="path36" />
  <path
     d="M-113.58 4.50L-128.25 -32.34L-123.99 -22.96z"
     style="fill:#F4DCCB"
     id="path37" />
  <path
     d="M-17.29 -5.27L-83.02 17.63L-27.33 -2.15z"
     style="fill:#F4DCCB"
     id="path38" />
  <path
     d="M17.64 37.37L11.15 39.96L-38.59 28.16L-38.19 27.26L-35.92 26.87zM14.06 37.60L36.86 23.24L18.11 37.21L13.45 40.69L8.88 40.86zM32.06 33.69L13.45 40.69L19.16 36.27zM11.15 39.96L8.88 40.86L-83.02 17.63z"
     style="fill:#FFFAF2"
     id="path39" />
  <path
     d="M-152.21 -108.00L-185.47 -104.52L-184.60 -105.50L-172.76 -118.81L-171.45 -120.28L-169.73 -119.19z"
     style="fill:#E0984F"
     id="path40" />
  <path
     d="M-180.07 -110.32L-145.88 -114.58L-140.59 -110.79L-174.52 -107.30z"
     style="fill:#DB8729"
     id="path41" />
  <path
     d="M-10.13 -0.33L-11.24 -2.79L-12.74 -6.12L-9.30 -0.26L-9.77 0.07zM-8.86 -0.57L-12.74 -6.12L-13.50 -7.82L-6.60 -2.15z"
     style="fill:#DB8729"
     id="path42" />
  <path
     d="M-8.86 -0.57L-6.60 -2.15L-9.14 4.44L-8.94 0.85z"
     style="fill:#BC7323"
     id="path43" />
  <path
     d="M23.03 26.82L15.42 33.55L-33.01 -12.76z"
     style="fill:#F2D5BE"
     id="path44" />
  <path
     d="M-8.86 -0.57L-9.30 -0.26L-12.74 -6.12z"
     style="fill:#DB8729"
     id="path45" />
  <path
     d="M-9.55 1.03L-9.18 2.62L-33.01 -12.76L-31.65 -14.10zM-9.13 4.11L-33.01 -12.76L-9.18 2.62zM-9.82 -0.13L-9.55 1.03L-31.65 -14.10z"
     style="fill:#E5AF83"
     id="path46" />
  <path
     d="M-9.91 0.16L-10.13 -0.33L-9.77 0.07z"
     style="fill:#DB8729"
     id="path47" />
  <path
     d="M-9.91 0.16L-8.86 -0.57L-8.94 0.85L-9.14 4.44L-10.11 6.95L-10.95 3.43z"
     style="fill:#BC7323"
     id="path48" />
  <path
     d="M-31.65 -14.10L-26.89 -18.81L12.32 14.04z"
     style="fill:#E5AF83"
     id="path49" />
  <path
     d="M25.13 24.77L-9.55 1.03L-9.82 -0.13z"
     style="fill:#E5AF83"
     id="path50" />
  <path
     d="M-28.77 -18.70L-28.72 -18.85L-9.91 0.16z"
     style="fill:#DB8729"
     id="path51" />
  <path
     d="M36.86 23.24L19.24 37.22L23.03 26.82z"
     style="fill:#F4DCCB"
     id="path52" />
  <path
     d="M-83.02 17.63L-45.71 -5.04L-33.01 -12.76L-11.04 8.98zM17.64 37.37L-33.01 -12.76L19.24 37.22z"
     style="fill:#FDF4E8"
     id="path53" />
  <path
     d="M-21.37 36.11L-41.42 63.14L-30.23 29.96z"
     style="fill:#533410"
     id="path54" />
  <path
     d="M-29.88 13.30L-27.14 14.94L-32.72 22.52L-38.38 27.88zM-46.01 50.92L-38.38 27.88L-38.19 27.54z"
     style="fill:#533410"
     id="path55" />
  <path
     d="M-35.92 26.87L-38.19 27.26L-37.84 26.49z"
     style="fill:#FFFAF2"
     id="path56" />
  <path
     d="M-83.02 17.63L-11.04 8.98L17.64 37.37z"
     style="fill:#FDF4E8"
     id="path57" />
  <path
     d="M-32.72 22.52L-30.95 20.12L-27.14 14.94L-26.58 14.18L-25.65 15.83z"
     style="fill:#533410"
     id="path58" />
  <path
     d="M-45.61 55.18L-47.16 54.50L-37.96 27.13L-40.29 48.80L-44.90 55.21zM-48.99 59.94L-46.01 50.92L-38.19 27.54L-37.96 27.13z"
     style="fill:#533410"
     id="path59" />
  <path
     d="M-34.63 18.67L-17.53 8.84L-25.65 15.83z"
     style="fill:#DB8729"
     id="path60" />
  <path
     d="M-16.26 9.18L-17.03 20.54L-21.37 36.11z"
     style="fill:#BC7323"
     id="path61" />
  <path
     d="M41.81 41.71L27.84 29.13L59.95 56.59L60.20 57.33z"
     style="fill:#BC7323"
     id="path62" />
  <path
     d="M-186.30 -103.85L-185.47 -104.52L-184.19 -89.46z"
     style="fill:#F4D9BC"
     id="path63" />
  <path
     d="M-230.10 -50.91L-220.53 -48.67L-230.82 -50.72z"
     style="fill:#F6F1E9"
     id="path64" />
  <path
     d="M-174.11 -108.37L-169.15 -109.94L-168.53 -108.59L-174.52 -107.30z"
     style="fill:#ECC4A3"
     id="path65" />
  <path
     d="M41.81 41.71L60.20 57.33L60.65 58.66zM67.11 62.71L71.03 68.01L60.65 58.66L59.95 56.59z"
     style="fill:#BC7323"
     id="path66" />
  <path
     d="M-10.95 3.43L-10.69 4.53L-10.11 6.95L-21.37 36.11L-13.06 10.03zM-17.19 23.01L-21.37 36.11L-17.03 20.54L-14.02 9.78L-17.53 8.84L-12.01 2.55L-9.91 0.16L-10.95 3.43L-13.06 10.03zM-21.37 36.11L-17.53 8.84L-16.26 9.18zM-17.03 20.54L-16.26 9.18L-14.02 9.78z"
     style="fill:#BC7323"
     id="path67" />
  <path
     d="M10.93 49.41L8.64 55.65L7.55 55.86zM2.78 54.38L5.03 55.10L7.55 55.86L5.34 64.02z"
     style="fill:#BC7323"
     id="path68" />
  <path
     d="M68.73 37.70L72.85 39.54L85.20 66.84L67.84 38.69L66.67 36.79zM85.20 66.84L60.47 34.03L66.67 36.79zM86.60 61.85L72.85 39.54L73.06 38.26z"
     style="fill:#BC7323"
     id="path69" />
  <path
     d="M59.98 56.48L67.11 62.71L59.95 56.59L27.84 29.13L28.60 29.06zM67.11 62.71L28.60 29.06L35.35 28.38L60.47 34.03z"
     style="fill:#C37824"
     id="path70" />
  <path
     d="M-9.13 4.11L-9.18 2.62L25.13 24.77L23.03 26.82zM-9.18 2.62L-9.55 1.03L25.13 24.77zM-9.82 -0.13L12.32 14.04L25.13 24.77z"
     style="fill:#E5AF83"
     id="path71" />
  <path
     d="M-215.49 -71.16L-202.43 -65.68L-236.72 -57.94L-237.80 -60.65L-238.06 -61.31zM-239.76 -57.53L-238.06 -61.31L-238.58 -52.90z"
     style="fill:#D6D2CB"
     id="path72" />
  <path
     d="M-95.95 29.72L-96.12 35.90L-103.34 29.01z"
     style="fill:#CB7D26"
     id="path73" />
  <path
     d="M-12.07 2.02L-28.77 -18.70L-9.91 0.16L-12.01 2.55L-17.53 8.84L-25.49 13.52L-32.64 17.55L-33.29 17.92L-35.74 18.42L-36.48 18.25L-56.80 13.65L-60.56 2.65L-47.56 -40.75L-46.47 -41.26L-44.85 -42.02L-29.67 -19.81zM93.87 -42.92L94.05 -42.79L89.89 -42.97L59.05 -44.29L86.73 -44.31L77.76 -44.30L44.04 -62.45L54.28 -60.42L75.90 -56.13L90.94 -45.07L92.47 -43.95zM49.26 -56.13L77.76 -44.30L59.05 -44.29L63.20 -31.73L67.69 -18.15L41.79 19.11L35.35 28.38L28.60 29.06L27.84 29.13L43.08 12.61L28.19 22.69L25.13 24.77L-26.89 -18.81L-13.50 -7.82L-10.13 -0.33L-9.91 0.16L-28.72 -18.85L-29.67 -19.81L-44.85 -42.02L-43.20 -41.10L-28.80 -33.10L0.42 -24.28L4.55 -20.88L9.15 -17.08L0.42 -24.28L27.12 -16.22L26.70 0.39L26.56 6.08L27.12 -16.22L0.42 -24.28L-23.06 -48.00L-41.15 -62.92L-28.80 -33.10L-44.85 -42.02L-46.47 -44.39L-47.56 -40.75L-60.56 2.65L-105.41 -40.69L-76.11 -51.74L-64.70 -56.04L-105.41 -40.69L-109.30 -72.92L-133.10 -84.16L-137.48 -94.01L-142.19 -105.73L-142.40 -105.08L-147.55 -116.67L-150.65 -125.53L-151.18 -127.07L-150.67 -126.28L-140.59 -110.79L-116.87 -93.80L-64.27 -76.99L-60.50 -75.78L-116.87 -93.80L-131.02 -108.79L-66.80 -95.18L-66.33 -94.86L-59.93 -78.42L-60.44 -79.71L-59.33 -78.72L-49.67 -83.47L-31.11 -65.71L7.30 -60.21L16.62 -61.13L31.54 -61.85L44.04 -62.45zM41.79 19.11L67.69 -18.15L62.17 21.72L60.47 34.03L35.35 28.38zM67.28 24.95L66.67 36.79L60.47 34.03zM-161.21 -142.47L-151.18 -127.07L-144.31 -107.42zM95.35 -38.61L98.06 -29.89L98.73 -31.43L102.01 -28.88L150.77 -16.79L194.93 -6.42L199.56 16.68L194.33 27.57L165.33 41.88L153.75 43.91L104.01 27.19L96.80 -4.67L100.51 -19.05L121.07 3.92L168.33 29.20L123.35 5.14L121.07 3.92L102.91 -16.36L100.51 -19.05L98.60 -16.73L60.47 34.03L67.69 -18.15L59.05 -44.29L89.89 -42.97L94.05 -42.79zM43.08 12.61L35.96 17.66L28.19 22.69zM25.13 24.77L35.96 17.66L23.03 26.82zM70.75 34.02L98.60 -16.73L90.09 4.33L72.85 39.54zM-29.67 -19.81L-28.72 -18.85L-28.77 -18.70zM66.67 36.79L70.75 34.02L72.85 39.54L68.73 37.70zM-33.29 17.92L-34.63 18.67L-35.74 18.42L-34.29 18.12zM-66.33 -94.86L-49.67 -83.47L-60.44 -79.71zM0.42 -24.28L-28.80 -33.10L-36.53 -51.76L-41.15 -62.92L-28.11 -52.17L-23.06 -48.00L-15.70 -40.57zM-144.31 -107.42L-147.55 -116.67L-133.10 -84.16zM-44.85 -42.02L-47.56 -40.75L-46.47 -44.39z"
     style="fill:#DB8729"
     id="path74" />
  <path
     d="M-207.20 -80.25L-185.47 -104.52L-180.07 -110.32L-174.52 -107.30L-161.92 -94.09L-201.91 -81.27L-207.99 -78.65z"
     style="fill:#DB8729"
     id="path75" />
  <path
     d="M35.96 17.66L43.08 12.61L41.57 15.19z"
     style="fill:#E8B897"
     id="path76" />
  <path
     d="M-202.43 -65.68L-201.91 -81.27L-161.92 -94.09zM-56.80 13.65L-105.41 -40.69L-60.56 2.65zM-207.20 -80.25L-207.99 -78.65L-221.76 -70.10zM-109.30 -72.92L-105.41 -40.69L-140.17 -58.19L-161.92 -94.09L-133.10 -84.16zM-210.76 -74.68L-215.49 -71.16L-207.99 -78.65L-201.91 -81.27z"
     style="fill:#E8B897"
     id="path77" />
  <path
     d="M-112.83 6.30L-113.58 4.50L-95.95 29.72L-103.34 29.01z"
     style="fill:#E8B897"
     id="path78" />
  <path
     d="M98.60 -16.73L100.51 -19.05L96.80 -4.67z"
     style="fill:#E8B897"
     id="path79" />
  <path
     d="M199.56 16.68L194.93 -6.42L217.23 -4.44L194.33 27.57zM194.93 -6.42L150.77 -16.79L211.63 -14.56L213.21 -14.51z"
     style="fill:#E8B897"
     id="path80" />
  <path
     d="M-67.93 36.20L-83.02 17.63L-66.91 19.00z"
     style="fill:#E8B897"
     id="path81" />
  <path
     d="M-169.15 -109.94L-174.11 -108.37L-171.54 -115.17zM-161.21 -142.47L-161.92 -94.09L-171.54 -115.17zM-174.52 -107.30L-168.53 -108.59L-161.92 -94.09z"
     style="fill:#ECC4A3"
     id="path82" />
  <path
     d="M-67.93 36.20L-78.01 43.91L-70.15 34.71z"
     style="fill:#CBAC96"
     id="path83" />
  <path
     d="M-92.66 30.08L-87.83 35.98L-95.34 30.19L-95.95 29.72z"
     style="fill:#CBAC96"
     id="path84" />
  <path
     d="M15.42 33.55L23.03 26.82L19.24 37.22z"
     style="fill:#F2D5BE"
     id="path85" />
  <path
     d="M85.20 66.84L67.11 62.71L60.47 34.03z"
     style="fill:#9D611D"
     id="path86" />
  <path
     d="M-185.63 -105.42L-185.47 -104.52L-186.30 -103.85L-186.59 -105.86L-190.49 -132.44z"
     style="fill:#F4D9BC"
     id="path87" />
  <path
     d="M-217.11 -47.31L-212.05 -39.36L-230.82 -50.72L-220.53 -48.67L-217.53 -47.96zM-230.82 -50.72L-212.05 -39.36L-233.14 -50.12L-238.58 -52.90L-231.78 -51.31zM-230.82 -50.72L-231.78 -51.31L-230.10 -50.91zM-217.53 -47.96L-238.58 -52.90L-236.72 -57.94z"
     style="fill:#F6F1E9"
     id="path88" />
  <path
     d="M-112.99 33.70L-96.12 35.90L-87.83 35.98L-107.15 41.74L-109.96 38.49z"
     style="fill:#774A16"
     id="path89" />
  <path
     d="M-84.02 30.75L-78.01 43.91L-82.65 40.17L-87.83 35.98z"
     style="fill:#A89E95"
     id="path90" />
  <path
     d="M90.09 4.33L98.60 -16.73L96.80 -4.67z"
     style="fill:#F1D1B8"
     id="path91" />
  <path
     d="M-96.12 35.90L-95.95 29.72L-87.83 35.98z"
     style="fill:#A8681F"
     id="path92" />
  <path
     d="M77.16 70.25L67.11 62.71L85.20 66.84z"
     style="fill:#653F13"
     id="path93" />
  <path
     d="M-238.06 -61.31L-207.99 -78.65L-215.49 -71.16z"
     style="fill:#C8AB97"
     id="path94" />
  <path
     d="M-21.37 36.11L-30.23 29.96L-33.72 28.57L-39.33 25.61L-17.53 8.84z"
     style="fill:#935B1B"
     id="path95" />
  <path
     d="M-2.24 52.87L2.78 54.38L5.34 64.02zM11.40 55.15L8.21 66.81L10.13 55.37zM7.55 55.86L8.64 55.65L7.26 59.16L5.34 64.02zM5.34 64.02L8.64 55.65L10.13 55.37z"
     style="fill:#935B1B"
     id="path96" />
  <path
     d="M62.58 93.58L71.03 68.01L67.11 62.71L77.16 70.25L63.02 94.11z"
     style="fill:#935B1B"
     id="path97" />
  <path
     d="M-91.29 34.97L-96.12 35.90L-112.99 33.70L-101.42 34.38z"
     style="fill:#935B1B"
     id="path98" />
  <path
     d="M85.20 66.84L72.85 39.54L86.60 61.85zM90.29 71.26L86.60 61.85L86.21 60.36L85.39 57.62L89.68 68.98z"
     style="fill:#935B1B"
     id="path99" />
  <path
     d="M-236.72 -57.94L-238.58 -52.90L-238.06 -61.31z"
     style="fill:#CAC6C0"
     id="path100" />
  <path
     d="M-56.80 13.65L-105.55 -33.07L-133.77 -53.54L-140.17 -58.19L-105.41 -40.69L-66.52 2.79zM-161.92 -94.09L-140.17 -58.19L-171.09 -67.19L-202.43 -65.68zM-208.30 -72.02L-210.76 -74.68L-201.91 -81.27L-202.43 -65.68L-210.38 -69.01zM-214.22 -70.62L-215.49 -71.16L-210.76 -74.68z"
     style="fill:#F4DCCB"
     id="path101" />
  <path
     d="M212.72 -14.85L213.21 -14.51L211.63 -14.56L150.77 -16.79L206.66 -19.09zM217.23 -4.44L194.93 -6.42L213.21 -14.51z"
     style="fill:#F4DCCB"
     id="path102" />
  <path
     d="M-67.93 36.20L-70.15 34.71L-83.02 17.63z"
     style="fill:#F4DCCB"
     id="path103" />
  <path
     d="M-92.66 30.08L-95.95 29.72L-113.58 4.50z"
     style="fill:#F4DCCB"
     id="path104" />
  <path
     d="M-92.66 30.08L-84.02 30.75L-87.83 35.98zM-84.02 30.75L-70.15 34.71L-78.01 43.91z"
     style="fill:#D9D2CA"
     id="path105" />
  <path
     d="M-123.99 -22.96L-112.99 -14.70L-157.64 -27.38L-175.38 -35.85L-188.44 -42.09L-212.05 -39.36L-217.11 -47.31L-217.53 -47.96L-220.28 -49.39L-225.11 -51.90L-236.72 -57.94L-202.43 -65.68L-179.30 -66.80L-171.09 -67.19L-160.99 -56.65L-174.26 -60.83L-175.74 -57.86L-180.56 -48.16L-157.83 -51.56L-156.32 -51.78L-146.82 -41.87L-120.05 -36.16L-105.55 -33.07L-56.80 13.65L-104.72 -4.71L-99.91 0.24L-83.02 17.63L-70.15 34.71L-84.02 30.75L-92.66 30.08L-113.58 4.50zM-133.77 -53.54L-105.55 -33.07L-146.82 -41.87L-141.64 -54.59L-140.17 -58.19zM-152.66 -55.63L-146.82 -41.87L-156.32 -51.78zM-150.47 -55.43L-150.99 -57.39L-140.17 -58.19L-141.64 -54.59L-146.82 -41.87zM-175.74 -57.86L-174.26 -60.83L-169.99 -59.48L-180.56 -48.16zM-140.17 -58.19L-160.99 -56.65L-171.09 -67.19zM-160.99 -56.65L-150.99 -57.39L-156.32 -51.78z"
     style="fill:#FFFAF2"
     id="path106" />
  <path
     d="M32.06 33.69L32.48 36.27L13.45 40.69z"
     style="fill:#FFFAF2"
     id="path107" />
  <path
     d="M-148.27 60.72L-134.17 49.92L-112.99 33.70L-109.96 38.49L-107.15 41.74L-111.20 43.72L-137.59 56.65L-107.15 41.74L-87.83 35.98L-78.01 43.91L-85.24 45.96L-103.62 51.15L-78.01 43.91L-103.80 56.30L-133.78 58.50L-128.08 75.27L-135.44 78.14L-154.65 85.63L-150.36 68.90z"
     style="fill:#533410"
     id="path108" />
  <path
     d="M-38.40 45.13L-33.72 28.57L-36.90 43.16zM-40.97 48.51L-39.89 33.39L-39.33 25.61L-37.58 26.54L-33.72 28.57L-38.40 45.13L-41.52 56.16zM-39.53 57.53L-40.20 57.66L-33.72 28.57L-30.23 29.96z"
     style="fill:#533410"
     id="path109" />
  <path
     d="M63.12 116.38L51.92 112.66L46.56 109.62L63.02 94.11L77.16 70.25L85.20 66.84L79.63 85.10L76.33 95.91L68.61 107.01zM90.29 71.26L76.33 95.91L85.20 66.84L86.60 61.85z"
     style="fill:#533410"
     id="path110" />
  <path
     d="M-42.39 68.35L-41.42 63.14L-39.92 58.00L-22.20 72.11L-21.85 77.21zM-45.49 52.51L-46.33 53.52L-46.67 53.92L-46.44 53.33zM-48.09 54.73L-46.44 53.33L-47.06 54.97L-46.67 53.92L-45.17 55.40L-40.26 57.83L-31.24 54.11L-27.86 52.79L-26.59 52.12L-25.00 52.36L-29.12 53.92L-39.92 58.00L-41.32 57.44L-47.02 55.16zM-32.87 63.62L-39.92 58.00L-29.12 53.92L-25.00 52.36L-22.20 72.11z"
     style="fill:#533410"
     id="path111" />
  <path
     d="M-50.35 77.42L-48.09 75.93L-25.08 78.97L5.34 64.02L10.13 55.37L8.21 66.81L-34.44 91.09L-42.93 87.88z"
     style="fill:#533410"
     id="path112" />
  <path
     d="M-9.04 39.04L-2.24 52.87L-9.09 54.85z"
     style="fill:#533410"
     id="path113" />
  <path
     d="M-185.47 -104.52L-185.63 -105.42L-190.49 -132.44L-172.72 -121.10L-171.45 -120.28L-184.60 -105.50z"
     style="fill:#E0984F"
     id="path114" />
  <path
     d="M-133.10 -84.16L-161.92 -94.09L-161.21 -142.47L-144.31 -107.42z"
     style="fill:#E0984F"
     id="path115" />
</svg>
