<svg width="1000" height="800" viewBox="-67.94 666.54 114.19 210.36" preserveAspectRatio="xMidYMid meet" xmlns="http://www.w3.org/2000/svg"><path d="M30.46 729.91 L32.11 727.27 L32.95 724.86 z" fill="#E7E7E7"/><path d="M30.46 729.91 L31.71 728.07 L32.11 727.27 z" fill="#E7E7E7"/><path d="M30.41 730.69 L31.29 728.95 L32.85 725.81 z" fill="#111C33"/><path d="M32.11 727.27 L31.71 728.07 L31.96 727.71 z" fill="#E7E7E7"/><path d="M18.72 740.81 L20.40 740.25 L21.05 738.82 z" fill="#111C33"/><path d="M18.58 741.13 L18.72 740.81 L18.53 741.06 z" fill="#111C33"/><path d="M18.64 741.13 L18.72 740.81 L18.58 741.13 z" fill="#111C33"/><path d="M18.74 741.22 L18.72 740.81 L18.64 741.13 z" fill="#111C33"/><path d="M20.40 740.25 z" fill="#111C33"/><path d="M18.74 741.22 L20.40 740.25 L18.72 740.81 z" fill="#111C33"/><path d="M20.40 740.25 L22.54 738.28 L21.05 738.82 z" fill="#111C33"/><path d="M18.74 741.22 L19.78 741.05 L20.40 740.25 z" fill="#111C33"/><path d="M19.78 741.05 L18.74 741.22 L18.90 741.60 z" fill="#111C33"/><path d="M18.74 741.22 L18.75 741.68 L18.90 741.60 z" fill="#111C33"/><path d="M18.74 741.22 L18.64 741.13 L18.75 741.68 z" fill="#111C33"/><path d="M18.64 741.13 L18.71 741.71 L18.75 741.68 z" fill="#111C33"/><path d="M18.71 741.71 L18.64 741.13 L18.71 741.71 z" fill="#111C33"/><path d="M18.64 741.13 L18.46 741.86 L18.71 741.71 z" fill="#111C33"/><path d="M18.64 741.13 L18.58 741.13 L18.46 741.86 z" fill="#111C33"/><path d="M18.43 741.88 L18.46 741.86 L18.58 741.13 z" fill="#111C33"/><path d="M18.58 741.13 L18.41 741.89 L18.43 741.88 z" fill="#111C33"/><path d="M18.58 741.13 L18.18 742.03 L18.41 741.89 z" fill="#111C33"/><path d="M18.53 741.06 L18.18 742.03 L18.58 741.13 z" fill="#111C33"/><path d="M18.15 742.06 L18.18 742.03 L18.53 741.06 z" fill="#111C33"/><path d="M18.53 741.06 L18.10 742.08 L18.15 742.06 z" fill="#111C33"/><path d="M18.53 741.06 L17.91 741.85 L18.10 742.08 z" fill="#111C33"/><path d="M17.91 741.85 L17.91 742.20 L18.10 742.08 z" fill="#111C33"/><path d="M17.79 742.28 L17.91 742.20 L17.91 741.85 z" fill="#111C33"/><path d="M20.84 739.63 L22.76 738.68 L21.38 739.10 z" fill="#E7E7E7"/><path d="M21.38 739.10 L22.76 738.68 L24.45 736.94 z" fill="#E7E7E7"/><path d="M21.86 739.41 L22.76 738.68 L19.27 741.19 z" fill="#E7E7E7"/><path d="M22.76 738.68 L20.84 739.63 L22.76 738.68 z" fill="#E7E7E7"/><path d="M20.84 739.63 L19.87 740.58 L22.76 738.68 z" fill="#E7E7E7"/><path d="M18.40 741.69 L18.47 741.66 L19.87 740.58 z" fill="#E7E7E7"/><path d="M18.47 741.66 L18.50 741.65 L19.87 740.58 z" fill="#E7E7E7"/><path d="M22.76 738.68 L19.87 740.58 L18.50 741.65 z" fill="#E7E7E7"/><path d="M18.50 741.65 L19.16 741.26 L22.76 738.68 z" fill="#E7E7E7"/><path d="M21.86 739.41 L19.27 741.19 L19.54 741.03 z" fill="#E7E7E7"/><path d="M19.16 741.26 L19.27 741.19 L22.76 738.68 z" fill="#E7E7E7"/><path d="M18.25 741.97 L18.25 741.97 L18.25 741.97 z" fill="#E7E7E7"/><path d="M18.40 741.69 L18.35 741.75 L18.47 741.66 z" fill="#E7E7E7"/><path d="M18.29 741.77 L18.35 741.75 L18.40 741.69 z" fill="#E7E7E7"/><path d="M18.50 741.65 L18.47 741.66 L18.35 741.75 z" fill="#E7E7E7"/><path d="M18.50 741.65 L18.79 741.52 L19.16 741.26 z" fill="#E7E7E7"/><path d="M18.35 741.75 L18.79 741.52 L18.50 741.65 z" fill="#E7E7E7"/><path d="M19.54 741.03 L19.27 741.19 L19.16 741.29 z" fill="#E7E7E7"/><path d="M19.16 741.29 L19.27 741.19 L18.79 741.52 z" fill="#E7E7E7"/><path d="M18.79 741.52 L19.27 741.19 L19.16 741.26 z" fill="#E7E7E7"/><path d="M19.16 741.29 L18.25 741.97 L18.25 741.97 z" fill="#E7E7E7"/><path d="M19.16 741.29 L18.79 741.52 L18.25 741.97 z" fill="#E7E7E7"/><path d="M18.25 741.97 L18.25 741.97 L18.25 741.97 z" fill="#E7E7E7"/><path d="M20.25 740.61 L22.82 738.79 L18.25 741.97 z" fill="#E7E7E7"/><path d="M19.16 741.29 L20.68 740.37 L21.86 739.41 z" fill="#E7E7E7"/><path d="M18.25 741.97 L20.68 740.37 L19.16 741.29 z" fill="#E7E7E7"/><path d="M20.68 740.37 L18.25 741.97 L18.25 741.97 z" fill="#E7E7E7"/><path d="M18.25 741.97 L15.79 743.49 L17.63 742.36 z" fill="#E7E7E7"/><path d="M17.91 742.20 L17.79 742.28 L17.90 742.56 z" fill="#111C33"/><path d="M17.79 742.28 L17.67 742.67 L17.90 742.56 z" fill="#111C33"/><path d="M18.10 742.08 L17.91 742.20 L17.90 742.56 z" fill="#111C33"/><path d="M17.96 742.54 L18.15 742.06 L18.10 742.08 z" fill="#111C33"/><path d="M17.96 742.54 L18.10 742.08 L17.90 742.56 z" fill="#111C33"/><path d="M17.96 742.54 L18.18 742.03 L18.15 742.06 z" fill="#111C33"/><path d="M18.18 742.03 L18.31 742.36 L18.41 741.89 z" fill="#111C33"/><path d="M17.96 742.54 L18.31 742.36 L18.18 742.03 z" fill="#111C33"/><path d="M18.41 741.89 L18.34 742.35 L18.43 741.88 z" fill="#111C33"/><path d="M18.31 742.36 L18.34 742.35 L18.41 741.89 z" fill="#111C33"/><path d="M18.34 742.35 L18.46 741.86 L18.43 741.88 z" fill="#111C33"/><path d="M18.71 741.71 L18.46 741.86 L18.75 742.16 z" fill="#111C33"/><path d="M18.75 742.16 L18.46 741.86 L18.34 742.35 z" fill="#111C33"/><path d="M18.71 741.71 L18.71 741.71 L18.77 742.15 z" fill="#111C33"/><path d="M18.71 741.71 L18.75 742.16 L18.77 742.15 z" fill="#111C33"/><path d="M18.77 742.15 L18.75 741.68 L18.71 741.71 z" fill="#111C33"/><path d="M18.90 741.60 L18.75 741.68 L19.07 741.99 z" fill="#111C33"/><path d="M18.75 741.68 L18.77 742.15 L19.07 741.99 z" fill="#111C33"/><path d="M18.90 741.60 L19.07 741.99 L19.78 741.05 z" fill="#111C33"/><path d="M15.75 743.36 L15.79 743.49 L18.25 741.97 z" fill="#E7E7E7"/><path d="M17.67 742.67 L17.18 744.30 L17.90 742.56 z" fill="#111C33"/><path d="M17.98 742.01 L18.25 741.97 L18.79 741.52 z" fill="#E7E7E7"/><path d="M18.35 741.75 L17.98 742.01 L18.79 741.52 z" fill="#E7E7E7"/><path d="M17.98 742.01 L18.35 741.75 L18.29 741.77 z" fill="#E7E7E7"/><path d="M17.98 742.01 L15.75 743.36 L18.25 741.97 z" fill="#E7E7E7"/><path d="M17.90 742.56 L17.18 744.30 L17.96 742.54 z" fill="#111C33"/><path d="M18.11 743.27 L18.31 742.36 L17.96 742.54 z" fill="#111C33"/><path d="M18.11 743.27 L17.96 742.54 L17.18 744.30 z" fill="#111C33"/><path d="M18.34 742.35 L18.31 742.36 L18.11 743.27 z" fill="#111C33"/><path d="M18.34 742.35 L18.78 742.37 L18.75 742.16 z" fill="#111C33"/><path d="M18.34 742.35 L18.11 743.27 L18.78 742.37 z" fill="#111C33"/><path d="M18.75 742.16 L18.78 742.37 L18.77 742.15 z" fill="#111C33"/><path d="M19.07 741.99 L18.77 742.15 L18.78 742.37 z" fill="#111C33"/><path d="M22.66 694.69 L22.91 694.32 L21.41 692.19 z" fill="#111C33"/><path d="M22.66 694.69 L24.17 696.76 L22.91 694.32 z" fill="#111C33"/><path d="M19.82 690.21 L21.22 692.63 L21.41 692.19 z" fill="#111C33"/><path d="M22.66 694.69 L21.41 692.19 L21.22 692.63 z" fill="#111C33"/><path d="M23.11 694.79 L21.89 693.03 L22.97 695.08 z" fill="#000000"/><path d="M22.97 695.08 L21.89 693.03 L21.95 693.60 z" fill="#000000"/><path d="M21.89 693.03 L20.55 691.37 L21.95 693.60 z" fill="#000000"/><path d="M30.64 721.84 L32.04 721.05 L31.51 720.79 z" fill="#E7E7E7"/><path d="M31.50 721.30 L30.95 721.64 L31.93 721.12 z" fill="#111C33"/><path d="M30.64 721.84 L32.13 721.10 L32.04 721.05 z" fill="#E7E7E7"/><path d="M32.13 721.10 L30.64 721.84 L29.23 723.53 z" fill="#E7E7E7"/><path d="M-43.02 747.05 z" fill="#111C33"/><path d="M-40.15 746.64 L-40.15 746.64 L-40.15 746.65 z" fill="#111C33"/><path d="M-40.15 746.64 L-39.01 747.38 L-40.05 746.60 z" fill="#111C33"/><path d="M-39.01 747.38 z" fill="#111C33"/><path d="M-40.15 746.65 L-39.01 747.38 L-40.15 746.64 z" fill="#111C33"/><path d="M-38.74 747.44 L-39.52 747.00 L-39.01 747.38 z" fill="#E7E7E7"/><path d="M-43.02 747.05 L-42.78 747.48 L-42.40 745.85 z" fill="#111C33"/><path d="M-42.33 745.81 L-42.40 745.85 L-42.78 747.48 z" fill="#111C33"/><path d="M-42.78 747.48 z" fill="#111C33"/><path d="M-41.24 746.63 L-41.89 748.78 L-40.59 747.46 z" fill="#111C33"/><path d="M-40.87 746.75 L-40.59 747.46 L-40.36 746.68 z" fill="#111C33"/><path d="M-39.71 748.40 L-40.36 746.68 L-40.59 747.46 z" fill="#111C33"/><path d="M-39.71 748.40 L-40.21 746.68 L-40.36 746.68 z" fill="#111C33"/><path d="M-38.49 749.40 L-39.01 747.38 L-40.15 746.65 z" fill="#111C33"/><path d="M-38.49 749.40 L-40.21 746.68 L-39.71 748.40 z" fill="#111C33"/><path d="M-40.15 746.64 L-38.49 749.40 L-40.15 746.65 z" fill="#111C33"/><path d="M-38.49 749.40 L-40.15 746.64 L-40.21 746.68 z" fill="#111C33"/><path d="M-41.26 746.46 L-41.24 746.63 L-40.59 747.46 z" fill="#111C33"/><path d="M-41.26 746.46 L-40.59 747.46 L-40.87 746.75 z" fill="#111C33"/><path d="M-41.76 745.93 L-42.41 748.02 L-41.24 746.63 z" fill="#111C33"/><path d="M-42.41 748.02 L-41.89 748.78 L-41.24 746.63 z" fill="#111C33"/><path d="M-41.76 745.93 L-42.78 747.48 L-42.41 748.02 z" fill="#111C33"/><path d="M-41.35 745.58 L-41.31 745.92 L-41.18 745.99 z" fill="#111C33"/><path d="M-40.15 746.64 L-40.29 746.41 L-40.15 746.64 z" fill="#111C33"/><path d="M-40.15 746.64 L-40.29 746.41 L-40.24 746.59 z" fill="#111C33"/><path d="M-40.29 746.41 L-40.15 746.64 L-40.05 746.60 z" fill="#111C33"/><path d="M-40.29 746.41 L-40.32 746.53 L-40.24 746.59 z" fill="#111C33"/><path d="M-41.35 745.58 L-41.18 745.99 L-40.71 746.29 z" fill="#111C33"/><path d="M-40.29 746.41 L-41.35 745.58 L-40.32 746.53 z" fill="#111C33"/><path d="M-40.71 746.29 L-40.32 746.53 L-41.35 745.58 z" fill="#111C33"/><path d="M-42.16 745.51 L-42.07 745.56 L-42.14 745.48 z" fill="#111C33"/><path d="M-39.52 747.00 L-38.74 747.44 L-40.34 746.39 z" fill="#E7E7E7"/><path d="M-42.78 747.48 L-42.32 745.81 L-42.33 745.81 z" fill="#111C33"/><path d="M-42.32 745.81 L-42.78 747.48 L-41.76 745.93 z" fill="#111C33"/><path d="M-38.73 747.44 L-40.34 746.39 L-38.74 747.44 z" fill="#E7E7E7"/><path d="M-41.76 745.93 L-42.07 745.56 L-42.16 745.51 z" fill="#111C33"/><path d="M-41.31 745.92 L-41.26 746.46 L-40.87 746.75 z" fill="#111C33"/><path d="M-41.18 745.99 L-41.31 745.92 L-40.87 746.75 z" fill="#111C33"/><path d="M-40.15 746.64 L-40.24 746.59 L-40.21 746.68 z" fill="#111C33"/><path d="M-40.21 746.68 L-40.32 746.53 L-40.36 746.68 z" fill="#111C33"/><path d="M-40.24 746.59 L-40.32 746.53 L-40.21 746.68 z" fill="#111C33"/><path d="M-40.36 746.68 L-41.18 745.99 L-40.87 746.75 z" fill="#111C33"/><path d="M-41.18 745.99 L-40.36 746.68 L-40.71 746.29 z" fill="#111C33"/><path d="M-40.36 746.68 L-40.32 746.53 L-40.71 746.29 z" fill="#111C33"/><path d="M-42.16 745.51 L-42.32 745.81 L-41.76 745.93 z" fill="#111C33"/><path d="M-41.55 746.54 L-39.01 747.54 L-41.42 746.55 z" fill="#E7E7E7"/><path d="M-43.02 747.05 L-41.90 744.52 L-43.01 746.81 z" fill="#111C33"/><path d="M-42.40 745.85 L-42.32 745.81 L-42.18 744.87 z" fill="#111C33"/><path d="M-42.18 744.87 L-42.32 745.81 L-42.20 745.40 z" fill="#111C33"/><path d="M-42.40 745.85 L-42.18 744.87 L-42.69 746.41 z" fill="#111C33"/><path d="M-42.69 746.41 L-42.18 744.87 L-42.77 746.39 z" fill="#111C33"/><path d="M-42.32 745.81 L-42.14 745.48 L-42.20 745.40 z" fill="#111C33"/><path d="M-41.57 746.53 L-41.55 746.54 L-41.42 746.55 z" fill="#E7E7E7"/><path d="M-42.77 746.39 L-43.02 747.05 L-42.69 746.41 z" fill="#111C33"/><path d="M-41.57 746.53 L-41.42 746.55 L-44.15 745.44 z" fill="#E7E7E7"/><path d="M-30.79 853.53 L-30.87 853.50 L-30.72 853.56 z" fill="#E7E7E7"/><path d="M-29.39 854.06 L-30.61 854.65 L-29.19 854.13 z" fill="#111C33"/><path d="M-29.19 854.13 z" fill="#111C33"/><path d="M-30.61 854.65 L-29.54 853.97 L-29.81 854.06 z" fill="#111C33"/><path d="M-29.66 854.00 L-29.77 854.05 L-29.54 853.97 z" fill="#E7E7E7"/><path d="M-29.54 853.97 L-29.71 854.08 L-29.57 854.15 z" fill="#111C33"/><path d="M-29.76 854.04 L-29.77 854.05 L-29.66 854.00 z" fill="#E7E7E7"/><path d="M-29.39 854.06 L-29.54 853.97 L-29.57 854.15 z" fill="#111C33"/><path d="M-30.72 853.56 L-30.40 853.70 L-30.59 853.61 z" fill="#E7E7E7"/><path d="M-30.79 853.53 L-30.72 853.56 L-30.59 853.61 z" fill="#E7E7E7"/><path d="M-29.57 854.15 L-29.71 854.08 L-30.61 854.65 z" fill="#111C33"/><path d="M-29.76 854.04 L-29.81 854.06 L-29.77 854.05 z" fill="#E7E7E7"/><path d="M-29.38 854.72 L-28.32 853.56 L-27.87 852.83 z" fill="#111C33"/><path d="M-29.38 854.72 L-27.87 852.83 L-29.19 854.13 z" fill="#111C33"/><path d="M-29.66 854.00 L-29.54 853.97 L-29.21 853.83 z" fill="#E7E7E7"/><path d="M-29.19 854.13 L-28.42 853.59 L-29.39 854.06 z" fill="#111C33"/><path d="M-29.54 853.97 L-29.39 854.06 L-28.42 853.59 z" fill="#111C33"/><path d="M-28.42 853.59 L-29.21 853.83 L-29.54 853.97 z" fill="#E7E7E7"/><path d="M-29.14 854.15 L-30.40 853.70 L-29.96 853.89 z" fill="#E7E7E7"/><path d="M-29.14 854.15 L-30.59 853.61 L-30.40 853.70 z" fill="#E7E7E7"/><path d="M30.77 720.78 L28.29 722.72 L29.51 721.99 z" fill="#E7E7E7"/><path d="M30.77 720.78 L30.11 721.60 L31.06 720.79 z" fill="#E7E7E7"/><path d="M30.77 720.78 L30.05 721.64 L30.11 721.60 z" fill="#E7E7E7"/><path d="M30.77 720.78 L29.51 721.99 L30.05 721.64 z" fill="#E7E7E7"/><path d="M30.05 721.64 L29.51 721.99 L29.96 721.71 z" fill="#E7E7E7"/><path d="M12.74 728.58 L20.78 727.05 L29.68 721.88 z" fill="#111C33"/><path d="M30.05 721.64 L29.96 721.71 L30.04 721.66 z" fill="#E7E7E7"/><path d="M30.11 721.60 L30.05 721.64 L30.04 721.66 z" fill="#E7E7E7"/><path d="M20.78 727.05 L23.98 725.28 L29.68 721.88 z" fill="#111C33"/><path d="M30.04 721.66 L29.51 721.99 L28.23 723.22 z" fill="#E7E7E7"/><path d="M28.23 723.22 L29.51 721.99 L28.29 722.72 z" fill="#E7E7E7"/><path d="M28.23 723.22 L28.29 722.72 L27.73 723.17 z" fill="#E7E7E7"/><path d="M40.14 808.69 L40.36 808.10 L40.83 807.15 L40.23 805.67 L40.08 804.60 L39.90 805.22 L39.73 806.29 L39.61 807.99 z M-66.81 806.01 L-67.01 807.53 L-66.83 806.81 L-66.62 805.24 L-66.36 803.58 L-66.58 804.39 z M-40.01 770.27 L-40.35 770.35 L-40.19 772.08 L-40.07 773.51 L-40.65 773.55 L-41.21 773.56 L-41.18 774.96 L-41.07 776.42 L-41.68 776.43 L-42.23 776.39 L-42.15 777.94 L-42.08 779.63 L-42.57 779.61 L-42.49 781.42 L-41.98 781.41 L-41.47 779.61 L-41.58 777.96 L-40.92 777.93 L-40.41 776.37 L-40.55 774.93 L-39.92 774.88 L-40.41 776.37 L-40.22 777.85 L-40.92 777.93 L-40.78 779.55 L-41.47 779.61 L-41.35 781.33 L-41.98 781.41 L-42.39 783.30 L-42.19 785.25 L-41.95 787.28 L-41.69 785.08 L-41.85 783.21 L-41.17 783.06 L-40.58 781.22 L-39.99 779.43 L-39.45 777.73 L-39.72 776.28 L-38.98 776.12 L-38.58 774.60 L-38.90 773.29 L-38.37 773.09 L-38.82 771.74 L-39.69 770.20 z M-33.48 670.29 L-38.00 672.37 L-42.42 674.94 L-46.72 677.87 L-50.66 681.36 L-50.98 681.74 L-53.99 685.41 L-54.34 685.99 L-56.82 690.54 L-58.55 694.84 L-58.96 696.06 L-60.33 700.42 L-58.99 697.34 L-57.05 691.54 L-54.53 686.89 L-54.34 685.99 L-50.98 681.74 L-47.12 678.76 L-42.65 675.65 L-37.97 672.53 L-33.34 670.44 L-28.88 668.72 z M30.09 767.46 L27.44 765.01 L30.93 768.25 L28.50 765.41 L31.32 769.26 L30.93 768.25 z M-38.46 771.20 L-38.27 771.52 L-38.03 771.85 L-37.51 769.92 L-39.67 764.97 L-38.81 767.50 L-38.74 768.78 L-39.01 769.47 L-38.82 770.76 L-38.78 773.49 L-38.83 772.47 L-39.46 775.91 L-39.64 776.97 L-40.73 780.87 L-42.10 785.04 L-43.57 789.01 L-45.11 793.03 L-43.76 790.36 L-42.10 785.04 L-42.31 786.37 L-42.26 787.69 L-40.92 783.62 L-39.77 779.48 L-38.82 775.43 z M35.30 875.11 L37.11 875.10 L37.69 875.17 L38.37 875.27 L39.65 875.07 L40.81 874.92 L40.08 874.74 L41.08 874.49 L40.32 874.32 L41.12 874.11 L42.30 873.91 L42.68 873.58 L42.13 872.88 L42.20 872.34 L41.17 871.55 L41.90 871.28 L41.67 870.80 L40.32 870.49 L39.17 870.36 L38.52 869.74 L37.45 869.59 L37.54 869.09 L35.58 868.49 L35.61 868.91 L34.63 868.62 L33.16 868.30 L35.99 869.03 L35.61 868.91 L36.73 869.42 L38.27 870.23 L37.87 870.01 L39.02 870.82 L39.77 871.39 L40.29 871.46 L40.59 871.99 L41.39 872.13 L41.35 872.71 L41.20 873.21 L41.91 873.39 L41.57 873.79 L40.48 873.99 L40.35 873.58 L39.80 874.13 L40.00 874.03 L39.28 874.38 L40.48 873.99 L39.66 874.28 L39.41 874.62 L38.34 874.88 L36.63 874.96 L34.91 874.95 L33.45 874.96 L34.79 874.88 L36.26 874.83 L37.44 874.72 L37.50 874.71 L36.24 874.76 L34.90 874.83 L33.47 874.89 L32.04 875.04 L33.62 875.07 z M17.62 768.25 L18.84 766.94 L18.95 766.09 L18.83 765.98 L17.48 767.05 L17.61 767.37 L17.00 767.83 L18.00 769.22 z M14.51 876.68 L15.98 876.90 L13.87 876.55 L15.42 876.85 L15.98 876.90 L16.59 876.85 z M21.41 692.19 L22.91 694.32 L24.17 696.76 L22.66 694.69 L23.84 697.04 L24.66 699.87 L25.29 702.90 L25.07 699.70 L24.17 696.76 L23.24 693.50 L21.41 692.19 L19.94 689.07 L18.00 687.20 L17.96 688.43 L17.83 688.99 L19.66 690.69 L21.22 692.63 L19.82 690.21 z M-52.51 819.39 L-51.35 815.39 L-50.76 813.28 L-51.75 816.66 L-53.05 819.95 L-51.50 817.12 L-53.37 820.33 L-53.05 819.95 L-53.87 823.04 z M-54.41 857.25 L-53.34 858.73 L-52.06 859.52 L-53.51 857.90 L-54.60 856.25 L-55.19 855.81 L-55.88 854.57 L-56.35 853.58 L-56.72 852.93 L-56.95 852.59 L-56.08 850.78 L-57.11 852.48 L-55.88 850.68 L-57.28 852.51 L-57.11 852.48 L-58.04 853.99 L-57.65 854.35 L-57.13 854.93 L-56.47 855.86 L-55.70 857.05 L-54.75 858.42 z M32.85 873.18 L31.44 873.87 L29.34 874.46 L29.73 874.50 L31.60 874.07 L33.06 873.32 L34.51 872.89 L34.18 872.33 L34.31 871.51 L33.98 871.87 L33.36 872.98 L33.64 872.62 z M37.50 806.32 L38.40 807.54 L37.95 806.90 L38.66 808.22 L38.40 807.54 L38.52 806.99 L38.09 806.20 L38.68 806.20 L38.17 805.39 L38.16 804.46 L37.08 804.35 L36.56 804.34 L37.54 804.61 L37.58 805.43 L37.57 806.06 L37.99 806.78 z M29.33 875.57 L27.28 875.71 L26.72 875.57 L24.55 875.69 L24.29 875.53 L22.36 875.62 L20.73 875.69 L19.56 875.58 L18.29 875.63 L17.17 875.65 L16.08 875.65 L15.05 875.61 L14.63 875.81 L14.38 876.02 L15.43 876.03 L16.55 876.01 L17.83 876.15 L19.34 876.10 L21.06 876.03 L21.57 876.17 L23.56 876.08 L24.23 876.20 L26.40 876.06 L26.97 876.13 L27.42 876.17 L29.93 876.02 L31.91 875.85 L33.73 875.69 L35.36 875.54 L33.26 875.68 L32.71 875.65 L30.42 875.75 L29.86 875.67 z M-46.16 863.28 L-44.23 864.17 L-44.11 863.45 L-44.09 863.12 L-46.31 862.64 L-46.50 862.49 L-49.06 861.51 L-51.08 860.41 L-48.72 861.78 L-46.16 862.82 L-48.38 861.91 L-50.58 860.67 L-52.51 859.09 L-52.06 859.52 L-50.24 861.66 L-48.21 862.22 z M39.74 870.92 L39.02 870.82 L39.17 870.36 z M-39.22 769.71 L-38.72 768.40 L-38.65 766.87 L-39.22 764.84 L-39.13 766.36 L-38.94 768.23 L-39.87 771.96 z M34.10 707.71 L35.17 711.19 L35.78 714.73 L34.87 709.27 L33.79 705.75 L33.13 703.89 L31.67 700.26 L30.01 696.42 L32.36 702.06 L33.79 705.75 z M28.40 818.79 L26.86 814.79 L25.94 812.12 L25.95 811.20 L25.19 807.53 L25.35 808.70 L25.23 809.98 L25.45 813.27 L25.89 816.77 L26.68 815.44 z M11.42 874.68 L11.72 875.24 L12.26 875.71 L12.83 876.12 L11.72 875.24 L11.14 874.01 L10.86 873.17 L10.48 872.28 L9.93 871.07 L8.91 868.76 L10.06 871.98 L10.60 873.33 L11.01 874.12 L11.45 874.81 L11.81 875.30 z M-67.31 818.65 L-66.48 818.51 L-64.52 816.82 L-63.71 814.29 L-65.42 815.33 L-66.41 813.94 L-66.43 811.93 L-66.66 812.26 L-66.82 812.56 L-66.98 812.80 L-67.04 814.32 L-67.30 816.01 L-67.16 816.12 L-67.94 818.63 z M21.27 876.74 L21.21 876.69 L19.62 876.77 L18.42 876.80 L17.32 876.79 L16.19 876.72 L15.30 876.76 L16.59 876.85 L17.98 876.88 L19.46 876.84 L19.32 876.89 L21.35 876.75 L23.63 876.54 z M-53.15 858.62 L-51.08 860.41 L-51.56 859.95 L-51.98 859.35 L-54.32 857.14 L-55.55 855.63 L-57.54 851.96 L-56.85 853.23 L-55.55 855.63 L-54.82 856.58 L-53.78 857.91 z M34.63 868.63 L37.04 869.36 L35.99 869.03 z M-41.59 745.46 L-39.01 747.38 L-40.34 746.39 z M-38.38 862.66 L-37.55 862.30 L-40.00 863.04 L-38.88 863.28 L-37.43 862.89 L-35.36 861.03 L-36.86 861.96 L-35.91 861.37 z M-33.72 859.47 L-33.59 858.90 L-34.10 859.79 L-35.36 861.03 L-35.77 861.88 L-34.46 860.52 L-34.43 861.23 L-34.22 861.87 L-34.10 862.48 L-33.84 860.52 L-33.79 859.99 z M-9.98 666.72 L-4.83 667.43 L0.08 668.50 L-0.35 668.39 L-5.18 667.30 z M-53.81 763.73 L-54.93 766.53 L-56.19 769.48 L-54.36 765.45 z M34.90 859.58 L35.59 856.93 L36.18 853.72 L35.62 856.54 L34.91 859.12 L34.25 862.02 z M33.48 722.52 L32.95 724.86 L33.90 722.69 L32.85 725.81 L33.43 724.19 L34.49 720.93 L35.20 717.87 L34.57 720.01 z M29.23 766.04 L27.68 763.43 L25.91 760.08 L27.99 764.09 L26.69 760.40 L27.94 764.93 L27.99 764.09 L29.54 766.86 z M4.29 857.87 L4.79 859.12 L5.35 860.59 L6.12 862.40 L5.15 859.87 L4.66 858.53 L4.23 857.44 L3.81 856.44 L3.87 856.84 z M-58.63 831.25 L-55.97 824.98 L-57.71 828.57 z M-64.85 819.75 L-63.73 818.14 L-63.08 817.42 L-63.33 817.03 L-64.48 817.54 L-65.50 818.01 L-65.03 818.56 L-66.02 818.59 L-66.55 819.21 L-66.74 820.85 L-66.23 820.38 L-66.06 821.48 z M29.06 875.96 L28.50 875.90 L25.73 875.96 L22.99 875.94 L20.77 875.86 L22.55 875.78 L25.06 875.84 L27.90 875.82 L28.50 875.90 L30.97 875.80 L31.47 875.84 L31.91 875.85 L29.53 876.00 z M17.95 875.79 L19.30 875.75 L20.77 875.86 L19.19 875.92 L17.79 875.97 L16.76 875.82 z M24.28 875.02 L24.42 875.11 L26.44 875.12 L28.56 875.11 L28.65 875.27 L30.47 875.14 L31.92 874.94 L30.12 874.85 L29.92 874.65 L27.73 874.80 L27.26 874.74 L25.54 874.87 L24.14 874.98 z M28.14 692.35 L25.89 688.24 L27.37 691.01 L25.24 687.04 L22.57 683.03 L19.27 679.02 L19.83 680.13 L23.17 684.13 L23.58 685.40 L26.30 689.51 L28.64 693.73 z M5.78 861.58 L6.12 862.40 L6.68 863.66 L8.24 867.31 L9.29 869.78 L8.91 868.76 L7.87 866.28 L6.68 863.66 z M33.77 864.96 L34.03 862.73 L33.84 864.16 L33.77 864.96 L33.98 865.93 L34.23 866.69 L34.46 867.44 z M-59.75 838.70 L-59.81 841.57 L-59.45 835.10 z M-27.31 852.02 L-28.32 853.56 L-29.38 854.72 L-28.78 854.39 z M-39.72 771.99 L-39.24 771.90 L-39.49 773.40 z M-58.19 809.09 L-58.96 810.48 L-59.75 812.17 L-59.13 810.92 L-58.40 809.51 z M-59.46 844.43 L-59.39 844.65 L-59.45 841.37 L-59.75 838.12 L-59.81 841.57 z M-50.31 811.21 L-49.87 809.38 L-51.35 815.39 z M39.73 806.29 L39.82 805.97 L38.83 806.57 z M22.85 796.31 L21.05 792.40 L23.27 797.77 z M-62.15 708.54 L-62.87 712.25 L-63.32 715.84 L-63.46 717.78 L-62.87 712.25 L-63.08 714.16 L-62.39 710.38 z M26.38 755.25 L26.95 759.20 L27.19 762.35 L27.30 761.48 L27.15 760.84 L26.23 757.06 L27.30 761.48 L26.97 758.37 L26.24 754.49 z M-57.28 852.51 L-55.83 850.96 L-57.41 852.61 z M-62.20 726.33 L-63.31 721.29 L-62.65 724.61 z M24.02 750.19 L20.95 747.18 L18.66 744.79 L19.06 745.51 L21.26 747.74 L24.21 750.59 z M-40.73 780.87 L-40.43 779.81 L-41.66 783.83 z M-39.49 773.40 L-39.26 774.76 L-39.92 774.88 z M-33.45 859.39 L-35.91 861.37 L-34.44 860.26 z M5.01 670.05 L0.08 668.50 L5.63 670.53 L10.56 672.64 L14.50 674.77 L9.88 672.10 z M35.97 868.14 L36.48 868.46 L34.75 867.31 L34.20 867.00 L35.35 867.91 L36.50 868.53 L37.19 868.70 L37.75 868.90 z M-42.11 779.11 L-44.41 783.97 L-42.48 780.02 z M28.09 874.88 L28.38 874.98 L26.26 874.99 z M-46.63 862.24 L-46.50 862.49 L-44.09 863.12 L-41.91 863.17 L-43.99 862.82 z M30.09 874.25 L31.44 873.87 L31.45 873.83 L30.52 874.12 z M14.50 674.77 L19.27 679.02 L18.57 678.22 z M17.78 782.39 L16.74 778.53 L18.17 784.02 L19.24 787.88 L20.20 789.99 L18.99 786.20 z M24.05 801.50 L24.69 806.59 L25.35 808.70 L24.49 803.78 z M12.83 876.12 L12.95 876.11 L12.00 875.32 L11.72 875.24 L12.24 875.72 z M-66.89 814.22 L-66.60 814.04 L-66.53 816.12 z M19.06 745.51 L18.38 742.63 L18.46 743.35 L18.40 744.20 L19.26 746.27 z M34.41 774.25 L33.90 773.08 L32.49 770.05 z M39.99 803.02 L40.12 803.86 L40.28 804.77 z M3.87 856.84 L3.32 855.53 L3.42 855.87 z" fill="#111C33"/><path d="M-29.21 853.83 L-30.75 853.72 L-29.96 853.89 L-30.87 853.50 L-31.75 853.24 L-32.59 853.08 L-31.51 853.96 L-29.81 854.06 z M-5.79 750.23 L-2.28 749.56 L-1.57 749.10 L-0.92 748.76 L-4.93 749.59 L-8.95 750.31 L-13.04 750.48 L-17.17 750.52 L-20.81 750.57 L-23.79 750.65 L-19.54 751.63 L-16.20 751.75 L-12.85 751.77 L-9.50 751.63 z M-10.25 856.77 L-13.73 857.61 L-10.41 856.92 L-7.32 856.61 L-7.22 856.27 L-7.37 855.79 z M-51.15 731.75 L-51.58 731.96 L-55.05 730.04 L-55.45 730.13 L-52.01 732.26 L-48.57 734.59 L-48.28 733.85 L-47.76 733.46 L-47.22 733.22 L-46.67 733.05 L-42.62 734.12 L-37.34 734.45 L-37.63 733.70 L-54.48 730.38 L-42.03 733.92 L-46.10 732.91 L-50.36 731.52 L-50.71 731.60 z M28.72 723.33 L29.23 723.53 L31.51 720.79 L31.06 720.79 L28.23 723.22 z M-26.60 749.45 L-29.96 749.42 L-32.43 749.26 L-33.91 749.12 L-29.22 750.67 L-27.32 750.28 L-24.73 750.31 L-21.38 750.33 z M-2.42 855.25 L-4.59 855.55 L-7.32 856.61 L-10.52 856.71 L-7.39 856.68 L-4.63 856.09 L-2.42 855.25 L-2.46 855.48 L-0.85 854.96 L-2.61 855.35 L-0.91 855.22 L0.09 854.96 L0.14 854.62 L-0.62 854.58 z M24.45 736.94 L22.76 738.68 L20.68 740.37 L22.82 738.79 L24.50 737.31 L25.86 735.97 L28.35 733.46 L24.50 737.31 L25.11 736.77 L26.97 734.73 L28.92 732.57 L25.11 736.77 L26.91 735.03 L28.35 733.46 L30.41 730.69 L31.96 727.71 L30.46 729.91 L32.95 724.86 L33.48 722.52 L32.29 724.26 L31.58 727.09 L30.46 729.91 L28.44 732.52 z M-12.95 750.93 L-16.57 750.97 L-16.91 750.69 L-13.02 750.64 z M13.49 744.65 L10.76 745.79 L7.72 746.87 L12.71 744.74 z M3.32 855.53 L2.94 855.09 L2.48 854.84 L1.99 854.67 L2.59 854.88 L2.48 854.84 L3.03 855.32 L3.42 855.87 z M17.18 744.30 L17.91 741.85 L16.78 743.06 z M-16.66 857.18 L-19.03 856.69 L-16.55 857.22 z M25.23 725.34 L25.85 725.46 L28.23 723.22 L27.73 723.17 L24.62 725.29 L23.98 725.28 L20.78 727.05 L21.44 727.11 L22.08 727.18 z M14.64 743.65 L10.93 745.15 L9.32 746.00 L5.78 747.17 L2.13 748.19 L1.15 748.76 L0.20 749.83 L3.28 749.04 L6.25 748.18 L9.04 747.25 L11.51 746.29 L13.61 745.26 L17.63 742.36 L15.79 743.49 L15.75 743.36 z M-24.10 855.65 L-22.03 856.27 L-22.58 856.03 z M-37.04 748.94 L-36.83 748.40 L-38.73 747.44 L-39.01 747.38 z" fill="#E7E7E7"/><path d="M-52.80 711.44 L-52.96 708.48 L-52.83 705.65 L-52.21 703.20 L-51.21 700.93 L-51.41 700.43 L-52.45 702.77 L-53.13 705.33 L-53.31 708.28 L-53.18 711.37 L-52.17 714.23 L-52.49 712.56 L-53.04 710.13 z M21.22 692.63 L19.66 690.69 L17.83 688.99 L15.64 687.70 L12.88 686.98 L13.05 687.69 L17.14 688.89 L15.74 688.42 L17.86 689.65 L19.66 690.69 L21.18 693.15 L22.57 695.16 L22.66 694.69 z M24.97 703.04 L25.16 705.86 L25.29 702.90 L24.66 699.87 z M-43.68 693.77 L-43.68 693.03 L-46.51 694.35 L-48.45 696.75 L-46.43 695.08 L-47.47 695.81 z" fill="#E7E7E7"/><path d="M3.60 854.73 L3.32 855.53 L3.87 856.84 L3.81 856.44 L4.23 857.44 L4.66 858.53 L5.15 859.87 L5.78 861.58 L6.68 863.66 L7.87 866.28 L8.91 868.76 L9.93 871.07 L10.48 872.28 L10.86 873.17 L11.14 874.01 L11.72 875.24 L12.00 875.32 L12.95 876.11 L12.83 876.12 L13.87 876.55 L14.51 876.68 L15.30 876.76 L16.19 876.72 L17.32 876.79 L18.42 876.80 L19.62 876.77 L21.21 876.69 L21.27 876.74 L23.45 876.57 L25.79 876.39 L28.11 876.18 L29.93 876.02 L27.42 876.17 L26.97 876.13 L26.40 876.06 L24.23 876.20 L23.56 876.08 L21.57 876.17 L21.06 876.03 L19.34 876.10 L17.83 876.15 L16.55 876.01 L15.43 876.03 L14.38 876.02 L14.63 875.81 L15.05 875.61 L16.08 875.65 L17.17 875.65 L18.29 875.63 L19.56 875.58 L20.73 875.69 L22.36 875.62 L24.29 875.53 L24.55 875.69 L26.72 875.57 L27.28 875.71 L29.33 875.57 L29.86 875.67 L30.42 875.75 L32.71 875.65 L33.26 875.68 L35.36 875.54 L36.89 875.45 L38.31 875.40 L39.75 875.36 L41.03 875.29 L42.66 875.02 L43.65 874.77 L44.52 874.47 L44.91 874.26 L45.66 873.99 L45.99 873.81 L46.25 873.51 L45.66 873.99 L46.12 873.72 L46.25 873.51 L46.21 873.13 L46.00 872.76 L45.81 872.56 L45.50 872.17 L44.62 871.61 L43.99 871.24 L42.86 870.68 L41.61 870.19 L42.17 870.52 L41.55 870.14 L40.65 869.88 L41.61 870.19 L40.27 869.69 L39.03 869.26 L37.75 868.90 L37.19 868.70 L36.50 868.53 L35.35 867.91 L34.20 867.00 L34.75 867.31 L33.98 865.93 L33.84 864.16 L34.25 862.02 L34.91 859.12 L35.62 856.54 L36.18 853.72 L36.58 850.22 L36.68 845.93 L36.25 841.24 L35.28 836.42 L33.83 831.71 L32.06 827.19 L30.15 822.91 L28.40 818.79 L26.68 815.44 L25.89 816.77 L25.45 813.27 L25.23 809.98 L25.35 808.70 L25.19 807.53 L24.49 803.78 L25.35 808.70 L24.69 806.59 L24.05 801.50 L23.27 797.77 L21.05 792.40 L21.61 793.93 L20.20 789.99 L19.24 787.88 L18.17 784.02 L17.20 780.15 L16.37 776.21 L16.09 771.90 L16.16 773.74 L16.40 777.75 L17.04 781.71 L17.83 785.64 L18.81 789.57 L19.98 793.60 L21.76 797.50 L22.77 801.20 L23.83 804.66 L24.44 808.19 L24.47 811.43 L24.44 814.71 L24.65 817.97 L23.30 821.81 L21.34 826.05 L18.63 829.99 L16.36 833.55 L14.26 836.99 L12.28 840.25 L10.50 843.06 L8.80 845.83 L7.20 848.36 L5.75 850.50 L4.76 852.03 L4.24 853.42 z M-61.04 870.58 L-60.93 871.28 L-60.50 871.69 L-60.34 871.86 L-59.56 871.55 L-58.54 870.92 L-57.45 870.34 L-56.36 869.93 L-55.05 869.74 L-53.52 870.27 L-53.63 870.13 L-53.15 871.15 L-52.84 872.24 L-52.52 873.36 L-52.20 874.38 L-52.56 873.13 L-52.27 874.20 L-52.20 874.38 L-51.74 875.01 L-51.02 874.95 L-51.64 874.95 L-50.70 875.02 L-49.83 874.65 L-48.95 874.08 L-48.12 873.56 L-47.29 873.07 L-46.42 872.59 L-45.03 872.04 L-43.15 873.19 L-43.65 872.34 L-45.03 872.04 L-45.61 871.96 L-43.65 872.34 L-43.01 873.58 L-42.47 874.79 L-41.85 875.72 L-41.25 876.13 L-40.94 876.21 L-40.57 876.23 L-40.02 876.10 L-39.80 875.96 L-39.11 875.28 L-38.42 874.32 L-38.27 874.11 L-37.66 872.97 L-37.23 871.75 L-36.81 870.49 L-36.42 869.23 L-35.87 867.48 L-35.35 866.23 L-34.78 864.78 L-34.61 864.24 L-34.10 862.48 L-34.22 861.87 L-34.43 861.23 L-34.46 860.52 L-35.77 861.88 L-35.36 861.03 L-37.43 862.89 L-38.88 863.28 L-40.00 863.04 L-39.42 863.03 L-38.77 862.82 L-37.55 862.30 L-35.91 861.37 L-34.94 860.74 L-37.55 862.30 L-36.70 861.87 L-34.94 860.74 L-34.07 860.03 L-33.06 859.29 L-30.56 856.85 L-29.41 855.34 L-28.78 854.39 L-29.38 854.72 L-29.19 854.13 L-30.61 854.65 L-29.81 854.06 L-31.51 853.96 L-33.45 853.25 L-35.71 851.83 L-38.21 849.76 L-40.90 847.07 L-43.75 843.65 L-46.95 839.02 L-49.65 832.91 L-50.09 826.54 L-49.16 821.64 L-48.38 816.94 L-47.76 812.57 L-46.82 808.24 L-45.50 804.25 L-44.30 800.11 L-41.92 795.11 L-40.59 790.77 L-39.49 786.56 L-38.59 782.35 L-37.87 778.13 L-37.57 773.86 L-37.51 769.92 L-38.40 766.26 L-39.38 762.90 L-40.10 759.23 L-40.25 755.65 L-39.32 752.06 L-38.49 749.40 L-39.71 748.40 L-40.59 747.46 L-41.89 748.78 L-42.41 748.02 L-42.78 747.48 L-43.02 747.05 L-43.01 746.81 L-45.45 748.93 L-48.42 751.37 L-50.69 754.85 L-52.42 759.20 L-53.48 762.34 L-54.36 765.45 L-56.19 769.48 L-57.30 772.64 L-56.44 770.61 L-57.82 773.57 L-59.17 776.73 L-60.22 780.29 L-60.51 781.21 L-61.50 784.89 L-62.43 788.56 L-63.40 792.08 L-64.33 795.35 L-65.09 798.08 L-65.72 800.49 L-66.22 802.53 L-66.58 804.39 L-66.36 803.58 L-66.62 805.24 L-66.83 806.81 L-67.01 807.53 L-67.09 808.97 L-67.11 810.35 L-67.08 811.74 L-67.08 813.08 L-67.00 814.46 L-66.98 812.80 L-66.82 812.56 L-66.66 812.26 L-66.43 811.93 L-66.41 813.94 L-66.33 814.93 L-66.38 812.93 L-66.63 814.20 L-66.83 815.29 L-66.64 814.41 L-66.91 815.46 L-67.05 816.18 L-67.10 816.77 L-67.06 817.08 L-66.95 817.26 L-66.85 817.36 L-66.75 817.39 L-66.45 817.23 L-66.06 816.82 L-65.06 815.46 L-64.30 814.21 L-65.42 815.33 L-63.71 814.29 L-64.52 816.82 L-66.48 818.51 L-67.31 818.65 L-67.94 818.63 L-67.16 816.12 L-67.30 816.01 L-67.94 818.63 L-67.77 820.17 L-67.04 820.30 L-65.92 819.00 L-66.47 819.48 L-65.34 818.63 L-63.72 817.07 L-63.61 816.94 L-64.48 817.54 L-63.33 817.03 L-63.08 817.42 L-63.73 818.14 L-64.85 819.75 L-66.06 821.48 L-66.23 820.38 L-66.74 820.85 L-66.52 821.78 L-66.49 821.82 L-66.23 822.11 L-65.81 822.03 L-64.52 820.27 L-65.84 821.98 L-64.54 820.33 L-63.51 818.56 L-62.92 817.77 L-62.38 817.03 L-61.90 816.22 L-61.38 815.38 L-61.00 814.43 L-60.41 813.38 L-59.75 812.17 L-58.96 810.48 L-58.19 809.09 L-58.40 809.51 L-57.44 807.65 L-56.48 805.82 L-55.49 803.84 L-54.48 801.62 L-53.19 799.19 L-51.67 796.48 L-49.84 793.48 L-47.78 790.29 L-45.72 787.01 L-43.76 783.29 L-42.11 779.11 L-41.14 775.95 L-40.27 772.17 L-41.70 777.11 L-40.51 773.63 L-39.32 770.64 L-38.94 768.23 L-39.13 766.36 L-39.22 764.84 L-40.07 762.36 L-41.30 759.86 L-41.63 759.17 L-40.58 762.22 L-39.67 764.97 L-37.51 769.92 L-38.03 771.85 L-38.27 771.52 L-38.46 771.20 L-38.82 775.43 L-39.77 779.48 L-40.92 783.62 L-42.26 787.69 L-42.31 786.37 L-42.10 785.04 L-43.76 790.36 L-45.11 793.03 L-47.08 797.39 L-48.44 802.98 L-49.40 807.06 L-50.31 811.21 L-51.35 815.39 L-52.51 819.39 L-53.87 823.04 L-53.05 819.95 L-53.37 820.33 L-55.46 823.86 L-57.26 827.51 L-58.63 831.25 L-59.45 835.10 L-59.75 838.12 L-59.45 841.37 L-59.39 844.65 L-59.46 844.43 L-59.00 847.28 L-58.41 849.28 L-57.54 851.96 L-56.20 854.63 L-55.55 855.63 L-54.32 857.14 L-51.98 859.35 L-51.56 859.95 L-51.08 860.41 L-49.06 861.51 L-46.50 862.49 L-46.31 862.64 L-44.09 863.12 L-44.11 863.45 L-44.23 864.17 L-46.16 863.28 L-48.21 862.22 L-50.24 861.66 L-52.06 859.52 L-53.34 858.73 L-54.41 857.25 L-54.75 858.42 L-55.70 857.05 L-56.47 855.86 L-57.13 854.93 L-57.65 854.35 L-58.04 853.99 L-57.11 852.48 L-57.28 852.51 L-57.41 852.61 L-58.84 853.90 L-60.08 855.06 L-61.25 856.20 L-61.42 856.38 L-62.57 857.52 L-63.58 858.64 L-64.48 859.79 L-65.30 861.11 L-65.91 862.19 L-66.36 863.34 L-66.42 863.86 L-66.23 864.21 L-65.89 864.44 L-66.10 864.13 L-65.93 864.39 L-65.89 864.44 L-65.34 864.59 L-64.67 864.61 L-63.90 864.55 L-62.84 864.50 L-62.09 864.52 L-61.37 864.61 L-61.51 864.56 L-60.77 864.97 L-60.45 865.73 L-60.44 866.73 L-60.43 865.49 L-60.41 865.22 L-60.49 866.46 L-60.62 867.43 L-60.75 868.38 L-60.94 869.28 L-61.04 870.18 z M20.67 781.26 L22.62 783.83 L24.57 786.32 L26.20 788.77 L27.53 791.10 L28.69 793.36 L29.61 795.55 L30.55 797.58 L29.91 795.93 L30.74 798.06 L31.95 800.18 L32.82 801.62 L33.45 802.75 L34.41 804.35 L35.70 806.46 L36.64 807.69 L37.17 807.79 L37.38 807.71 L37.70 807.17 L37.78 806.36 L37.82 805.36 L37.78 804.12 L38.08 803.50 L37.48 804.15 L37.08 804.35 L38.16 804.46 L38.17 805.39 L38.68 806.20 L38.09 806.20 L38.52 806.99 L38.40 807.54 L38.66 808.22 L39.52 809.80 L39.98 810.57 L40.22 810.93 L40.38 810.94 L40.52 810.85 L40.58 810.72 L40.60 810.26 L40.53 809.44 L40.32 808.38 L40.14 807.36 L39.95 806.49 L39.95 805.09 L40.06 804.46 L40.10 803.82 L39.90 805.22 L40.08 804.60 L40.23 805.67 L40.83 807.15 L40.28 804.77 L40.12 803.86 L40.15 803.08 L40.23 802.23 L40.28 801.28 L40.27 799.39 L40.23 798.22 L40.06 796.87 L39.87 795.35 L39.54 793.53 L39.08 791.54 L38.51 789.24 L37.83 786.69 L36.99 783.73 L36.12 780.62 L35.30 777.44 L34.41 774.25 L33.11 771.16 L32.49 770.05 L30.93 768.25 L31.32 769.26 L29.23 766.04 L29.54 766.86 L27.99 764.09 L27.94 764.93 L27.30 761.48 L27.19 762.35 L26.95 759.20 L26.38 755.25 L26.24 754.49 L24.02 750.19 L24.21 750.59 L21.26 747.74 L19.06 745.51 L19.26 746.27 L18.40 744.20 L19.10 741.50 L18.78 742.37 L18.11 743.27 L17.18 744.30 L16.64 747.21 L17.47 750.68 L18.82 755.12 L18.74 759.48 L18.14 763.27 L17.15 766.59 L16.19 770.04 L18.83 765.98 L18.95 766.09 L18.84 766.94 L17.62 768.25 L18.00 769.22 L18.27 770.50 L18.54 773.20 L18.61 774.37 L18.91 776.42 L19.03 777.71 L20.15 780.13 z M-34.75 712.80 L-34.70 712.66 L-37.05 716.48 L-40.38 719.09 L-43.97 720.37 L-47.21 720.15 L-49.63 718.84 L-51.35 716.91 L-52.53 714.37 L-53.18 711.37 L-53.31 708.28 L-53.13 705.33 L-52.45 702.77 L-51.41 700.43 L-50.19 698.18 L-48.60 696.11 L-46.51 694.35 L-43.68 693.03 L-40.47 692.74 L-37.62 693.88 L-35.45 695.95 L-33.93 699.10 L-33.24 703.22 L-33.47 707.96 z M37.11 875.10 L35.30 875.11 L33.62 875.07 L32.04 875.04 L33.47 874.89 L34.90 874.83 L36.24 874.76 L37.50 874.71 L38.47 874.67 L39.16 874.55 L38.58 874.63 L39.34 874.60 L40.36 874.40 L40.60 874.40 L41.41 874.14 L41.59 874.05 L42.01 873.42 L41.97 872.64 L41.93 872.59 L41.36 871.79 L40.36 871.02 L38.75 870.13 L36.87 869.26 L34.66 868.74 L37.04 869.36 L34.63 868.63 L33.16 868.30 L34.63 868.62 L35.61 868.91 L35.58 868.49 L37.54 869.09 L37.45 869.59 L38.52 869.74 L39.17 870.36 L39.02 870.82 L39.74 870.92 L39.17 870.36 L40.32 870.49 L41.67 870.80 L41.90 871.28 L41.17 871.55 L42.20 872.34 L42.13 872.88 L42.68 873.58 L42.30 873.91 L41.12 874.11 L40.32 874.32 L41.08 874.49 L40.08 874.74 L40.81 874.92 L39.65 875.07 L38.37 875.27 L37.69 875.17 z M-39.64 776.97 L-39.46 775.91 L-40.43 779.81 z M18.93 875.31 L19.22 875.32 L19.53 875.34 L19.92 875.34 L20.58 875.34 L21.01 875.33 L21.44 875.31 L22.02 875.24 L22.65 875.12 L22.81 875.07 L22.95 875.03 L22.06 875.16 L23.01 875.03 L21.99 875.15 L20.97 875.24 L19.62 875.30 L19.92 875.29 z M37.38 807.71 L36.64 807.69 L36.86 807.85 z M-62.15 708.54 L-62.39 710.38 L-63.08 714.16 L-63.46 717.78 L-63.31 721.29 L-63.01 723.15 L-62.20 726.33 L-61.01 729.28 L-59.38 732.23 L-58.51 733.60 L-56.40 736.35 L-55.16 737.71 L-53.53 739.25 L-52.67 740.06 L-51.15 741.41 L-53.53 739.25 L-55.47 736.73 L-56.86 734.22 L-57.68 732.08 L-57.90 730.92 L-56.56 730.67 L-56.16 730.58 L-55.08 730.74 L-55.74 730.56 L-54.50 730.94 L-53.13 731.34 L-51.12 731.95 L-48.26 732.78 L-50.26 732.19 L-47.41 733.06 L-43.35 733.64 L-38.35 733.73 L-32.87 733.58 L-28.35 733.15 L-24.47 732.63 L-20.83 732.10 L-19.49 731.93 L-14.30 731.21 L-9.49 730.66 L-4.75 730.17 L0.30 729.76 L1.55 729.65 L5.00 729.40 L8.61 729.11 L12.74 728.58 L17.78 727.59 L22.15 726.47 L25.50 725.09 L26.32 724.63 L28.51 723.25 L29.98 722.27 L31.50 721.30 L32.33 721.07 L32.71 721.08 L33.61 721.23 L33.48 722.52 L34.57 720.01 L35.20 717.87 L35.78 714.73 L35.17 711.19 L34.10 707.71 L33.79 705.75 L32.36 702.06 L30.68 697.98 L30.01 696.42 L28.14 692.35 L28.64 693.73 L26.30 689.51 L23.58 685.40 L23.17 684.13 L19.83 680.13 L19.27 679.02 L14.50 674.77 L10.56 672.64 L5.63 670.53 L0.08 668.50 L-4.83 667.43 L-9.98 666.72 L-14.77 666.54 L-19.54 666.57 L-24.22 667.54 L-28.88 668.72 L-33.34 670.44 L-37.97 672.53 L-42.65 675.65 L-47.12 678.76 L-50.98 681.74 L-54.34 685.99 L-54.53 686.89 L-57.05 691.54 L-58.99 697.34 L-60.33 700.42 L-61.28 704.60 z M9.76 707.84 L12.95 711.39 L9.93 707.97 L7.62 703.50 L6.24 698.77 L5.76 694.50 L6.23 698.97 L5.82 694.83 L6.37 691.47 L7.74 689.02 L9.97 687.34 L12.88 686.98 L15.64 687.70 L17.83 688.99 L17.96 688.43 L18.00 687.20 L19.94 689.07 L21.41 692.19 L23.24 693.50 L24.17 696.76 L25.07 699.70 L25.29 702.90 L25.52 705.92 L25.18 708.62 L24.23 710.83 L22.49 712.58 L19.73 713.45 L16.27 712.94 L12.71 711.09 z M0.30 729.76 L5.85 729.63 L11.74 729.46 L16.85 728.51 L20.78 727.05 L12.74 728.58 z M-43.99 862.82 L-41.91 863.17 L-44.09 863.12 L-46.50 862.49 L-46.63 862.24 z M42.03 873.31 L41.93 872.59 L42.01 873.42 z M34.31 871.51 L34.18 872.33 L34.51 872.89 L33.06 873.32 L31.60 874.07 L29.73 874.50 L29.34 874.46 L30.09 874.25 L30.52 874.12 L31.09 874.00 L32.24 873.80 L32.81 873.58 L33.55 873.01 L32.40 873.43 L33.18 873.17 L33.55 873.01 L33.71 872.73 L33.84 872.31 L33.98 871.87 z M-62.39 807.72 L-63.03 807.39 L-62.68 807.62 z M33.75 871.59 L33.71 872.73 L33.74 872.01 z M-48.25 751.13 L-48.42 751.37 L-45.31 748.92 z M28.65 875.27 L28.56 875.11 L26.44 875.12 L24.42 875.11 L24.28 875.02 L24.14 874.98 L25.54 874.87 L27.26 874.74 L27.73 874.80 L29.92 874.65 L30.12 874.85 L31.92 874.94 L30.47 875.14 z M40.83 807.15 L40.36 808.10 L40.14 808.69 L40.55 808.71 L40.60 807.91 z M-40.92 777.93 L-41.58 777.96 L-41.47 779.61 L-40.78 779.55 L-40.92 777.93 L-40.22 777.85 L-40.41 776.37 z M31.59 873.87 L32.49 873.52 L31.09 874.00 z M33.13 873.36 L33.71 872.73 L32.81 873.58 z M-67.10 816.77 L-67.02 817.16 L-66.95 817.26 z M17.32 768.01 L16.19 770.04 L16.09 771.90 z M21.66 875.28 L22.02 875.24 L21.01 875.33 z M-40.41 776.37 L-39.92 774.88 L-39.26 774.76 L-39.49 773.40 L-39.92 774.88 L-40.55 774.93 z M-66.06 816.82 L-66.75 817.39 L-66.47 817.22 z M-34.44 860.26 L-35.91 861.37 L-35.36 861.03 z M-41.98 781.41 L-42.49 781.42 L-42.39 783.30 L-41.98 781.41 L-41.35 781.33 L-41.47 779.61 z M-39.72 771.99 L-39.49 773.40 L-39.24 771.90 z M-62.21 804.29 L-63.23 805.93 L-63.47 806.67 z M34.75 867.31 L35.23 867.79 L34.23 866.69 z M26.24 754.49 L24.50 750.97 L24.21 750.59 z M-66.39 816.81 L-66.78 817.28 L-66.65 817.13 z M-63.40 805.08 L-63.47 806.67 L-63.39 807.84 z M12.83 876.12 L13.50 876.39 L14.51 876.68 z" fill="#111C33"/><path d="M32.33 721.07 L32.13 721.10 L29.23 723.53 L28.72 723.33 L28.23 723.22 L25.85 725.46 L25.23 725.34 L22.08 727.18 L21.44 727.11 L20.78 727.05 L16.85 728.51 L11.74 729.46 L5.85 729.63 L0.30 729.76 L-4.75 730.17 L-9.49 730.66 L-14.30 731.21 L-19.49 731.93 L-37.63 733.70 L-37.34 734.45 L-42.62 734.12 L-46.67 733.05 L-47.22 733.22 L-47.76 733.46 L-48.28 733.85 L-48.57 734.59 L-52.01 732.26 L-55.45 730.13 L-55.93 730.56 L-56.16 730.58 L-56.56 730.67 L-57.90 730.92 L-57.68 732.08 L-56.86 734.22 L-55.47 736.73 L-53.53 739.25 L-51.15 741.41 L-46.47 744.29 L-44.15 745.44 L-41.37 746.60 L-39.01 747.54 L-36.68 748.34 L-39.03 747.39 L-36.83 748.40 L-37.04 748.94 L-39.01 747.38 L-38.49 749.40 L-39.32 752.06 L-40.25 755.65 L-40.10 759.23 L-39.38 762.90 L-38.40 766.26 L-37.51 769.92 L-37.57 773.86 L-37.87 778.13 L-38.59 782.35 L-39.49 786.56 L-40.59 790.77 L-41.92 795.11 L-44.30 800.11 L-45.50 804.25 L-46.82 808.24 L-47.76 812.57 L-48.38 816.94 L-49.16 821.64 L-50.09 826.54 L-49.65 832.91 L-46.95 839.02 L-43.75 843.65 L-40.90 847.07 L-38.21 849.76 L-35.71 851.83 L-33.45 853.25 L-31.51 853.96 L-32.59 853.08 L-31.75 853.24 L-30.87 853.50 L-28.14 854.53 L-26.66 855.04 L-24.75 855.57 L-22.58 856.03 L-22.03 856.27 L-19.33 856.75 L-16.66 857.18 L-16.55 857.22 L-13.73 857.61 L-10.25 856.77 L-7.37 855.79 L-7.22 856.27 L-7.32 856.61 L-4.59 855.55 L-2.42 855.25 L-0.62 854.58 L0.14 854.62 L0.09 854.96 L0.81 854.81 L1.42 854.71 L1.94 854.72 L2.48 854.84 L2.94 855.09 L3.32 855.53 L3.60 854.73 L4.24 853.42 L4.76 852.03 L5.75 850.50 L7.20 848.36 L8.80 845.83 L10.50 843.06 L12.28 840.25 L14.26 836.99 L16.36 833.55 L18.63 829.99 L21.34 826.05 L23.30 821.81 L24.65 817.97 L24.44 814.71 L24.47 811.43 L24.44 808.19 L23.83 804.66 L22.77 801.20 L21.76 797.50 L19.98 793.60 L18.81 789.57 L17.83 785.64 L17.04 781.71 L16.40 777.75 L16.16 773.74 L16.19 770.04 L17.15 766.59 L18.14 763.27 L18.74 759.48 L18.82 755.12 L17.47 750.68 L16.64 747.21 L17.18 744.30 L16.78 743.06 L19.12 741.19 L17.63 742.36 L13.61 745.26 L11.51 746.29 L9.04 747.25 L6.25 748.18 L3.28 749.04 L0.20 749.83 L1.15 748.76 L2.13 748.19 L5.78 747.17 L9.32 746.00 L10.93 745.15 L14.64 743.65 L15.75 743.36 L17.98 742.01 L19.87 740.58 L21.38 739.10 L24.45 736.94 L28.44 732.52 L30.46 729.91 L31.58 727.09 L32.29 724.26 L33.48 722.52 L33.61 721.23 L32.71 721.08 z M-27.32 750.28 L-29.22 750.67 L-33.91 749.12 L-32.43 749.26 L-29.96 749.42 L-26.60 749.45 L-21.38 750.33 L-24.73 750.31 z M-23.79 750.65 L-20.81 750.57 L-17.17 750.52 L-13.04 750.48 L-8.95 750.31 L-4.93 749.59 L-0.92 748.76 L-1.57 749.10 L-2.28 749.56 L-5.79 750.23 L-9.50 751.63 L-12.85 751.77 L-16.20 751.75 L-19.54 751.63 z M-2.42 855.25 L-4.63 856.09 L-2.46 855.48 z" fill="#E7E7E7"/><path d="M22.66 709.79 L24.18 708.32 L25.02 706.44 L25.38 704.15 L25.21 701.68 L24.71 699.14 L24.07 696.76 L23.11 694.79 L22.97 695.08 L21.95 693.60 L20.55 691.37 L18.99 689.96 L17.14 688.89 L14.79 688.26 L12.31 688.47 L10.40 689.96 L9.20 692.06 L8.68 694.86 L8.99 698.36 L10.14 702.19 L11.92 705.82 L14.44 708.51 L17.43 710.05 L20.37 710.53 z M-42.51 696.92 L-43.36 698.78 L-45.12 699.55 L-46.03 698.46 L-45.19 696.61 L-43.43 695.84 z M16.83 691.71 L16.33 692.95 L14.55 692.56 L13.27 690.94 L13.78 689.71 L15.56 690.10 z M-52.53 702.92 L-53.07 705.07 L-53.18 707.54 L-53.04 710.13 L-52.49 712.56 L-51.42 714.72 L-49.94 716.35 L-47.85 717.43 L-45.15 717.63 L-42.11 716.51 L-39.31 714.33 L-37.29 711.14 L-36.30 707.20 L-36.08 703.21 L-36.70 699.73 L-38.03 697.13 L-39.90 695.35 L-42.34 694.33 L-45.07 694.67 L-47.47 695.81 L-49.24 697.28 L-50.60 699.01 L-51.65 700.93 z" fill="#000000"/><path d="M-43.68 693.03 L-43.68 693.77 L-47.47 695.81 L-45.07 694.67 L-42.34 694.33 L-39.90 695.35 L-38.03 697.13 L-36.70 699.73 L-36.08 703.21 L-36.30 707.20 L-37.29 711.14 L-39.31 714.33 L-42.11 716.51 L-45.15 717.63 L-47.85 717.43 L-49.94 716.35 L-51.42 714.72 L-52.49 712.56 L-52.17 714.23 L-53.18 711.37 L-52.53 714.37 L-51.35 716.91 L-49.63 718.84 L-47.21 720.15 L-43.97 720.37 L-40.38 719.09 L-37.05 716.48 L-34.70 712.66 L-33.47 707.96 L-33.24 703.22 L-33.93 699.10 L-35.45 695.95 L-37.62 693.88 L-40.47 692.74 z M19.73 713.45 L22.49 712.58 L24.23 710.83 L25.18 708.62 L25.52 705.92 L25.29 702.90 L25.16 705.86 L25.38 704.15 L25.02 706.44 L24.18 708.32 L22.66 709.79 L20.37 710.53 L17.43 710.05 L14.44 708.51 L11.92 705.82 L10.14 702.19 L8.99 698.36 L8.68 694.86 L9.20 692.06 L10.40 689.96 L12.31 688.47 L14.79 688.26 L17.14 688.89 L13.05 687.69 L12.88 686.98 L9.97 687.34 L7.74 689.02 L6.37 691.47 L5.82 694.83 L6.23 698.97 L7.58 703.53 L9.76 707.84 L12.71 711.09 L16.27 712.94 z M-45.19 696.61 L-46.03 698.46 L-45.12 699.55 L-43.36 698.78 L-42.51 696.92 L-43.43 695.84 z M16.83 691.71 L15.56 690.10 L13.78 689.71 L13.27 690.94 L14.55 692.56 L16.33 692.95 z M-46.51 694.35 L-48.60 696.11 L-50.19 698.18 L-51.41 700.43 L-51.21 700.93 L-50.01 698.74 L-48.45 696.75 z M7.69 703.65 L9.73 707.82 L9.76 707.84 z" fill="#E7E7E7"/><path d="M-18.22 717.24 L-18.23 717.46 L-18.22 717.51 L-18.19 717.71 L-18.11 717.90 L-18.02 718.07 L-17.88 718.24 L-17.99 718.10 L-17.84 718.29 L-17.80 718.33 L-17.61 718.49 L-17.84 718.29 L-17.67 718.45 L-17.61 718.49 L-17.47 718.60 L-17.72 718.40 L-17.53 718.55 L-17.47 718.60 L-17.40 718.65 L-17.18 718.79 L-16.93 718.90 L-17.26 718.74 L-17.03 718.86 L-16.78 718.97 L-16.55 719.04 L-16.87 718.92 L-16.64 719.01 L-16.55 719.04 L-16.32 719.10 L-16.09 719.16 L-15.89 719.19 L-15.68 719.23 L-15.48 719.26 L-15.78 719.21 L-15.57 719.24 L-15.48 719.26 L-15.38 719.26 L-15.12 719.27 L-14.95 719.23 L-14.88 719.18 L-14.75 719.08 L-14.95 719.23 L-14.80 719.15 L-14.75 719.08 L-14.65 718.94 L-14.58 718.75 L-14.53 718.53 L-14.50 718.28 L-14.49 718.01 L-14.49 717.73 L-14.49 717.46 L-14.52 717.22 L-14.55 716.98 L-14.56 716.76 L-14.58 716.57 L-14.60 716.36 L-14.61 716.31 L-14.64 716.12 L-14.71 715.99 L-14.88 715.93 L-14.73 716.04 L-14.83 715.92 L-14.76 716.09 L-14.79 715.94 L-14.83 715.92 L-14.98 715.89 L-15.13 715.89 L-15.30 715.90 L-15.22 715.90 L-15.39 715.90 L-15.57 715.91 L-15.76 715.95 L-15.97 715.98 L-16.19 716.02 L-16.43 716.08 L-16.63 716.12 L-16.90 716.21 L-17.18 716.32 L-17.50 716.44 L-17.76 716.55 L-17.98 716.69 L-18.03 716.75 L-18.16 716.95 L-18.21 717.18 z M-7.38 715.11 L-7.53 715.21 L-7.56 715.35 L-7.53 715.54 L-7.55 715.40 L-7.55 715.60 L-7.52 715.80 L-7.48 715.99 L-7.44 716.21 L-7.42 716.45 L-7.39 716.69 L-7.33 716.96 L-7.27 717.21 L-7.33 716.95 L-7.28 717.23 L-7.21 717.48 L-7.13 717.72 L-7.04 717.93 L-6.94 718.10 L-6.82 718.22 L-6.76 718.27 L-6.60 718.32 L-6.44 718.33 L-6.35 718.31 L-6.18 718.26 L-6.01 718.21 L-5.83 718.13 L-6.11 718.24 L-5.93 718.17 L-5.83 718.13 L-5.65 718.05 L-5.46 717.97 L-5.27 717.86 L-5.56 718.01 L-5.36 717.91 L-5.27 717.86 L-5.07 717.75 L-4.87 717.62 L-5.16 717.80 L-4.96 717.68 L-4.87 717.62 L-4.67 717.46 L-4.50 717.29 L-4.34 717.11 L-4.21 716.93 L-4.10 716.74 L-4.05 716.66 L-3.98 716.48 L-3.94 716.32 L-3.90 716.19 L-3.93 716.07 L-3.92 716.16 L-3.93 715.96 L-3.97 715.79 L-3.99 715.69 L-4.06 715.50 L-4.11 715.42 L-4.26 715.26 L-4.34 715.21 L-4.57 715.12 L-4.83 715.07 L-5.11 715.02 L-5.38 714.98 L-5.46 714.97 L-5.74 714.94 L-5.91 714.94 L-6.15 714.93 L-6.36 714.94 L-6.56 714.95 L-6.75 714.96 L-6.91 714.98 L-7.07 715.02 L-7.02 715.01 L-7.17 715.03 L-7.31 715.05 L-7.44 715.12 L-7.49 715.15 L-7.49 715.30 L-7.44 715.12 L-7.51 715.26 z M-18.19 717.74 L-18.12 717.86 L-18.19 717.71 z M-7.52 715.33 L-7.56 715.35 L-7.39 715.27 z M-17.33 718.67 L-17.55 718.51 L-17.51 718.54 z M-6.82 718.22 L-6.96 718.05 L-6.87 718.18 L-6.82 718.22 L-6.69 718.29 L-6.54 718.32 L-6.44 718.33 L-6.69 718.29 L-6.60 718.32 z M-4.65 717.43 L-4.57 717.36 L-4.86 717.59 z M-4.10 716.74 L-4.00 716.55 L-3.98 716.48 z M-14.81 716.07 L-14.64 716.12 L-14.67 716.11 z M-6.90 718.13 L-6.87 718.18 L-6.96 718.02 z M-4.34 717.11 L-4.28 717.02 L-4.16 716.84 z M-16.18 719.13 L-16.09 719.16 L-16.41 719.07 z M-4.05 716.66 L-4.01 716.54 L-3.97 716.35 z M-5.56 718.01 L-5.46 717.97 L-5.75 718.09 z" fill="#1E1E1E"/></svg>