<svg width="1000" height="800" viewBox="580.52 455.84 115.32 188.45" preserveAspectRatio="xMidYMid meet" xmlns="http://www.w3.org/2000/svg"><path d="M668.4017 551.3484 z" fill="#111C33FF"/><path d="M668.2083 551.5127 L668.9237 554.4855 L669.2585 554.2136 z" fill="#111C33FF"/><path d="M668.4017 551.3484 z" fill="#111C33FF"/><path d="M669.2585 554.2136 L669.2587 554.2136 L668.4017 551.3484 z" fill="#111C33FF"/><path d="M668.1714 555.0684 L668.0916 553.8358 L668.0001 553.6141 z" fill="#E7E7E7FF"/><path d="M667.4515 556.6260 L667.9244 553.4308 L667.8333 553.5198 z" fill="#E7E7E7FF"/><path d="M667.9244 553.4308 L667.4515 556.6260 L668.0001 553.6141 z" fill="#E7E7E7FF"/><path d="M668.1714 555.0684 L668.0001 553.6141 L667.4515 556.6260 z" fill="#E7E7E7FF"/><path d="M667.4515 556.6260 L668.2750 555.2038 L668.1714 555.0684 z" fill="#E7E7E7FF"/><path d="M668.4015 551.3478 L668.9891 552.4190 L668.4313 551.1127 z" fill="#111C33FF"/><path d="M668.4017 551.3484 z" fill="#111C33FF"/><path d="M668.4017 551.3484 z" fill="#111C33FF"/><path d="M668.4015 551.3478 z" fill="#111C33FF"/><path d="M668.4313 551.1127 L668.9891 552.4190 L669.1324 552.4146 z" fill="#111C33FF"/><path d="M668.4015 551.3478 z" fill="#111C33FF"/><path d="M669.2585 554.2136 L668.4015 551.3478 L668.2083 551.5127 z" fill="#111C33FF"/><path d="M669.6624 553.9958 L668.4015 551.3478 L669.2587 554.2136 z" fill="#111C33FF"/><path d="M669.6967 553.4623 L669.1324 552.4146 L668.9891 552.4190 z" fill="#111C33FF"/><path d="M668.9891 552.4190 L669.6624 553.9958 L669.6967 553.4623 z" fill="#111C33FF"/><path d="M668.4015 551.3478 L669.6624 553.9958 L668.9891 552.4190 z" fill="#111C33FF"/><path d="M668.0570 553.3015 L668.0001 553.6141 L668.0916 553.8358 z" fill="#E7E7E7FF"/><path d="M667.9244 553.4308 L668.0001 553.6141 L668.0570 553.3015 z" fill="#E7E7E7FF"/><path d="M668.9136 557.6047 L668.7896 553.9373 L668.4614 557.6300 z" fill="#111C33FF"/><path d="M668.2750 555.2038 L669.7523 551.6475 L668.1714 555.0684 z" fill="#E7E7E7FF"/><path d="M669.7523 551.6475 L668.2750 555.2038 L668.6100 554.6251 z" fill="#E7E7E7FF"/><path d="M668.1714 555.0684 L669.7523 551.6475 L668.0570 553.3015 z" fill="#E7E7E7FF"/><path d="M680.5670 536.5566 L681.2622 539.2924 L680.3448 534.8936 z" fill="#111C33FF"/><path d="M680.3448 534.8936 L681.2622 539.2924 L681.2094 537.6980 z" fill="#111C33FF"/><path d="M681.2094 537.6980 L681.2622 539.2924 L681.6978 540.5342 z" fill="#111C33FF"/><path d="M681.7073 539.0942 L680.8588 536.1454 L681.6978 540.5342 z" fill="#111C33FF"/><path d="M682.6250 540.7904 L681.3917 537.7991 L682.4094 542.2675 z" fill="#111C33FF"/><path d="M680.8588 536.1454 L681.7073 539.0942 L681.3917 537.7991 z" fill="#111C33FF"/><path d="M682.4503 539.4159 L680.7125 536.6437 L682.6250 540.7904 z" fill="#111C33FF"/><path d="M682.4503 539.4159 L681.8580 538.2002 L679.6873 535.6956 z" fill="#111C33FF"/><path d="M675.5208 547.0450 L675.4751 546.6744 L673.7670 547.4095 z" fill="#111C33FF"/><path d="M677.1219 545.2243 L674.4680 546.3019 L675.4751 546.6744 z" fill="#111C33FF"/><path d="M677.1219 545.2243 L675.7850 543.9335 L674.4680 546.3019 z" fill="#111C33FF"/><path d="M677.1219 545.2243 L678.4482 543.6418 L675.7850 543.9335 z" fill="#111C33FF"/><path d="M678.4482 543.6418 L676.8853 541.7231 L675.7850 543.9335 z" fill="#111C33FF"/><path d="M676.8853 541.7231 L678.4482 543.6418 L679.4846 541.9189 z" fill="#111C33FF"/><path d="M678.3588 537.3481 L679.4846 541.9189 L680.1655 540.0457 z" fill="#111C33FF"/><path d="M680.1655 540.0457 L678.5985 535.3267 L678.3588 537.3481 z" fill="#111C33FF"/><path d="M680.1655 540.0457 L680.5151 538.2448 L678.5985 535.3267 z" fill="#111C33FF"/><path d="M680.5482 542.4351 L680.1655 540.0457 L679.4846 541.9189 z" fill="#111C33FF"/><path d="M680.5482 542.4351 L680.5151 538.2448 L680.1655 540.0457 z" fill="#111C33FF"/><path d="M680.5151 538.2448 L680.5482 542.4351 L681.0619 540.8702 z" fill="#111C33FF"/><path d="M681.8580 538.2002 L683.2891 539.1036 L680.8847 537.2076 z" fill="#111C33FF"/><path d="M683.2891 539.1036 L681.8580 538.2002 L683.2365 539.1005 z" fill="#111C33FF"/><path d="M683.3413 539.0767 L682.5477 538.1479 L680.8847 537.2076 z" fill="#111C33FF"/><path d="M680.8847 537.2076 L683.2891 539.1036 L683.3413 539.0767 z" fill="#111C33FF"/><path d="M683.7024 538.8450 L681.2714 537.3456 L682.5477 538.1479 z" fill="#111C33FF"/><path d="M683.7024 538.8450 L682.5477 538.1479 L683.5610 538.7673 z" fill="#111C33FF"/><path d="M683.8607 538.4354 L681.2714 537.3456 L683.7024 538.8450 z" fill="#111C33FF"/><path d="M681.2714 537.3456 L679.6048 536.5408 L682.5477 538.1479 z" fill="#111C33FF"/><path d="M674.5436 547.7783 L675.1810 547.5520 L673.6941 547.3423 z" fill="#111C33FF"/><path d="M673.6941 547.3423 L675.1810 547.5520 L675.5208 547.0450 z" fill="#111C33FF"/><path d="M683.9207 538.4109 L682.7400 537.6774 L679.7621 536.9489 z" fill="#111C33FF"/><path d="M683.8855 538.4612 L683.9207 538.4109 L679.7621 536.9489 z" fill="#111C33FF"/><path d="M673.6138 547.9705 L673.7756 549.4188 L674.4752 548.9237 z" fill="#111C33FF"/><path d="M674.4752 548.9237 L675.7269 548.1752 L673.6138 547.9705 z" fill="#111C33FF"/><path d="M674.5436 547.7783 L673.6138 547.9705 L675.7269 548.1752 z" fill="#111C33FF"/><path d="M683.7607 537.7693 L681.8345 537.5795 L679.2343 537.3972 z" fill="#111C33FF"/><path d="M681.2622 539.2924 L680.5151 538.2448 L681.0619 540.8702 z" fill="#111C33FF"/><path d="M672.3754 549.6126 L671.7444 550.2618 L672.4066 549.6019 z" fill="#E7E7E7FF"/><path d="M672.3754 549.6126 L672.1437 549.7449 L671.7444 550.2618 z" fill="#E7E7E7FF"/><path d="M672.1376 549.7511 L671.7444 550.2618 L672.1437 549.7449 z" fill="#E7E7E7FF"/><path d="M672.1376 549.7511 L672.1437 549.7449 L672.1432 549.7448 z" fill="#E7E7E7FF"/><path d="M681.2622 539.2924 L680.5670 536.5566 L680.5151 538.2448 z" fill="#111C33FF"/><path d="M680.8813 536.6111 z" fill="#E7E7E7FF"/><path d="M672.1437 549.7449 L672.8118 549.0726 L672.7393 549.0841 z" fill="#E7E7E7FF"/><path d="M672.1437 549.7449 L672.7386 549.0843 L672.1432 549.7448 z" fill="#E7E7E7FF"/><path d="M672.1437 549.7449 L672.7393 549.0841 L672.7386 549.0843 z" fill="#E7E7E7FF"/><path d="M672.1437 549.7449 L672.3754 549.6126 L672.8118 549.0726 z" fill="#E7E7E7FF"/><path d="M673.0335 548.9355 L672.8118 549.0726 L672.3754 549.6126 z" fill="#E7E7E7FF"/><path d="M672.4066 549.6019 L673.1118 548.8993 L673.0658 548.9206 z" fill="#E7E7E7FF"/><path d="M672.4066 549.6019 L673.0335 548.9355 L672.3754 549.6126 z" fill="#E7E7E7FF"/><path d="M673.0658 548.9206 L673.0335 548.9355 L672.4066 549.6019 z" fill="#E7E7E7FF"/><path d="M683.2891 539.1036 L683.5198 539.2855 L683.2893 539.1035 z" fill="#111C33FF"/><path d="M676.8738 544.9847 z" fill="#E7E7E7FF"/><path d="M683.5198 539.2855 z" fill="#111C33FF"/><path d="M677.4502 543.8567 L674.6024 547.2190 L676.8738 544.9847 z" fill="#E7E7E7FF"/><path d="M677.4502 543.8567 z" fill="#E7E7E7FF"/><path d="M674.6024 547.2190 z" fill="#E7E7E7FF"/><path d="M676.4333 545.5894 L677.8524 543.6779 L677.7878 543.7561 z" fill="#E7E7E7FF"/><path d="M676.4333 545.5894 L677.7878 543.7561 L676.4334 545.5893 z" fill="#E7E7E7FF"/><path d="M676.4334 545.5893 L677.7878 543.7561 L676.8739 544.9846 z" fill="#E7E7E7FF"/><path d="M677.4502 543.8567 L672.9974 548.7977 L673.4667 548.3362 z" fill="#E7E7E7FF"/><path d="M674.6024 547.2190 z" fill="#E7E7E7FF"/><path d="M673.4667 548.3362 z" fill="#E7E7E7FF"/><path d="M677.4502 543.8567 L673.4667 548.3362 L674.6024 547.2190 z" fill="#E7E7E7FF"/><path d="M672.9928 548.8022 L672.9974 548.7977 L677.4502 543.8567 z" fill="#E7E7E7FF"/><path d="M673.1118 548.8993 L676.4332 545.5895 L676.8738 544.9849 z" fill="#E7E7E7FF"/><path d="M676.4334 545.5893 L676.8739 544.9846 L676.4332 545.5895 z" fill="#E7E7E7FF"/><path d="M676.8738 544.9849 L676.4332 545.5895 L676.8739 544.9846 z" fill="#E7E7E7FF"/><path d="M676.4334 545.5893 L676.4332 545.5895 L676.4333 545.5894 z" fill="#E7E7E7FF"/><path d="M673.4667 548.3362 L676.8738 544.9849 L676.8738 544.9847 z" fill="#E7E7E7FF"/><path d="M676.8738 544.9847 z" fill="#E7E7E7FF"/><path d="M676.8738 544.9849 z" fill="#E7E7E7FF"/><path d="M673.0335 548.9355 L673.0658 548.9206 L676.8738 544.9849 z" fill="#E7E7E7FF"/><path d="M676.8738 544.9849 L673.4667 548.3362 L672.8118 549.0726 z" fill="#E7E7E7FF"/><path d="M673.4667 548.3362 L672.9974 548.7977 L672.8118 549.0726 z" fill="#E7E7E7FF"/><path d="M672.9974 548.7977 L672.7393 549.0841 L672.8118 549.0726 z" fill="#E7E7E7FF"/><path d="M672.9928 548.8022 L672.7393 549.0841 L672.9974 548.7977 z" fill="#E7E7E7FF"/><path d="M672.7386 549.0843 L672.7393 549.0841 L672.9928 548.8022 z" fill="#E7E7E7FF"/><path d="M673.0335 548.9355 L676.8738 544.9849 L672.8118 549.0726 z" fill="#E7E7E7FF"/><path d="M673.0658 548.9206 L673.1118 548.8993 L676.8738 544.9849 z" fill="#E7E7E7FF"/><path d="M677.4502 543.8567 L676.8738 544.9849 L677.4873 543.8106 z" fill="#E7E7E7FF"/><path d="M677.7878 543.7561 L677.4873 543.8106 L676.8738 544.9849 z" fill="#E7E7E7FF"/><path d="M683.2891 539.1036 L683.2365 539.1005 L683.5198 539.2855 z" fill="#111C33FF"/><path d="M679.5488 538.1952 z" fill="#E7E7E7FF"/><path d="M683.2893 539.1035 L683.5198 539.2855 L683.3413 539.0767 z" fill="#111C33FF"/><path d="M680.7360 539.5651 L679.2841 541.9166 L680.4383 540.1062 z" fill="#E7E7E7FF"/><path d="M680.0935 540.6567 L677.7878 543.7561 L677.8524 543.6779 z" fill="#E7E7E7FF"/><path d="M677.8524 543.6779 L680.0962 540.6554 L680.0935 540.6567 z" fill="#E7E7E7FF"/><path d="M681.6761 537.9392 L684.2230 533.4119 L684.9402 532.0903 z" fill="#E7E7E7FF"/><path d="M680.0935 540.6567 L680.0962 540.6554 L680.8809 539.5984 z" fill="#E7E7E7FF"/><path d="M680.7360 539.5651 L680.4383 540.1062 L681.5133 538.3060 z" fill="#E7E7E7FF"/><path d="M680.4383 540.1062 L681.5314 538.3124 L681.5133 538.3060 z" fill="#E7E7E7FF"/><path d="M680.4383 540.1062 L681.5727 538.3269 L681.5314 538.3124 z" fill="#E7E7E7FF"/><path d="M683.5610 538.7673 L685.2949 539.8271 L683.7024 538.8450 z" fill="#111C33FF"/><path d="M684.1691 538.5652 L683.9207 538.4109 L683.8855 538.4612 z" fill="#111C33FF"/><path d="M683.8607 538.4354 L683.7024 538.8450 L684.1691 538.5652 z" fill="#111C33FF"/><path d="M684.1691 538.5652 L683.7024 538.8450 L684.7318 539.1959 z" fill="#111C33FF"/><path d="M683.7024 538.8450 L684.5765 539.3841 L684.7318 539.1959 z" fill="#111C33FF"/><path d="M681.5314 538.3124 L682.6342 536.4905 L681.5133 538.3060 z" fill="#E7E7E7FF"/><path d="M681.5314 538.3124 L682.3630 536.9476 L682.6342 536.4905 z" fill="#E7E7E7FF"/><path d="M681.5727 538.3269 L683.1947 535.5828 L681.5314 538.3124 z" fill="#E7E7E7FF"/><path d="M684.5765 539.3841 L685.2949 539.8271 L684.7318 539.1959 z" fill="#111C33FF"/><path d="M683.1947 535.5828 L681.5727 538.3269 L682.5640 536.7720 z" fill="#E7E7E7FF"/><path d="M682.6342 536.4905 L682.3630 536.9476 L683.1947 535.5828 z" fill="#E7E7E7FF"/><path d="M680.8809 539.5984 L677.4873 543.8106 L677.7878 543.7561 z" fill="#E7E7E7FF"/><path d="M680.3687 536.2695 L680.3687 536.2697 L680.3691 536.2689 z" fill="#E7E7E7FF"/><path d="M680.3691 536.2689 L680.3687 536.2697 L679.5488 538.1952 z" fill="#E7E7E7FF"/><path d="M680.8813 536.6111 L681.4068 537.2247 L684.5690 531.5216 z" fill="#E7E7E7FF"/><path d="M684.7397 531.4747 L684.8016 531.3678 L684.7951 531.3642 z" fill="#111C33FF"/><path d="M679.5488 538.1952 L680.8813 536.6111 L680.3691 536.2689 z" fill="#E7E7E7FF"/><path d="M680.3687 536.2697 L680.3687 536.2695 L679.5530 537.7394 z" fill="#E7E7E7FF"/><path d="M678.9919 538.1736 L679.5530 537.7394 L680.3687 536.2695 z" fill="#E7E7E7FF"/><path d="M680.3687 536.2697 L679.5530 537.7394 L679.5488 538.1952 z" fill="#E7E7E7FF"/><path d="M684.7951 531.3642 L684.7862 531.3593 L684.6679 531.5989 z" fill="#111C33FF"/><path d="M684.6679 531.5989 L684.7397 531.4747 L684.7951 531.3642 z" fill="#111C33FF"/><path d="M680.8813 536.6111 L677.7554 542.8949 L681.4068 537.2247 z" fill="#E7E7E7FF"/><path d="M677.3218 541.7598 L676.7042 541.3376 L673.2418 546.7552 z" fill="#E7E7E7FF"/><path d="M678.9919 538.1736 L677.3218 541.7598 L679.5530 537.7394 z" fill="#E7E7E7FF"/><path d="M677.3218 541.7598 L678.9919 538.1736 L676.7042 541.3376 z" fill="#E7E7E7FF"/><path d="M679.5530 537.7394 L677.7619 542.3911 L679.5488 538.1952 z" fill="#E7E7E7FF"/><path d="M677.3218 541.7598 L677.7619 542.3911 L679.5530 537.7394 z" fill="#E7E7E7FF"/><path d="M680.8813 536.6111 L679.5488 538.1952 L677.7619 542.3911 z" fill="#E7E7E7FF"/><path d="M680.8813 536.6111 L677.7619 542.3911 L677.7554 542.8949 z" fill="#E7E7E7FF"/><path d="M684.6679 531.5989 L684.7862 531.3593 L684.0909 532.5963 z" fill="#111C33FF"/><path d="M684.6674 531.2932 L684.0909 532.5963 L684.7862 531.3593 z" fill="#111C33FF"/><path d="M654.9431 614.1128 L655.2764 613.9945 L654.9670 614.0857 z" fill="#E7E7E7FF"/><path d="M654.3546 613.2072 L655.1499 615.1173 L655.1535 615.1204 z" fill="#E7E7E7FF"/><path d="M655.1499 615.1173 L654.3546 613.2072 L654.5439 613.8777 z" fill="#E7E7E7FF"/><path d="M654.9431 614.1128 L654.9548 614.3005 L655.2764 613.9945 z" fill="#E7E7E7FF"/><path d="M655.2764 613.9945 L655.6005 613.5590 L654.9670 614.0857 z" fill="#E7E7E7FF"/><path d="M654.9631 613.9409 L654.9670 614.0857 L655.6005 613.5590 z" fill="#E7E7E7FF"/><path d="M655.3290 615.9105 L654.4453 613.8347 L654.8658 615.0014 z" fill="#111C33FF"/><path d="M654.9631 613.9409 L654.4830 614.2285 L654.9670 614.0857 z" fill="#E7E7E7FF"/><path d="M654.9431 614.1128 L654.9001 614.3525 L654.9548 614.3005 z" fill="#E7E7E7FF"/><path d="M654.9431 614.1128 L654.2397 614.3625 L654.9001 614.3525 z" fill="#E7E7E7FF"/><path d="M654.8132 614.8315 L655.1499 615.1173 L654.5439 613.8777 z" fill="#E7E7E7FF"/><path d="M654.9431 614.1128 L654.9670 614.0857 L654.2397 614.3625 z" fill="#E7E7E7FF"/><path d="M654.4830 614.2285 L654.2397 614.3625 L654.9670 614.0857 z" fill="#E7E7E7FF"/><path d="M610.1058 563.0606 L611.2314 559.7755 L611.1573 556.7547 z" fill="#111C33FF"/><path d="M610.1058 563.0606 L611.1573 556.7547 L609.9856 559.9678 z" fill="#111C33FF"/><path d="M611.2314 559.7755 L612.2386 556.2252 L611.1573 556.7547 z" fill="#111C33FF"/><path d="M611.8334 562.9093 L612.5762 559.5780 L612.2386 556.2252 z" fill="#111C33FF"/><path d="M612.2386 556.2252 L611.2314 559.7755 L611.8334 562.9093 z" fill="#111C33FF"/><path d="M612.2386 556.2252 L612.5762 559.5780 L612.5763 556.1134 z" fill="#111C33FF"/><path d="M612.5763 556.1134 L612.5762 559.5780 L612.8541 556.5319 z" fill="#111C33FF"/><path d="M610.2523 556.9523 L609.9856 559.9678 L611.1573 556.7547 z" fill="#111C33FF"/><path d="M598.1566 547.0975 z" fill="#E7E7E7FF"/><path d="M612.9022 556.0056 L612.5763 556.1134 L612.8541 556.5319 z" fill="#111C33FF"/><path d="M603.4144 549.7717 z" fill="#E7E7E7FF"/><path d="M598.8027 542.9009 L597.6764 542.5829 L596.8497 546.9505 z" fill="#111C33FF"/><path d="M595.8315 546.5953 L596.8497 546.9505 L596.9069 542.6097 z" fill="#111C33FF"/><path d="M596.8497 546.9505 L597.6764 542.5829 L596.9069 542.6097 z" fill="#111C33FF"/><path d="M595.3710 546.5345 L595.8315 546.5953 L596.6926 542.8383 z" fill="#111C33FF"/><path d="M595.8315 546.5953 L596.9069 542.6097 L596.6926 542.8383 z" fill="#111C33FF"/><path d="M601.3809 548.9182 L599.3494 552.8134 L601.2848 553.8133 z" fill="#111C33FF"/><path d="M599.8242 548.2061 L599.3494 552.8134 L601.3809 548.9182 z" fill="#111C33FF"/><path d="M599.3494 552.8134 L599.8242 548.2061 L598.2881 547.5958 z" fill="#111C33FF"/><path d="M609.2322 557.0309 L609.2983 557.0612 L609.8158 553.1924 z" fill="#111C33FF"/><path d="M609.8158 553.1924 L609.2983 557.0612 L610.2545 553.6010 z" fill="#111C33FF"/><path d="M608.7242 556.8998 L609.2322 557.0309 L608.9565 552.6842 z" fill="#111C33FF"/><path d="M609.8158 553.1924 L608.9565 552.6842 L609.2322 557.0309 z" fill="#111C33FF"/><path d="M605.0518 555.6263 L606.6030 556.2268 L606.3788 551.4516 z" fill="#111C33FF"/><path d="M605.0518 555.6263 L606.3788 551.4516 L604.7443 550.6382 z" fill="#111C33FF"/><path d="M603.0350 549.7464 L603.2360 554.7962 L605.0518 555.6263 z" fill="#111C33FF"/><path d="M604.7443 550.6382 L603.0350 549.7464 L605.0518 555.6263 z" fill="#111C33FF"/><path d="M601.2848 553.8133 L603.0350 549.7464 L601.3809 548.9182 z" fill="#111C33FF"/><path d="M603.2360 554.7962 L603.0350 549.7464 L601.2848 553.8133 z" fill="#111C33FF"/><path d="M608.7242 556.8998 L608.9565 552.6842 L607.8110 552.1340 z" fill="#111C33FF"/><path d="M608.7242 556.8998 L607.8110 552.1340 L607.8483 556.6479 z" fill="#111C33FF"/><path d="M606.3788 551.4516 L606.6030 556.2268 L607.8110 552.1340 z" fill="#111C33FF"/><path d="M607.8110 552.1340 L606.6030 556.2268 L607.8483 556.6479 z" fill="#111C33FF"/><path d="M598.8027 542.9009 L596.8497 546.9505 L598.2881 547.5958 z" fill="#111C33FF"/><path d="M607.6647 553.9645 L607.8060 553.7451 L603.4144 549.7717 z" fill="#E7E7E7FF"/><path d="M603.4144 549.7717 L602.8341 550.2353 L607.6647 553.9645 z" fill="#E7E7E7FF"/><path d="M603.4144 549.7717 z" fill="#E7E7E7FF"/><path d="M610.5590 557.7649 L616.9243 560.9796 L616.5317 560.7465 z" fill="#E7E7E7FF"/><path d="M603.4144 549.7717 L599.0262 545.9459 L602.8314 550.2332 z" fill="#E7E7E7FF"/><path d="M608.6145 552.8723 L614.7906 555.4833 L609.1898 552.4471 z" fill="#E7E7E7FF"/><path d="M608.6145 552.8723 L614.2878 555.9468 L614.7906 555.4833 z" fill="#E7E7E7FF"/><path d="M608.6145 552.8723 L608.0542 553.3597 L613.8448 556.5443 z" fill="#E7E7E7FF"/><path d="M613.8448 556.5443 L614.2878 555.9468 L608.6145 552.8723 z" fill="#E7E7E7FF"/><path d="M608.0542 553.3597 L608.6145 552.8723 L603.4144 549.7717 z" fill="#E7E7E7FF"/><path d="M602.8314 550.2332 L602.8341 550.2353 L603.4144 549.7717 z" fill="#E7E7E7FF"/><path d="M607.8060 553.7451 L608.0542 553.3597 L603.4144 549.7717 z" fill="#E7E7E7FF"/><path d="M602.4921 550.9570 L602.8314 550.2332 L599.0262 545.9459 z" fill="#E7E7E7FF"/><path d="M599.0262 545.9459 L598.4623 546.4312 L598.4624 546.4313 z" fill="#E7E7E7FF"/><path d="M598.4624 546.4313 L598.4625 546.4315 L599.0262 545.9459 z" fill="#E7E7E7FF"/><path d="M602.4921 550.9570 L599.0262 545.9459 L598.4625 546.4315 z" fill="#E7E7E7FF"/><path d="M602.4921 550.9570 L598.4625 546.4315 L598.1566 547.0975 z" fill="#E7E7E7FF"/><path d="M598.4623 546.4312 L598.4623 546.4312 L598.4624 546.4313 z" fill="#E7E7E7FF"/><path d="M598.1566 547.0975 L598.4622 546.4313 L595.4677 541.2704 z" fill="#E7E7E7FF"/><path d="M598.4622 546.4313 L598.4625 546.4315 L598.4623 546.4312 z" fill="#E7E7E7FF"/><path d="M598.1566 547.0975 L598.4625 546.4315 L598.4622 546.4313 z" fill="#E7E7E7FF"/><path d="M598.1566 547.0975 L595.4677 541.2704 L594.9932 541.6652 z" fill="#E7E7E7FF"/><path d="M598.1566 547.0975 L594.9932 541.6652 L598.3193 547.5818 z" fill="#E7E7E7FF"/><path d="M598.3193 547.5818 L594.9932 541.6652 L594.5811 542.3237 z" fill="#E7E7E7FF"/><path d="M611.8858 608.6482 L613.0658 608.8210 L608.8045 607.1624 z" fill="#111C33FF"/><path d="M608.8046 607.1624 L608.8045 607.1624 L613.0658 608.8210 z" fill="#111C33FF"/><path d="M610.3033 607.4451 L608.8046 607.1624 L613.0658 608.8210 z" fill="#111C33FF"/><path d="M608.8046 607.1624 L610.3033 607.4451 L609.5539 607.3037 z" fill="#111C33FF"/><path d="M614.7014 609.2820 L610.9650 609.4144 L613.8519 609.8464 z" fill="#111C33FF"/><path d="M610.9607 609.3881 L610.9650 609.4144 L614.7014 609.2820 z" fill="#111C33FF"/><path d="M611.8858 608.6482 L610.9607 609.3881 L614.7014 609.2820 z" fill="#111C33FF"/><path d="M610.9298 609.3131 L610.9607 609.3881 L611.8858 608.6482 z" fill="#111C33FF"/><path d="M610.9298 609.3131 L611.8858 608.6482 L608.8045 607.1624 z" fill="#111C33FF"/><path d="M607.4111 605.2216 L608.8044 607.1623 L610.3033 607.4451 z" fill="#111C33FF"/><path d="M610.3926 608.7970 L610.8522 609.3671 L610.9298 609.3131 z" fill="#111C33FF"/><path d="M610.2719 608.6473 L610.3926 608.7970 L610.9298 609.3131 z" fill="#111C33FF"/><path d="M610.9298 609.3131 L610.8698 609.3906 L610.9607 609.3881 z" fill="#111C33FF"/><path d="M610.8698 609.3906 L610.9298 609.3131 L610.8522 609.3671 z" fill="#111C33FF"/><path d="M610.9650 609.4144 L610.9607 609.3881 L610.8774 609.4014 z" fill="#111C33FF"/><path d="M610.9607 609.3881 L610.8698 609.3906 L610.8774 609.4014 z" fill="#111C33FF"/><path d="M609.1531 607.2280 L609.1531 607.2281 L609.5539 607.3037 z" fill="#111C33FF"/><path d="M610.0575 607.7914 L609.9501 606.8151 L607.8419 605.0555 z" fill="#E7E7E7FF"/><path d="M610.0582 607.7922 L609.9501 606.8151 L610.0575 607.7914 z" fill="#E7E7E7FF"/><path d="M609.9501 606.8151 L610.0582 607.7922 L611.8208 609.3832 z" fill="#E7E7E7FF"/><path d="M610.0543 607.7877 L610.0575 607.7914 L607.8419 605.0555 z" fill="#E7E7E7FF"/><path d="M610.0575 607.7916 L606.0499 603.2654 L608.6606 606.3524 z" fill="#E7E7E7FF"/><path d="M609.1531 607.2280 L608.9424 607.1884 L608.9424 607.1884 z" fill="#111C33FF"/><path d="M610.8774 609.4014 L610.8698 609.3906 L610.8161 609.3922 z" fill="#111C33FF"/><path d="M610.8522 609.3671 L610.8161 609.3922 L610.8698 609.3906 z" fill="#111C33FF"/><path d="M610.8161 609.3922 L609.5426 607.9805 L609.5426 607.9805 z" fill="#111C33FF"/><path d="M609.5426 607.9805 L610.3926 608.7970 L610.2719 608.6473 z" fill="#111C33FF"/><path d="M609.2864 607.6500 L609.5426 607.9805 L610.2719 608.6473 z" fill="#111C33FF"/><path d="M610.3926 608.7970 L610.8161 609.3922 L610.8522 609.3671 z" fill="#111C33FF"/><path d="M610.3926 608.7970 L609.5426 607.9805 L610.8161 609.3922 z" fill="#111C33FF"/><path d="M608.9424 607.1884 L609.1531 607.2281 L609.1531 607.2280 z" fill="#111C33FF"/><path d="M610.0543 607.7877 L610.0575 607.7916 L610.0575 607.7914 z" fill="#E7E7E7FF"/><path d="M610.0575 607.7914 L610.0575 607.7916 L610.0582 607.7922 z" fill="#E7E7E7FF"/><path d="M610.0575 607.7916 L607.8419 605.0555 L606.0499 603.2654 z" fill="#E7E7E7FF"/><path d="M608.8045 607.1624 L608.8046 607.1624 L608.8044 607.1623 z" fill="#111C33FF"/><path d="M608.9424 607.1884 L608.8046 607.1624 L608.9424 607.1884 z" fill="#111C33FF"/><path d="M608.8046 607.1624 L608.9424 607.1884 L608.8044 607.1623 z" fill="#111C33FF"/><path d="M609.5426 607.9805 L608.8044 607.1623 L609.5426 607.9805 z" fill="#111C33FF"/><path d="M608.8044 607.1623 L609.5426 607.9805 L608.8045 607.1624 z" fill="#111C33FF"/><path d="M609.5426 607.9805 L609.2864 607.6500 L608.8045 607.1624 z" fill="#111C33FF"/><path d="M594.1547 524.0851 L595.6954 527.6758 L594.6467 523.7769 z" fill="#111C33FF"/><path d="M594.1180 519.8093 L594.0479 516.4009 L593.5786 516.3093 z" fill="#111C33FF"/><path d="M594.1180 519.8093 L593.5786 516.3093 L593.6140 519.8970 z" fill="#111C33FF"/><path d="M594.6467 523.7769 L594.1180 519.8093 L593.6140 519.8970 z" fill="#111C33FF"/><path d="M594.6467 523.7769 L593.6140 519.8970 L594.1547 524.0851 z" fill="#111C33FF"/><path d="M593.9264 517.6424 L594.0187 520.4690 L594.3985 521.0628 z" fill="#000000FF"/><path d="M594.0187 520.4690 z" fill="#000000FF"/><path d="M594.0187 520.4690 L594.7786 523.8190 L594.3986 521.0634 z" fill="#000000FF"/><path d="M594.0187 520.4690 L594.3986 521.0634 L594.3985 521.0628 z" fill="#000000FF"/><path d="M594.0187 520.4690 L594.4712 523.7502 L594.7786 523.8190 z" fill="#000000FF"/><path d="M583.6858 603.0165 L584.1492 602.7614 L583.1669 602.9120 z M610.5085 611.5789 L611.7555 611.7357 L611.9063 613.0284 L612.7275 612.9104 L613.3162 613.4167 L613.8049 612.1650 L614.5142 612.3806 L615.0134 612.5801 L615.3196 612.7234 L615.4479 612.8141 L615.9392 611.4562 L615.8796 611.3845 L615.5661 611.2386 L614.9979 611.0542 L614.2001 610.8441 L612.9130 611.8894 L611.8017 610.4360 L610.3613 610.2159 L608.8109 609.9760 L607.4394 610.2183 L605.6790 609.5387 L604.6480 608.2668 L603.7043 608.9303 L602.1984 607.4224 L600.2715 605.9355 L601.2739 605.2695 L599.7449 603.8727 L598.5083 602.2499 L597.3316 600.2190 L596.6473 601.1694 L595.4650 599.6674 L596.2747 598.5829 L595.4877 597.3784 L594.8362 596.2307 L594.3036 595.2636 L594.9698 593.3713 L594.6491 592.7831 L594.4060 592.3860 L594.1999 592.1156 L594.0463 591.9916 L593.9525 591.9805 L592.7745 593.1789 L592.8652 593.2025 L593.0040 593.3127 L593.2079 593.5588 L593.4971 593.9131 L593.8526 594.4799 L593.2374 596.3512 L593.7797 597.3248 L594.4771 598.5143 L594.7074 600.6793 L595.8563 601.9564 L597.6639 603.0021 L598.7454 604.5410 L597.5578 605.0085 L598.9756 606.5170 L601.3870 608.0137 L602.8467 609.5702 L604.6426 610.1606 L605.2757 611.2279 L606.3167 610.6631 L607.9081 611.0548 L609.4037 611.1181 z M634.2289 455.8357 L639.0828 456.3037 L644.7396 456.7575 L639.5131 456.1230 z M681.8580 538.2002 L682.4503 539.4159 L684.1276 540.6672 L683.5198 539.2855 z M603.9217 568.1843 L602.9897 570.6938 L602.8718 569.7286 L602.0439 572.2095 L601.2505 574.6198 L602.2642 572.4318 L604.7985 568.8629 L603.4761 570.3320 L599.2776 575.5303 L597.6765 579.7230 L596.0663 581.6163 L594.6577 583.5171 L593.7192 585.4458 L593.2572 587.4263 L593.3949 591.3902 L593.6449 589.6266 L594.3665 587.8568 L595.4914 586.0219 L596.8597 584.1802 L599.2028 578.1013 L601.0264 573.9167 L600.3768 576.4571 L599.3471 580.6275 L600.3696 578.4166 L601.3043 575.8297 L602.1146 573.2373 L602.9296 574.2429 L603.8232 571.6241 L605.8434 568.4677 L607.3618 565.7216 L607.4608 562.5991 L608.6591 562.9435 L609.9856 559.9678 L610.2523 556.9523 L608.8720 559.9268 L609.3441 556.9500 L607.9237 559.5238 L606.4534 562.0287 L605.9492 565.1936 z M581.9736 601.4246 L581.9059 602.9627 L580.5222 605.0209 L580.6850 606.4216 L580.7822 606.7754 L581.2398 606.7001 L581.3824 606.7334 L582.4885 605.7040 L583.9377 603.4355 L584.7076 601.5444 L582.9174 602.9553 z M598.2881 547.5958 L596.8497 546.9505 L595.8208 551.1454 L597.4752 551.8827 L599.3494 552.8134 z M585.6475 516.5907 L585.3666 512.2299 L585.4670 507.9074 L585.1621 510.7200 L585.9972 503.6190 L585.6310 506.3222 L585.1621 510.7200 L585.0947 515.1049 L585.3766 519.5366 z M585.3704 597.9348 L585.9084 597.0833 L585.3580 596.9214 L584.9456 596.5634 L584.1191 597.4833 L584.7785 597.7554 L584.6738 599.0143 L585.2117 599.1153 L585.6284 599.1737 L585.9395 599.2026 L586.6889 598.0319 L586.2787 599.0964 L586.6718 598.9794 L587.3176 597.9201 L588.0085 596.8185 L588.3635 596.7315 L589.1083 595.5252 L589.9481 594.2385 L589.5109 594.5654 L588.3835 595.9291 L588.3649 595.7990 L587.9625 596.1928 L587.4111 596.5393 L586.6393 596.9164 L585.8486 597.2360 L586.4779 597.0322 L586.6393 596.9164 L586.9923 596.9938 L587.9625 596.1928 L587.7125 596.8763 L587.4155 596.9558 L586.9923 596.9938 L586.3491 597.9985 L585.8973 597.9742 z M670.5859 556.9840 L669.2585 554.2136 L668.9237 554.4855 L668.7717 554.6108 L668.9136 557.6047 L668.4614 557.6300 L668.5723 560.9435 L669.1241 564.0317 L669.6509 560.8101 L669.5148 557.5908 L670.4968 560.5524 L671.6699 563.3276 L671.2704 560.1422 z M660.4623 632.0909 L660.2577 631.5948 L660.1338 631.3016 z M593.8318 513.3062 L593.5786 516.3093 L594.0479 516.4009 L594.2422 513.5675 z M656.3125 619.7870 L656.5887 620.8651 L655.8420 617.8029 z M615.7700 610.2706 L613.0040 610.7144 L613.8519 609.8464 L610.8161 609.3922 L609.8408 610.4301 L612.3774 611.5956 L615.2217 611.0741 z M655.5400 617.4493 L655.7074 617.0756 L655.8295 616.1122 L655.1535 615.1204 L654.8132 614.8315 L655.3290 615.9105 L654.8658 615.0014 L655.2141 616.2103 z M694.9774 561.1922 L695.0823 562.3036 L695.1167 562.5195 z M694.6027 565.2687 L694.4888 566.0807 L695.0705 566.2653 L695.2654 566.1729 L695.8466 565.1149 L695.1881 564.5812 L695.3218 563.5961 L695.1233 563.3505 L695.1107 563.1902 L694.9683 564.0420 L694.8303 565.0480 L694.9680 564.1595 L694.9897 564.2588 z M682.1234 583.5680 L682.7432 585.2082 L684.4144 589.6270 L685.9128 594.2568 L683.9476 588.1441 z M589.2452 491.1666 L588.3787 494.0202 L587.6021 496.7370 L587.4710 497.8505 L588.3711 494.6801 L590.4182 488.1848 L590.4363 487.6855 z M585.0334 602.3162 L585.2987 602.3323 L585.8867 601.6264 L586.4384 600.9153 L586.2347 601.0190 L586.0147 601.1937 L585.7437 601.4331 L585.3766 601.7622 L585.6760 601.6757 L584.6106 602.3248 L583.9001 603.7742 L582.6856 605.3059 L582.9273 605.5755 L584.2473 603.9887 z M633.2078 558.7845 L637.1095 558.9667 L642.1545 558.2778 L633.2078 558.7845 L629.3270 558.5594 L626.8130 558.4024 L632.1172 558.8663 z M675.4751 546.6744 L675.5208 547.0450 L677.1219 545.2243 z M618.7427 459.8762 L623.7192 458.2440 L628.7413 456.9920 L629.0371 456.8205 L623.9531 458.1398 z M677.8439 571.1671 L677.0051 568.7504 L677.5833 571.9303 L678.2679 574.2258 L678.9896 576.6544 L678.7035 573.8358 z M641.0300 558.3258 L637.1022 558.6734 L642.1545 558.2778 z M590.5050 594.0690 L589.7062 595.3737 L589.8865 595.1516 L590.6819 593.8262 L591.4680 592.3735 z M678.5660 545.2435 L679.7040 543.9272 L680.5482 542.4351 L679.4846 541.9189 L678.4482 543.6418 z M595.7151 600.0848 L594.0577 595.3737 L595.3121 599.2291 L595.2609 597.9363 L594.1548 593.8259 L593.3949 591.3902 L593.6303 592.8071 L594.0577 595.3737 L594.3956 596.5134 z M684.4426 558.7810 L683.3983 557.5255 L682.0673 556.3657 L680.8120 555.7134 L682.2952 556.9365 L681.3772 556.0538 L683.4417 558.2305 z M666.2198 549.0685 L661.5143 551.3501 L647.5933 557.1826 L653.6870 555.5344 L660.3207 552.7979 z M687.6514 608.0635 L687.5928 603.6097 L687.4173 605.1840 L687.5118 609.5790 L687.2773 612.1514 z M693.0538 551.8021 L694.1229 554.5203 L694.1968 554.6133 L693.7051 553.3373 z M582.2958 589.1516 L582.0073 591.0640 L581.7494 592.8159 L581.8364 592.8810 L582.0970 591.0870 L582.4240 589.1251 z M681.1502 481.8461 L682.6797 484.2429 L684.1397 486.5245 L682.1298 482.5711 L680.7976 480.5146 L679.4665 478.4848 z M693.0127 552.7219 L692.8319 551.3122 L691.9545 549.3721 L691.0388 547.3708 L691.3038 549.0474 L692.1770 550.9037 z M668.6100 554.6251 L671.7826 549.5746 L669.7523 551.6475 L668.6100 554.6251 L668.4614 557.6300 L668.7896 553.9373 z M695.2623 558.8397 L695.0189 557.5861 L694.8475 556.7383 L694.6195 555.8102 L694.9128 557.0477 L694.8475 556.7383 z M669.6624 553.9958 L671.0150 556.4535 L671.0941 555.8435 L669.6967 553.4623 z M683.9139 623.9306 L684.8288 621.7219 L685.7035 619.4003 L684.2118 622.9072 L683.3103 624.8796 L682.5818 626.5591 L683.2803 625.9083 L684.1451 623.2625 z M691.5540 566.5027 L692.0725 566.9785 L692.5052 567.3835 L692.5732 567.3060 L692.0483 566.8563 L692.0002 566.5190 L691.4443 566.3605 z M691.8694 566.7046 L692.6290 566.5198 L693.3255 566.3057 L692.4689 566.4583 z M675.7269 548.1752 L676.6279 547.3672 L675.1810 547.5520 L674.5436 547.7783 z M682.2181 639.7015 L680.8457 640.4868 L682.5952 639.6902 z M682.9102 639.7528 L682.5952 639.6902 L681.1318 640.0969 z M601.0969 470.8283 L604.7972 467.9330 L609.4059 464.5066 L605.1260 467.4751 z M690.0486 637.2901 L689.3665 637.2850 L688.9725 637.3795 z M689.3665 637.2850 L689.6693 637.0815 L689.0897 637.2331 L688.8287 637.1877 L688.8365 637.6826 L689.0897 637.2331 L688.7921 637.4953 z M689.3340 499.9620 L689.9072 504.3533 L690.4211 507.1708 L689.9600 502.7139 z M655.0386 459.3143 L654.4949 459.2619 L659.3779 461.2045 L664.6490 463.9750 L659.9420 461.3910 z M685.2387 531.1663 L684.6674 531.2932 L684.8016 531.3678 z M671.0941 555.8435 L674.2542 561.1235 L672.6086 558.1162 z" fill="#111C33FF"/><path d="M621.0104 557.4557 L626.8130 558.4024 L608.8759 551.9111 L609.1898 552.4471 L614.7906 555.4833 z M614.7378 561.0026 L616.4319 563.3684 L618.8939 562.1965 L620.9631 564.9866 L623.6978 566.6966 L626.6578 568.1958 L630.3015 565.8616 L633.4956 566.7914 L636.7927 567.3842 L640.1676 567.6754 L643.5463 567.3578 L646.8379 566.7402 L650.0194 565.7888 L653.0557 564.5635 L655.9679 563.1241 L658.6284 561.4447 L661.3453 559.4854 L663.7596 557.5289 L665.8536 555.4829 L667.4515 556.6260 L667.8333 553.5198 L665.8997 552.2721 L663.5065 554.2033 L660.9640 556.1337 L658.1593 558.0236 L655.4776 559.6471 L652.6315 561.0404 L649.6758 562.2207 L646.6125 563.1453 L643.4463 563.7611 L640.1946 564.0375 L636.9482 563.7953 L633.7759 563.2118 L630.6977 562.3154 L627.2470 564.6534 L624.3020 563.2229 L621.5916 561.5392 L619.3291 558.8760 L616.7540 559.9305 L615.0558 557.5173 L613.8361 555.0515 L613.5927 558.5142 L612.9022 556.0056 L612.5762 559.5780 L613.3931 561.9872 z M673.2418 546.7552 L676.7042 541.3376 L672.1661 545.6825 L666.7933 549.4275 L667.3701 549.8495 L667.8423 550.4061 L672.7767 546.0753 z M616.5317 560.7465 L616.9243 560.9796 L622.5519 563.2736 z M652.4924 615.0835 L653.3107 614.5909 L650.4959 615.9871 z M654.2397 614.3625 L654.4830 614.2285 L654.2454 614.2307 L651.8866 615.2580 L653.3865 614.6430 L654.4830 614.2285 L652.6828 614.6967 L653.5432 614.4746 z M654.4453 613.8347 L654.8132 614.8315 L654.3546 613.2072 L655.1535 615.1204 L655.5066 614.4800 L655.0449 613.9271 L654.3546 613.2072 z M683.6132 534.4404 L683.5107 534.8388 L685.2387 531.1663 L684.8016 531.3678 L684.5690 531.5216 L683.3392 533.4974 L683.4297 533.9124 z M622.5519 563.2736 L622.7898 563.3572 L628.3266 564.8837 L633.4755 565.7349 L638.5662 566.1536 L633.3119 565.5327 L628.1823 564.7089 z M638.8496 619.9274 L642.1796 619.1437 L642.2887 619.0879 z M634.8109 619.6180 L631.7847 619.2815 L635.1532 619.8513 L638.6739 620.1320 L638.5797 619.4290 z M591.2806 537.0553 L594.5811 542.3237 L592.6248 538.8516 L592.6202 539.2612 L594.8754 543.4471 L594.6727 542.9843 L594.5811 542.3237 L594.9932 541.6652 z M626.7234 559.2367 L632.1679 559.5597 L637.1852 559.6790 L642.1545 558.2778 L637.1095 558.9667 L632.1172 558.8663 L626.8130 558.4024 z M656.0389 613.8779 L657.3441 612.9497 L656.5472 613.1646 L655.6005 613.5590 L655.2764 613.9945 L654.9001 614.3525 z M685.4293 531.0976 L683.1947 535.5828 L684.9402 532.0903 z M619.7073 614.8505 L622.0944 616.2514 L620.6779 615.3710 z" fill="#E7E7E7FF"/><path d="M594.3903 516.8165 L594.5256 514.1528 L595.1639 512.0630 L594.6016 513.4865 L595.4870 512.0020 L597.3813 508.9122 L597.2266 508.1435 L596.0016 509.5866 L594.9430 511.3536 L594.2422 513.5675 L594.0479 516.4009 z M678.1521 514.6115 L677.7086 511.2039 L677.3833 511.6639 L677.7728 514.8970 z M675.6263 507.0380 L676.9291 510.1571 L677.4988 512.4590 L677.3833 511.6639 L676.9821 508.4096 z M597.6910 530.9595 L597.2803 531.1898 L599.9744 533.9607 z M677.0359 522.0340 L675.8196 525.1979 L675.4645 526.2178 L677.3193 522.6777 L678.0532 518.6439 L676.8545 522.6022 z" fill="#E7E7E7FF"/><path d="M607.8483 556.6479 L606.6030 556.2268 L605.0518 555.6263 L603.2360 554.7962 L601.2848 553.8133 L599.3494 552.8134 L597.4752 551.8827 L595.8208 551.1454 L596.8497 546.9505 L595.8315 546.5953 L595.3710 546.5345 L593.7821 550.3787 L592.1963 554.2263 L590.6035 558.0508 L589.2874 562.1289 L588.1552 566.3309 L587.0873 570.5204 L585.9843 574.5688 L584.9220 578.3710 L584.0530 581.5891 L583.3249 584.4567 L582.7333 586.9134 L582.2958 589.1516 L582.4240 589.1251 L582.0970 591.0870 L581.8364 592.8810 L581.7426 594.5060 L581.9672 594.6229 L581.8335 596.1940 L581.8813 597.8912 L581.9565 599.6517 L581.9309 601.1105 L581.6511 602.4193 L581.4089 603.7103 L581.1378 604.8938 L581.0480 605.7486 L581.0598 606.2163 L581.1754 606.3797 L581.3361 606.4523 L581.4584 606.3809 L581.7388 605.9610 L581.3361 606.4523 L581.6743 606.1555 L582.1302 605.4677 L583.2059 603.7176 L584.0235 602.1514 L584.7076 601.5444 L583.9377 603.4355 L582.4885 605.7040 L583.1604 604.7219 L584.5979 603.2949 L584.8374 602.8816 L585.5547 601.7264 L586.3218 600.5505 L585.7437 601.4331 L586.0147 601.1937 L586.2347 601.0190 L586.4384 600.9153 L586.9336 600.1243 L587.4694 599.2806 L587.9130 598.5178 L588.5342 597.4802 L589.1949 596.3738 L589.8865 595.1516 L589.7062 595.3737 L590.5050 594.0690 L591.2653 592.6046 L591.4324 592.5803 L592.5944 590.5474 L593.6755 588.0867 L594.8621 585.3795 L596.2638 582.4810 L597.9139 579.3887 L599.8531 575.9937 L602.0845 572.4421 L604.3713 568.8032 L606.3853 565.0676 L607.8679 561.1074 L606.3706 564.7943 L608.1147 561.0006 L609.2983 557.0612 L609.2322 557.0309 L608.7242 556.8998 z M588.3835 595.9291 L589.5109 594.5654 L589.9481 594.2385 L589.1083 595.5252 L588.3635 596.7315 L588.0085 596.8185 L587.3176 597.9201 L586.6718 598.9794 L586.2787 599.0964 L586.6889 598.0319 L585.9395 599.2026 L585.6284 599.1737 L585.2117 599.1153 L584.6738 599.0143 L584.7785 597.7554 L584.1191 597.4833 L584.9456 596.5634 L584.8423 594.8293 L584.7219 596.5607 L584.8943 597.9132 L585.4065 598.2645 L585.2823 598.0419 L585.4727 598.4385 L586.0438 598.4403 L587.0557 597.4307 L588.3649 595.7990 z M603.4470 614.2653 L604.3275 613.6827 L605.1641 613.1185 L606.0061 612.5875 L606.8843 612.0710 L608.2773 611.4808 L608.1578 611.4381 L610.0703 612.7999 L610.5707 614.3646 L611.2215 615.5078 L612.0122 616.0561 L611.2404 615.4347 L611.7935 615.9630 L612.0122 616.0561 L612.7026 616.0289 L613.2219 615.8231 L614.0109 615.0732 L614.7886 614.0453 L615.4479 612.8141 L615.3196 612.7234 L615.0134 612.5801 L614.5142 612.3806 L613.8049 612.1650 L613.3162 613.4167 L612.7275 612.9104 L611.9063 613.0284 L611.7555 611.7357 L610.5085 611.5789 L609.4037 611.1181 L607.9081 611.0548 L606.3167 610.6631 L605.2757 611.2279 L604.6426 610.1606 L602.8467 609.5702 L601.3870 608.0137 L598.9756 606.5170 L597.5578 605.0085 L598.7454 604.5410 L597.6639 603.0021 L595.8563 601.9564 L594.7074 600.6793 L594.4771 598.5143 L593.7797 597.3248 L593.2374 596.3512 L593.8526 594.4799 L593.4971 593.9131 L593.2079 593.5588 L593.0040 593.3127 L592.8652 593.2025 L592.7745 593.1789 L591.6200 594.4167 L591.6943 594.4185 L591.8478 594.5406 L590.6574 595.6234 L590.6103 595.6381 L589.6797 596.8606 L588.9036 598.0633 L588.2341 599.2791 L587.8041 600.3438 L587.8832 600.3564 L587.9462 601.0190 L587.9033 601.2800 L588.0197 601.3640 L588.1863 601.5707 L588.5848 601.7349 L589.2211 601.8130 L590.1663 601.8851 L590.9542 601.9557 L591.7240 602.0494 L591.6110 602.0123 L592.3965 602.3208 L593.1663 602.6124 L593.4756 603.4639 L593.3826 604.5574 L593.2173 605.6352 L593.0544 606.6997 L592.8309 607.7069 L592.6910 608.7164 L592.8268 609.6042 L593.1845 610.2169 L593.9841 610.1333 L595.1150 609.6251 L596.0396 609.2439 L597.2956 608.9053 L598.6399 609.0236 L597.2999 608.8988 L598.5634 609.0496 L598.6399 609.0236 L599.8276 609.6758 L600.3024 610.6496 L600.5851 611.6910 L600.6189 611.7057 L600.9375 611.7751 L600.7900 612.8519 L601.0499 613.8998 L601.6453 614.6390 L602.5694 614.6658 z M682.5818 626.5591 L683.3103 624.8796 L684.2118 622.9072 L685.7035 619.4003 L686.4532 616.8369 L687.1030 613.6107 L687.2773 612.1514 L687.5118 609.5790 L687.4173 605.1840 L687.5928 603.6097 L686.9803 598.9865 L685.9128 594.2568 L684.4144 589.6270 L682.7432 585.2082 L682.1234 583.5680 L681.1096 580.9788 L679.7687 577.0859 L678.7035 573.8358 L678.9896 576.6544 L678.2679 574.2258 L677.5833 571.9303 L677.0051 568.7504 L676.1902 566.4719 L675.3714 564.2506 L674.2542 561.1235 L671.0941 555.8435 L671.0150 556.4535 L669.6624 553.9958 L669.2585 554.2136 L670.5859 556.9840 L671.2704 560.1422 L671.6699 563.3276 L670.4968 560.5524 L669.5148 557.5908 L669.6509 560.8101 L669.1241 564.0317 L669.8304 567.0652 L670.7426 570.0037 L671.8641 572.9548 L673.6592 575.3970 L674.6604 577.7484 L675.7250 579.8516 L676.3062 582.1193 L676.3428 583.8612 L676.3165 585.6454 L676.4810 587.7581 L674.7754 591.9514 L672.3939 596.7275 L669.3328 600.9020 L666.8285 604.2306 L664.5621 607.1382 L662.4762 609.6266 L660.6389 611.6022 L658.9280 613.1890 L657.3876 614.2795 L656.0446 614.8590 L655.1535 615.1204 L655.8295 616.1122 L655.7074 617.0756 L655.5400 617.4493 L655.9625 618.9711 L656.5887 620.8651 L657.2122 624.0463 L657.8973 625.6982 L658.7848 628.0402 L659.6594 630.1934 L660.2577 631.5948 L660.4470 632.4925 L660.6943 633.3087 L660.9645 633.9957 L660.9815 635.0070 L661.3239 635.8120 L661.7078 636.6613 L662.3146 637.4095 L662.7816 638.0865 L663.3935 638.6644 L663.9150 639.2541 L664.3959 639.9097 L664.8051 640.5485 L665.2156 641.2231 L665.6782 641.8947 L666.2125 642.5356 L667.2315 643.4803 L667.9399 643.9688 L668.6735 644.2778 L669.2963 644.0572 L669.6457 644.2830 L670.1869 644.1219 L670.5656 643.8057 L671.1152 643.3271 L670.1869 644.1219 L670.7348 643.7550 L671.1152 643.3271 L671.5612 642.6486 L672.1166 641.8810 L674.1089 641.6445 L675.3820 641.9222 L676.3370 642.1581 L677.1888 642.3568 L678.0367 642.5991 L679.0112 642.8734 L680.0193 642.9833 L680.7867 642.8618 L681.2079 642.4111 L680.0193 642.9833 L680.4642 642.7839 L681.2079 642.4111 L681.4645 641.6727 L681.7056 640.7923 L681.9524 639.9161 L682.3738 639.1365 L681.5818 640.5100 L682.2181 639.7015 L682.5952 639.6902 L682.9102 639.7528 L684.2691 639.8422 L685.4620 640.1809 L686.5277 640.5829 L687.5135 640.8519 L686.2921 640.4240 L687.3965 640.8618 L688.4104 641.2899 L688.4858 641.0495 L689.3038 641.3687 L689.4510 641.4047 L689.8718 640.8682 L689.9152 640.5438 L689.9256 639.8597 L689.7278 639.3555 L689.1293 638.1919 L688.7802 637.6837 L689.4424 638.8540 L689.2180 638.3080 L688.9910 637.7532 L688.8248 636.6740 L688.8287 637.1877 L689.0897 637.2331 L689.6693 637.0815 L690.3831 637.1418 L691.1433 637.2475 L692.2513 637.0699 L693.0307 637.2262 L693.7139 637.2865 L694.2560 637.2062 L694.5685 637.1768 L694.7406 636.8582 L694.7080 636.6086 L694.5570 636.1515 L694.7406 636.8582 L694.6481 636.4276 L694.5570 636.1515 L694.3961 635.8727 L693.9442 635.2209 L693.7025 634.9095 L693.3447 634.6635 L692.7169 633.9600 L692.3630 633.7954 L691.5297 632.9769 L692.7169 633.9600 L692.2285 633.5098 L691.8958 633.2145 L690.9311 632.4670 L690.5795 632.1888 L689.5212 631.4253 L688.3048 630.6446 L689.1343 631.2067 L687.9477 630.3948 L686.7286 629.5919 L685.4990 628.6458 L684.1588 627.1359 L683.5929 625.1672 L683.5788 625.3350 L684.1451 623.2625 L683.2803 625.9083 z M658.6689 508.5072 L661.4038 505.2968 L664.8181 503.3761 L668.0201 502.5771 L670.5358 502.6496 L672.5745 503.4158 L674.2707 504.6838 L675.7964 506.2997 L676.9821 508.4096 L677.7086 511.2039 L678.1521 514.6115 L678.0532 518.6439 L677.3193 522.6777 L675.9220 526.3964 L673.6866 529.8163 L670.4031 532.4374 L666.4669 533.5902 L662.5433 533.1290 L659.3921 530.8595 L657.2042 526.9632 L656.0146 522.1387 L655.8979 517.0908 L656.8354 512.4707 z M694.8550 570.2192 L694.4660 569.8751 L694.7031 570.1548 z M598.8010 507.1555 L600.8813 506.7956 L603.7043 507.2132 L606.9288 508.7099 L609.7396 511.5613 L611.8138 515.2675 L613.2053 519.7278 L611.8338 515.1307 L613.2123 519.7955 L613.7117 525.0127 L613.3395 530.1428 L613.7402 524.7333 L613.3637 529.6373 L612.0357 533.7333 L609.6380 536.3293 L606.2923 537.2272 L602.7337 536.5320 L599.5795 534.3145 L597.2803 531.1898 L595.6954 527.6758 L594.1547 524.0851 L593.6140 519.8970 L593.5786 516.3093 L593.8318 513.3062 L594.2422 513.5675 L594.9430 511.3536 L596.0016 509.5866 L597.2266 508.1435 z M684.6674 531.2932 L685.2387 531.1663 L686.6806 528.2975 L689.2345 521.2795 L690.3500 516.1762 L690.0513 508.7683 L690.4211 507.1708 L689.9072 504.3533 L689.3340 499.9620 L688.1741 495.6310 L685.4215 488.8585 L684.1397 486.5245 L682.6797 484.2429 L681.1502 481.8461 L679.4665 478.4848 L676.0516 473.5541 L673.2657 470.4200 L672.5077 469.6598 L668.4822 466.4058 L664.0494 463.5938 L659.3779 461.2045 L654.4949 459.2619 L655.0386 459.3143 L649.9509 457.7893 L649.4282 457.8389 L644.7396 456.7575 L639.0828 456.3037 L634.2289 455.8357 L628.7413 456.9920 L623.7192 458.2440 L618.7427 459.8762 L613.9459 461.9485 L609.4059 464.5066 L604.7972 467.9330 L601.0969 470.8283 L597.4029 474.5685 L595.3965 477.3329 L593.9249 479.7894 L592.7772 482.0183 L591.4240 485.0802 L590.4363 487.6855 L590.4182 488.1848 L588.3711 494.6801 L587.4710 497.8505 L587.6021 496.7370 L586.6598 500.8305 L585.9972 503.6190 L585.4670 507.9074 L585.3666 512.2299 L585.6475 516.5907 L585.3766 519.5366 L585.5911 522.3500 L586.0355 524.2244 L587.4290 529.8235 L590.6669 536.7748 L587.1843 525.4597 L588.4976 530.0535 L590.6500 536.9740 L592.4797 539.7665 L594.2889 542.1863 L597.5917 546.0030 L601.7643 549.1816 L602.4005 549.5240 L607.3499 552.4059 L612.2727 554.6083 L616.6418 556.1226 L620.6183 556.9899 L617.2541 556.2513 L621.1645 557.3121 L624.8885 558.1577 L628.7672 558.9161 L632.8185 559.3398 L637.0415 559.2510 L641.2939 558.8433 L645.4304 557.9388 L649.4397 556.7158 L653.3487 555.4194 L657.4927 553.8809 L657.9438 553.6890 L662.5742 551.6375 L667.7517 548.8269 L672.9194 545.3281 L677.7239 541.2112 L680.5049 537.7130 L682.4120 535.0179 L682.8647 534.3156 L684.0909 532.5963 z M609.8408 610.4301 L610.8161 609.3922 L608.8044 607.1623 L607.4111 605.2216 L604.2297 601.5723 L601.5930 596.2902 L601.0354 591.9602 L601.7864 589.3883 L602.3989 586.8071 L602.8971 584.2130 L603.7722 581.3137 L605.0117 578.7799 L606.1455 576.0557 L608.5028 572.5466 L609.8287 569.3557 L610.9287 566.1882 L611.8334 562.9093 L611.2314 559.7755 L610.1058 563.0606 L609.9856 559.9678 L608.6591 562.9435 L607.4608 562.5991 L607.3618 565.7216 L605.8434 568.4677 L603.8232 571.6241 L602.9296 574.2429 L602.1146 573.2373 L601.3043 575.8297 L600.3696 578.4166 L599.3471 580.6275 L600.3768 576.4571 L601.0264 573.9167 L599.2028 578.1013 L596.8597 584.1802 L595.4914 586.0219 L594.3665 587.8568 L593.6449 589.6266 L593.3949 591.3902 L594.1548 593.8259 L595.2609 597.9363 L595.3121 599.2291 L595.7151 600.0848 L597.2042 602.7752 L597.6035 603.3289 L599.6998 605.8203 L602.6749 608.3157 L605.8448 610.0599 L609.1281 611.2039 L612.3774 611.5956 z M690.0979 570.2728 L690.7742 571.3643 L691.3190 571.2917 L691.7178 570.5499 L691.7935 570.1912 L691.9968 568.6868 L691.9608 568.0381 L692.4689 566.4583 L693.3255 566.3057 L692.6290 566.5198 L692.0002 566.5190 L692.0483 566.8563 L692.5732 567.3060 L692.5052 567.3835 L692.9286 567.7972 L693.3918 568.4431 L694.1498 569.6156 L694.5223 570.1144 L694.8300 570.1128 L695.0768 569.8345 L695.1318 569.5713 L695.1033 568.9107 L694.9208 568.1135 L694.7618 567.4597 L694.4489 566.7399 L694.5568 567.0502 L694.6262 565.9276 L694.8303 565.0480 L694.9683 564.0420 L695.1671 562.9478 L695.1908 562.5964 L695.1543 562.0975 L695.1412 561.5117 L695.1312 559.3308 L695.1086 558.0041 L694.9128 557.0477 L694.5795 555.8422 L694.1968 554.6133 L694.1229 554.5203 L693.5520 552.9984 L693.0538 551.8021 L692.2749 550.0640 L691.3361 548.0463 L692.8319 551.3122 L693.0127 552.7219 L692.1770 550.9037 L691.3038 549.0474 L691.0388 547.3708 L690.1705 545.3470 L689.4241 543.7413 L689.2321 543.3445 L686.8356 539.8157 L685.4623 538.5407 L682.7400 537.6774 L684.1691 538.5652 L685.2949 539.8271 L682.5477 538.1479 L683.5198 539.2855 L684.1276 540.6672 L682.4503 539.4159 L682.6250 540.7904 L682.4094 542.2675 L681.7073 539.0942 L681.6978 540.5342 L681.2622 539.2924 L681.0619 540.8702 L680.5482 542.4351 L679.7040 543.9272 L678.5660 545.2435 L678.4482 543.6418 L677.1219 545.2243 L675.5208 547.0450 L675.1810 547.5520 L676.6279 547.3672 L675.7269 548.1752 L674.4752 548.9237 L673.7756 549.4188 L673.7369 549.8735 L674.6341 551.3410 L677.0301 553.4481 L678.9752 554.5638 L680.8120 555.7134 L682.0673 556.3657 L683.3983 557.5255 L684.4426 558.7810 L683.4417 558.2305 L681.3772 556.0538 L682.6427 557.4009 L683.6868 558.7691 L684.3700 560.1814 L685.1797 561.6464 L686.3406 563.7836 L687.0674 565.0607 L687.7646 566.3876 L688.8514 568.1913 L687.6838 566.0346 L688.5442 567.6944 L689.7377 569.6760 z M695.1881 564.5812 L695.8466 565.1149 L695.5490 563.6979 L695.3218 563.5961 z M695.4971 566.2659 L695.6449 565.2420 L695.2654 566.1729 z M648.9868 556.6323 L644.9991 557.6399 L641.0300 558.3258 L642.1545 558.2778 L647.5933 557.1826 z M674.6188 641.6744 L674.1089 641.6445 L672.7542 641.7234 z M581.7864 599.4825 L581.6887 599.2770 L581.6126 600.7736 L581.5258 600.3928 L581.2520 601.9816 L580.5222 605.0209 L581.9059 602.9627 L581.9736 601.4246 L581.9565 599.6517 z M593.1932 602.6317 L593.1663 602.6124 L592.4735 602.2891 z M668.4822 466.4058 L673.2657 470.4200 L669.1857 466.9395 z M694.1968 554.6133 L694.9128 557.0477 L694.6195 555.8102 z M585.2987 602.3323 L585.0334 602.3162 L584.2473 603.9887 z M625.4815 558.0129 L626.8130 558.4024 L629.3270 558.5594 z" fill="#111C33FF"/><path d="M609.9501 606.8151 L611.8208 609.3832 L615.7156 612.5747 L617.9918 613.9781 L620.6779 615.3710 L624.8390 617.5431 L627.7780 618.2702 L631.7847 619.2815 L634.8109 619.6180 L638.5797 619.4290 L638.6739 620.1320 L642.2887 619.0879 L642.1796 619.1437 L645.3918 618.3030 L648.3298 617.2343 L651.1614 615.6807 L653.3107 614.5909 L652.4924 615.0835 L654.2454 614.2307 L654.4830 614.2285 L655.6005 613.5590 L656.5472 613.1646 L657.3441 612.9497 L656.0389 613.8779 L654.9001 614.3525 L655.5066 614.4800 L655.1535 615.1204 L656.0446 614.8590 L657.3876 614.2795 L658.9280 613.1890 L660.6389 611.6022 L662.4762 609.6266 L664.5621 607.1382 L666.8285 604.2306 L669.3328 600.9020 L672.3939 596.7275 L674.7754 591.9514 L676.4810 587.7581 L676.3165 585.6454 L676.3428 583.8612 L676.3062 582.1193 L675.7250 579.8516 L674.6604 577.7484 L673.6592 575.3970 L671.8641 572.9548 L670.7426 570.0037 L669.8304 567.0652 L669.1241 564.0317 L668.5723 560.9435 L668.4614 557.6300 L668.6100 554.6251 L667.4515 556.6260 L665.8536 555.4829 L663.7596 557.5289 L661.3453 559.4854 L658.6284 561.4447 L655.9679 563.1241 L653.0557 564.5635 L650.0194 565.7888 L646.8379 566.7402 L643.5463 567.3578 L640.1676 567.6754 L636.7927 567.3842 L633.4956 566.7914 L630.3015 565.8616 L626.6578 568.1958 L623.6978 566.6966 L620.9631 564.9866 L618.8939 562.1965 L616.4319 563.3684 L614.7378 561.0026 L613.3931 561.9872 L612.5762 559.5780 L611.8334 562.9093 L610.9287 566.1882 L609.8287 569.3557 L608.5028 572.5466 L606.1455 576.0557 L605.0117 578.7799 L603.7722 581.3137 L602.8971 584.2130 L602.3989 586.8071 L601.7864 589.3883 L601.0354 591.9602 L601.5930 596.2902 L604.2297 601.5723 L607.4111 605.2216 L608.6606 606.3524 L606.0499 603.2654 L607.8419 605.0555 z M667.3701 549.8495 L666.7933 549.4275 L660.3207 552.7979 L653.6870 555.5344 L647.5933 557.1826 L642.1545 558.2778 L637.1852 559.6790 L632.1679 559.5597 L626.7234 559.2367 L626.8130 558.4024 L621.0104 557.4557 L614.7906 555.4833 L614.2878 555.9468 L613.8448 556.5443 L608.0542 553.3597 L607.6647 553.9645 L602.8314 550.2332 L602.4921 550.9570 L598.1566 547.0975 L598.3193 547.5818 L594.5811 542.3237 L594.6727 542.9843 L594.8754 543.4471 L598.9644 548.4660 L599.9529 549.4727 L604.6778 553.7264 L598.9644 548.4660 L603.6490 552.7794 L604.6778 553.7264 L610.0016 557.3953 L610.5590 557.7649 L616.5317 560.7465 L622.5519 563.2736 L628.1823 564.7089 L633.3119 565.5327 L638.5662 566.1536 L643.6096 565.1461 L648.7601 563.6948 L654.3434 561.5166 L660.2829 558.4412 L666.1393 554.8266 L671.2709 550.7120 L671.7444 550.2618 L672.1376 549.7511 L677.4502 543.8567 L680.8809 539.5984 L683.5107 534.8388 L679.9695 541.1058 L683.1947 535.5828 L685.4293 531.0976 L685.2387 531.1663 L683.5107 534.8388 L683.6132 534.4404 L683.4297 533.9124 L683.3392 533.4974 L681.4068 537.2247 L677.7554 542.8949 L677.7619 542.3911 L677.3218 541.7598 L673.2418 546.7552 L672.7767 546.0753 L667.8423 550.4061 z M679.9695 541.1058 L680.4507 540.3617 L680.8809 539.5984 L676.4332 545.5895 z M671.2709 550.7120 L675.8832 546.1833 L676.4332 545.5895 z" fill="#E7E7E7FF"/><path d="M599.6505 509.6381 L597.8958 509.9141 L596.5380 510.7376 L595.4870 512.0020 L594.6016 513.4865 L594.0439 515.3128 L593.9264 517.6424 L594.3986 521.0634 L594.7786 523.8190 L594.4712 523.7502 L595.4371 527.0347 L596.8145 530.0208 L598.8105 532.6448 L601.4400 534.5171 L604.4528 535.0208 L607.2688 534.2438 L609.3306 532.1100 L610.3926 528.7019 L610.7187 524.6172 L610.2184 520.4329 L608.9935 516.7175 L607.1912 513.5880 L604.7792 511.1561 L602.0426 509.9935 z M677.8397 515.2887 L677.4988 512.4590 L676.9291 510.1571 L675.9620 508.4143 L674.6801 507.0561 L673.2292 505.9408 L671.4827 505.3072 L669.3635 505.2728 L666.6433 505.9509 L663.7281 507.4733 L661.3925 510.2127 L659.7993 513.5665 L658.9470 517.4249 L659.0012 521.6526 L660.0159 525.6708 L661.8067 528.9182 L664.5002 530.7717 L667.8003 531.1807 L671.1377 530.2883 L673.8738 528.0786 L675.8196 525.1979 L677.0359 522.0340 L677.7324 518.6260 z M601.7263 513.1974 L603.5356 513.0840 L604.3920 515.0089 L603.4353 517.0444 L601.6262 517.1519 L600.7737 515.2296 z M664.4537 511.2744 L665.1883 509.2411 L667.1794 509.1176 L668.4354 511.0226 L667.7041 513.0534 L665.7135 513.1817 z" fill="#000000FF"/><path d="M595.4870 512.0020 L596.5380 510.7376 L597.8958 509.9141 L599.6505 509.6381 L602.0426 509.9935 L604.7792 511.1561 L607.1912 513.5880 L608.9935 516.7175 L610.2184 520.4329 L610.7187 524.6172 L610.3926 528.7019 L609.3306 532.1100 L607.2688 534.2438 L604.4528 535.0208 L601.4400 534.5171 L598.8105 532.6448 L599.9744 533.9607 L597.2803 531.1898 L599.5795 534.3145 L602.7337 536.5320 L606.2923 537.2272 L609.6380 536.3293 L612.0380 533.3679 L613.2640 529.4680 L612.0357 533.7333 L613.3637 529.6373 L613.7402 524.7333 L613.2053 519.7278 L611.8138 515.2675 L609.7396 511.5613 L606.9288 508.7099 L603.7043 507.2132 L600.8813 506.7956 L598.8010 507.1555 L597.2266 508.1435 L597.3813 508.9122 z M673.2292 505.9408 L674.6801 507.0561 L675.9620 508.4143 L676.9291 510.1571 L675.6263 507.0380 L676.9821 508.4096 L675.7964 506.2997 L674.2707 504.6838 L672.5745 503.4158 L670.5358 502.6496 L668.0201 502.5771 L664.8181 503.3761 L661.4038 505.2968 L658.6689 508.5072 L656.8354 512.4707 L655.8979 517.0908 L656.0146 522.1387 L657.2042 526.9632 L659.3921 530.8595 L662.5433 533.1290 L666.4669 533.5902 L670.4031 532.4374 L673.6866 529.8163 L675.9220 526.3964 L677.3193 522.6777 L675.4645 526.2178 L675.8196 525.1979 L673.8738 528.0786 L671.1377 530.2883 L667.8003 531.1807 L664.5002 530.7717 L661.8067 528.9182 L660.0159 525.6708 L659.0012 521.6526 L658.9470 517.4249 L659.7993 513.5665 L661.3925 510.2127 L663.7281 507.4733 L666.6433 505.9509 L669.3635 505.2728 L671.4827 505.3072 z M665.1883 509.2411 L664.4537 511.2744 L665.7135 513.1817 L667.7041 513.0534 L668.4354 511.0226 L667.1794 509.1176 z M603.4353 517.0444 L604.3920 515.0089 L603.5356 513.0840 L601.7263 513.1974 L600.7737 515.2296 L601.6262 517.1519 z M677.3833 511.6639 L677.7086 511.2039 L676.9821 508.4096 z" fill="#E7E7E7FF"/><path d="M628.4102 546.5793 L628.3509 546.3625 L628.3454 546.4263 z M630.8066 548.6678 L630.9964 548.7397 L631.1909 548.8026 L631.3809 548.8324 L631.5174 548.8369 L631.6085 548.8162 L631.6735 548.7888 L631.7963 548.7417 L631.8684 548.6583 L631.9293 548.5489 L631.9977 548.4194 L632.0490 548.2544 L632.0240 548.1780 L632.0646 547.9548 L632.0562 547.6934 L632.0376 547.4313 L632.0061 547.1917 L632.0577 546.8921 L632.0507 546.6636 L632.0472 546.4423 L632.0338 546.2218 L631.9954 546.0074 L631.9364 545.8121 L631.9253 545.7911 L631.9059 545.7567 L631.8713 545.6033 L631.7672 545.5405 L631.6441 545.4756 L631.4632 545.4271 L631.2780 545.3794 L631.0840 545.3335 L630.8590 545.3115 L630.6218 545.2925 L630.3727 545.2751 L630.0875 545.2332 L629.7985 545.2237 L629.9950 545.2814 L629.9214 545.3969 L629.8582 545.5518 L629.8058 545.7268 L629.7762 545.9298 L629.5127 545.9178 L629.2347 545.9142 L628.9480 545.9079 L628.6777 545.9135 L628.4604 545.9413 L628.4806 545.7623 L628.3696 545.8474 L628.3287 545.9451 L628.3287 546.0786 L628.3199 546.1949 L628.3509 546.3625 L628.3832 546.5453 L628.4530 546.7518 L628.5383 546.9756 L628.6564 547.1450 L628.6549 547.1004 L628.7271 547.0593 L628.8738 547.0112 L628.9982 547.2496 L628.8759 547.3061 L628.9553 547.6245 L629.1504 547.8597 L629.3963 548.0101 L629.6478 548.1452 L629.7096 548.0034 L629.9337 548.0981 L629.8992 548.2656 L629.9074 548.3048 L630.1317 548.3992 L630.3482 548.4904 L630.5634 548.5800 z M641.4104 547.9462 L641.6180 547.8388 L641.8283 547.7194 L642.0609 547.5821 L642.0382 547.5437 L642.2799 547.3938 L642.1827 547.2614 L642.0752 547.0854 L642.3980 547.1139 L642.7471 547.0507 L642.9164 546.7935 L643.0800 546.5327 L643.0389 546.5127 L643.1509 546.2369 L643.0486 546.2062 L643.1285 545.9526 L643.1738 545.7112 L643.1997 545.4784 L643.1994 545.2653 L643.1888 545.0627 L643.1586 544.8865 L642.9073 544.8812 L642.6132 544.9083 L642.3105 544.9396 L642.0104 544.9751 L641.9590 544.8167 L641.6633 544.8472 L641.3940 544.8779 L641.1432 544.9286 L640.9126 544.9860 L640.8280 544.8334 L640.6136 544.8850 L640.4074 544.9383 L640.3129 544.8666 L640.1243 544.9366 L639.9529 545.0079 L639.7979 545.0793 L639.8771 545.1547 L639.9542 545.2935 L639.8442 545.5004 L639.9171 545.7131 L639.9855 545.9350 L639.8562 546.2405 L639.8958 546.5052 L639.9309 546.7650 L639.9620 547.0168 L639.9689 547.3104 L639.8449 547.5701 L639.9122 547.8109 L639.9451 547.8906 L640.1102 548.1387 L640.2518 548.1660 L640.1714 548.0139 L640.4200 548.1472 L640.6003 548.1179 L640.7966 548.0572 L640.8325 548.1703 L641.0248 548.0991 L641.2218 548.0271 L641.2109 548.0494 z" fill="#1E1E1EFF"/></svg>