<?xml version="1.0" encoding="UTF-8" standalone="no"?>
<svg
   height="215.89999999999998mm"
   viewBox="-500, -500, 1000, 1000"
   width="279.4mm"
   version="1.1"
   id="svg5"
   sodipodi:docname="pokeball.glb.svg"
   inkscape:version="1.4.2 (2aeb623e1d, 2025-05-12)"
   xmlns:inkscape="http://www.inkscape.org/namespaces/inkscape"
   xmlns:sodipodi="http://sodipodi.sourceforge.net/DTD/sodipodi-0.dtd"
   xmlns="http://www.w3.org/2000/svg"
   xmlns:svg="http://www.w3.org/2000/svg">
  <defs
     id="defs5" />
  <sodipodi:namedview
     id="namedview5"
     pagecolor="#505050"
     bordercolor="#ffffff"
     borderopacity="1"
     inkscape:showpageshadow="0"
     inkscape:pageopacity="0"
     inkscape:pagecheckerboard="1"
     inkscape:deskcolor="#505050"
     inkscape:document-units="mm"
     inkscape:zoom="1.3847508"
     inkscape:cx="508.03364"
     inkscape:cy="466.871"
     inkscape:window-width="1920"
     inkscape:window-height="1008"
     inkscape:window-x="0"
     inkscape:window-y="0"
     inkscape:window-maximized="1"
     inkscape:current-layer="svg5" />
  <path
     d="M205.41635131835938 -62.473175048828125L194.48672485351563 -61.197628021240234L183.0654754638672 -60.015113830566406L171.18341064453125 -58.93105697631836L158.87893676757813 -57.95000457763672L146.19198608398438 -57.0764045715332L133.16067504882813 -56.31413269042969L119.82758331298828 -55.666778564453125L106.24214935302734 -55.136898040771484L92.4464111328125 -54.72774887084961L78.49066162109375 -54.44034957885742L64.42643737792969 -54.27594757080078L50.297386169433594 -54.23649597167969L36.15987014770508 -54.3208122253418L22.06021499633789 -54.52958679199219L8.048395156860352 -54.861351013183594L-5.823092460632324 -55.314205169677734L-19.507705688476563 -55.8868293762207L-32.958370208740234 -56.576416015625L-46.13378143310547 -57.3790168762207L-58.98257827758789 -58.29168701171875L-71.46920776367188 -59.31024932861328L-83.55294799804688 -60.43065643310547L-95.19453430175781 -61.647003173828125L-106.36260223388672 -62.955322265625L-117.02254486083984 -64.34912872314453L-127.15232849121094 -65.82293701171875L-136.71932983398438 -67.37133026123047L-145.70706176757813 -68.9879150390625L-154.09136962890625 -70.66649627685547L-161.859375 -72.40093231201172L-168.99131774902344 -74.18480682373047L-175.48406982421875 -76.01203918457031L-181.32464599609375 -77.87625122070313L-186.5107421875 -79.77117156982422L-191.037353515625 -81.69112396240234L-194.90530395507813 -83.62980651855469L-198.1160888671875 -85.58128356933594L-200.6736602783203 -87.54033660888672L-202.58338928222656 -89.50167083740234L-203.85560607910156 -91.45941162109375L-204.49526977539063 -93.40919494628906L-204.51812744140625 -95.34593200683594L-203.93714904785156 -97.26470184326172L-208.42990112304688 -84.99268341064453L-212.29148864746094 -72.5392837524414L-212.9535675048828 -70.38330841064453L-216.2088165283203 -57.66987609863281L-218.81187438964844 -44.843109130859375L-220.76034545898438 -31.938594818115234L-222.05459594726563 -18.989015579223633L-222.6899871826172 -6.0265302658081055L-222.79861450195313 -3.301517963409424L-222.7779998779297 9.734872817993164L-222.1016082763672 22.711183547973633L-220.77088928222656 35.59434127807617L-218.79518127441406 48.35121154785156L-218.22012329101563 51.42351150512695L-215.59494018554688 64.08245086669922L-212.33819580078125 76.54312133789063L-208.4605255126953 88.77625274658203L-203.97901916503906 100.74817657470703L-202.7153778076172 103.99707794189453L-197.6354217529297 115.69129943847656L-195.74008178710938 118.95457458496094L-193.2135772705078 122.21299743652344L-190.05108642578125 125.45773315429688L-186.2491455078125 128.68017578125L-181.80670166015625 131.87039184570313L-176.7233123779297 135.01805114746094L-171.00418090820313 138.11370849609375L-164.65194702148438 141.14703369140625L-157.6768341064453 144.10768127441406L-150.09030151367188 146.98501586914063L-141.90370178222656 149.7690887451172L-133.13250732421875 152.4495849609375L-123.80046081542969 155.01634216308594L-113.9236068725586 157.4588623046875L-103.53385925292969 159.76821899414063L-92.65267181396484 161.93545532226563L-81.31363677978516 163.94989013671875L-69.54725646972656 165.80508422851563L-57.39150619506836 167.49136352539063L-44.88588333129883 169.00205993652344L-32.0647087097168 170.3303985595703L-18.9776611328125 171.47152709960938L-5.663834095001221 172.41812133789063L7.829026699066162 173.1682586669922L21.458349227905273 173.7171173095703L35.17272186279297 174.06248474121094L48.923946380615234 174.2019500732422L62.66740417480469 174.13671875L76.34867858886719 173.86473083496094L89.92575073242188 173.3892822265625L103.34888458251953 172.7123565673828L116.56951904296875 171.8356170654297L129.54713439941406 170.7644500732422L142.23387145996094 169.5029296875L154.58865356445313 168.0569610595703L166.5745849609375 166.43287658691406L178.15286254882813 164.6379852294922L189.28643798828125 162.67971801757813L199.94515991210938 160.56692504882813L210.09840393066406 158.30760192871094L219.71621704101563 155.91136169433594L228.77943420410156 153.38851928710938L237.26510620117188 150.74798583984375L245.15740966796875 147.99984741210938L252.4327850341797 145.155029296875L259.0876770019531 142.22305297851563L265.1069641113281 139.21551513671875L270.4841003417969 136.14097595214844L275.2184753417969 133.01052856445313L279.3014831542969 129.8348846435547L282.7408447265625 126.6231689453125L285.5325927734375 123.38560485839844L287.6827697753906 120.1302719116211L289.2024230957031 116.86824798583984L294.4765319824219 105.17047882080078L299.15814208984375 93.16838836669922L303.22802734375 80.88786315917969L306.6719970703125 68.36363220214844L307.5040283203125 65.21552276611328L310.3000183105469 52.53495788574219L312.4492492675781 39.685577392578125L313.9445495605469 26.69683074951172L314.7752685546875 13.60299301147461L314.90032958984375 10.756869316101074L315.062255859375 -2.3132731914520264L314.5582580566406 -15.411994934082031L313.3846435546875 -28.505937576293945L311.5426025390625 -41.5611572265625L309.0346984863281 -54.543766021728516L308.5506286621094 -56.84450149536133L305.4073791503906 -69.6002426147461L301.6129150390625 -82.21439361572266L297.1753234863281 -94.64906311035156L297.55999755859375 -92.70741271972656L297.32391357421875 -90.75396728515625L296.4604797363281 -88.79434204101563L294.9512939453125 -86.83352661132813L292.7948913574219 -84.87610626220703L289.9795227050781 -82.92869567871094L286.4986267089844 -80.99623107910156L282.3556823730469 -79.08485412597656L277.54248046875 -77.2000503540039L272.0672302246094 -75.34837341308594L265.9303283691406 -73.53646850585938L259.13812255859375 -71.7695541381836L251.70570373535156 -70.05467224121094L243.63641357421875 -68.39759063720703L234.95428466796875 -66.80496978759766L225.67523193359375 -65.28292083740234L215.82273864746094 -63.83690643310547z"
     style="fill:#222222;stroke:#000000;stroke-opacity:1;stroke-width:8.41130153;stroke-dasharray:none;paint-order:stroke fill markers"
     id="path3" />
  <path
     d="m 310.81589,35.936876 -3.14995,5.681355 -0.40531,0.554307 -1.91998,2.651291 -2.1955,2.979759 -2.8659,2.811837 -3.32114,2.200553 -0.19293,0.166394 -4.31479,2.928291 -5.02292,2.890862 -5.73404,2.851646 -6.4425,2.79612 -7.13849,2.731636 -7.82941,2.659576 -8.50474,2.57576 -9.16576,2.484985 -9.80711,2.381287 -10.42816,2.268986 -11.01845,2.146866 -11.57845,2.020264 -12.11352,1.880142 -5.23767,0.229523 -7.33455,0.985595 -13.15753,1.602562 -13.57529,1.443512 -13.94675,1.276497 -6.88693,0.166954 -7.38174,0.545327 -14.69914,0.952827 -10.556119,0.223793 -4.350281,0.232727 -15.641983,0.534187 -0.09751,0.344765 -1.574585,4.485519 -1.800438,4.382359 -2.013054,4.27069 -2.228027,4.14652 -2.4329,4.01378 -2.633926,3.87218 -2.824898,3.7191 -3.008972,3.56064 -3.189331,3.39347 -3.356602,3.21534 -3.517132,3.03192 -3.670997,2.84335 -3.811966,2.64395 -3.943295,2.44274 -4.068144,2.23646 -4.183427,2.02231 -4.283122,1.8069 -4.373456,1.58673 -4.457567,1.36156 -4.5294006,1.13496 -4.5890336,0.90685 -4.63961676,0.67703 -4.67509674,0.44589 -4.7047181,0.21587 -4.7194132,-0.0186 -4.725316,-0.24873 -4.719459,-0.47759 -4.701908,-0.705 -4.675747,-0.93443 -4.634957,-1.15634 -4.588657,-1.37747 -4.527817,-1.59432 -4.458511,-1.80727 -4.377724,-2.0162 -4.288536,-2.22141 -4.187881,-2.41973 -4.078789,-2.61147 -3.961273,-2.79962 -3.835297,-2.97833 -3.694839,-3.15012 -3.554932,-3.31925 -3.400452,-3.47561 -3.240425,-3.62589 -3.074798,-3.77016 -2.900498,-3.90225 -2.717491,-4.02517 -2.528762,-4.14217 -2.33717,-4.24748 -2.13971,-4.346947 -1.93622,-4.428459 -1.72685,-4.507141 -1.51432,-4.57415 -0.094,-0.348366 -12.02312,-2.341545 -3.22249,-0.722496 -7.75311,-1.414749 -10.38385,-2.552185 -4.99715,-1.32647 -4.61363,-0.903183 -8.97372,-2.69622 -8.30663,-2.774834 -7.62465,-2.841866 -4.00488,-1.650554 -2.81357,-0.721993 -6.15674,-2.920028 -5.45698,-2.961941 -4.75635,-2.990303 -4.05296,-3.013382 -3.35611,-3.027031 -2.66185,-3.032806 -1.97534,-3.027234 -1.29982,-3.016513 -0.63419,-2.996132 1.50981,10.503681 2.2267,11.648723 0.49469,2.09533 2.72385,11.375892 3.24235,11.252427 3.75447,11.104843 4.25779,10.935772 4.75026,10.74507 5.23446,10.52755 5.70063,10.29053 6.15937,10.03198 6.60604,9.75425 7.03271,9.45642 7.45043,9.13655 7.84881,8.79899 8.23348,8.44121 8.59929,8.06534 8.94656,7.67627 9.27801,7.26608 9.59115,6.84479 9.880687,6.401 10.152153,5.94815 10.405503,5.48331 10.629936,4.99962 10.841667,4.50639 11.024338,4.00166 2.039776,0.73989 11.353395,3.54034 11.494122,3.00656 11.6110138,2.46878 11.7038329,1.91861 11.7695743,1.36356 2.920532,0.26834 11.957321,0.81094 11.972058,0.24143 11.961677,-0.33637 11.925682,-0.91198 3.3984,-0.38309 11.978904,-1.50665 11.884316,-2.09415 11.768532,-2.67947 11.61983,-3.25843 3.62437,-1.09042 11.52938,-3.86495 11.32727,-4.44285 11.09363,-5.01424 3.5412,-1.75575 10.88894,-5.60361 10.60465,-6.15736 10.28741,-6.7043 3.27753,-2.35637 9.97038,-7.2543 9.60266,-7.77443 9.20891,-8.27831 8.78867,-8.76561 2.85217,-2.85153 8.34345,-9.23178 7.87541,-9.68405 7.38554,-10.11266 2.27915,-3.18318 6.85504,-10.49054 6.32141,-10.87035 5.76807,-11.22487 1.61514,-3.33662 5.17428,-11.49559 4.58811,-11.792303 3.98788,-12.061775 3.37375,-12.303376 0.87326,-3.204292 2.7273,-12.415241 2.15043,-7.635912 0.82817,4.504778 m -428.54438,123.189341 -12.44987,-18.77028 -12.44988,-18.77027 -12.44987,-18.77028 -12.44987,-18.770271 -12.44987,-18.770275 -27.82332,-22.140367 -6.14757,-21.26324 -5.86776,-13.017842 -2.18581,0.01861 -2.52735,2.717182 -0.2192,0.236117 -2.11785,3.006393 -1.47827,3.052668 -0.81901,3.093555 -0.14145,3.126469 1.57802,10.856037 0.44235,2.420773 2.34269,12.157016 2.9009,12.049076 3.45221,11.917313 3.99148,11.76149 4.51946,11.581706 5.04161,11.37564 5.55054,11.15094 6.04637,10.89663 6.52991,10.62639 6.99856,10.32887 7.45291,10.0148 7.89046,9.67842 0.0655,0.074 8.24614,9.24546 8.71937,8.94609 9.10586,8.54912 9.47143,8.1364 9.8243,7.70558 10.1538,7.2554 10.46021,6.79351 10.748855,6.31457 11.017151,5.8208 11.256965,5.31349 11.47905,4.79346 11.67794,4.25971 11.848065,3.71917 2.371719,0.72443 12.172171,3.20895 12.2956041,2.63834 12.3980737,2.05801 12.4683362,1.47458 12.514231,0.88043 3.25597,0.17463 12.685329,0.28512 12.674965,-0.3248 12.639236,-0.93588 12.574891,-1.54831 3.710266,-0.53842 12.598282,-2.18515 12.47776,-2.80209 12.32444,-3.41861 16.03311,-5.32615 12.01706,-4.67358 11.77318,-5.27899 11.50543,-5.87491 3.75064,-1.9921 11.25551,-6.49272 10.92474,-7.06979 10.5658,-7.63991 3.43002,-2.60664 10.19933,-8.20743 9.78557,-8.74303 9.34195,-9.26268 2.94319,-3.10156 8.8696,-9.76015 8.37451,-10.23996 7.85971,-10.69349 2.3197,-3.44001 7.29566,-11.09442 6.73068,-11.50238 6.14538,-11.88242 5.54538,-12.23353 1.57474,-3.51935 4.8952,-12.486523 4.2583,-12.773178 3.60694,-13.031913 0.81201,-3.42376 2.91983,-13.150646 2.24954,-13.335381 0.0558,-0.4682 0.0619,-3.155476 -0.62515,-3.132263 -1.19538,-2.860096 -0.10376,-0.24223 -1.96347,-3.065633 -5.44602,-4.117403 -5.35552,17.668723 -21.09957,26.683995 -23.33253,32.579994 -23.17607,26.94795"
     style="fill:#c2c5d5;stroke:#000000;stroke-opacity:1;stroke-width:8.41130153;stroke-dasharray:none;paint-order:stroke fill markers"
     id="path1"
     sodipodi:nodetypes="cccccccccccccccccccccccccccccccccccccccccccccccccccccccccccccccccccccccccccccccccccccccccccccccccccccccccccccccccccccccccccccccccccccccccccccccccccccccccccccccccccccccccccccccccccccccccccccccccccccccccccccccccccccccccccccccccccccccccccccccccccccccccccccccccccccccccccccccccccc" />
  <path
     d="M72.92134857177734 -67.37406921386719L75.27326965332031 -67.2529067993164L77.3965835571289 -67.13910675048828L79.3296127319336 -67.03142547607422L81.10702514648438 -66.92960357666016L82.75013732910156 -66.83509826660156L84.28123474121094 -66.745361328125L85.71880340576172 -66.6591796875L87.07382202148438 -66.57731628417969L88.36529541015625 -66.50135040283203L89.59748077392578 -66.4306640625L90.78276062011719 -66.36273193359375L91.92871856689453 -66.29766082763672L93.04444885253906 -66.23700714111328L93.09439849853516 -66.26315307617188L94.057373046875 -66.66856384277344L95.1357192993164 -66.75528717041016L96.22293090820313 -66.70764923095703L97.30564880371094 -66.65779113769531L98.3878173828125 -66.61192321777344L99.47410583496094 -66.56501770019531L98.3906478881836 -66.69063568115234L99.47503662109375 -66.56341552734375L100.55191802978516 -66.38125610351563L101.51663970947266 -65.89004516601563L101.56940460205078 -65.85930633544922L102.67350006103516 -65.8216323852539L103.80965423583984 -65.78563690185547L104.98074340820313 -65.74920654296875L106.1959228515625 -65.7115249633789L107.46443176269531 -65.67414855957031L108.79878997802734 -65.63694763183594L110.21109771728516 -65.59700012207031L111.71205139160156 -65.55252838134766L113.32152557373047 -65.50309753417969L115.05802917480469 -65.44944763183594L116.94825744628906 -65.3879623413086L119.0248794555664 -65.31593322753906L121.32160186767578 -65.23140716552734L122.02365112304688 -64.93343353271484L123.40036010742188 -64.74449920654297L126.26718139648438 -64.63056945800781L129.5531768798828 -64.4842758178711L133.3805694580078 -64.30438232421875L135.12921142578125 -64.05091094970703L137.34727478027344 -63.786685943603516L142.7569580078125 -63.46649932861328L146.9572296142578 -63.07115936279297L148.8789825439453 -62.820613861083984L157.34259033203125 -62.19278335571289L158.1139373779297 -62.150596618652344L167.9214630126953 -61.07343673706055L168.8650360107422 -61.057376861572266L179.29884338378906 -59.69333267211914L182.22509765625 -59.27434539794922L189.3511199951172 -58.52878189086914L199.16928100585938 -57.02778244018555L204.04385375976563 -56.245731353759766L208.61660766601563 -55.79027557373047L217.77496337890625 -54.15669250488281L226.6324005126953 -52.44103240966797L235.16615295410156 -50.646888732910156L239.88088989257813 -49.593238830566406L243.2784881591797 -49.23268127441406L251.0325469970703 -47.31476593017578L258.4036865234375 -45.32223892211914L265.3681640625 -43.261173248291016L271.91046142578125 -41.1307373046875L278.0042724609375 -38.93467330932617L283.6293029785156 -36.675594329833984L288.76470947265625 -34.35983657836914L293.3911437988281 -31.988624572753906L297.4852294921875 -29.56829071044922L301.0311279296875 -27.10073471069336L304.0035705566406 -24.59063148498535L306.38543701171875 -22.049062728881836L308.16058349609375 -19.474889755249023L308.21759033203125 -19.328716278076172L309.2624816894531 -17.450077056884766L309.7471923828125 -15.001312255859375L309.58941650390625 -12.379677772521973L309.7530517578125 -15.003802299499512L308.6054382324219 -27.829572677612305L306.80792236328125 -40.626670837402344L304.36041259765625 -53.360252380371094L303.9383850097656 -55.31062698364258L300.8917541503906 -67.77994537353516L297.2156066894531 -80.11773681640625L292.91668701171875 -92.28571319580078L288.0113830566406 -104.2564697265625L282.5075378417969 -115.99151611328125L276.42230224609375 -127.46060180664063L269.7674255371094 -138.63084411621094L262.56390380859375 -149.47201538085938L254.83299255371094 -159.95407104492188L246.59072875976563 -170.0473175048828L237.86207580566406 -179.72500610351563L228.67239379882813 -188.9605255126953L219.0473175048828 -197.72781372070313L209.0126190185547 -206.0009765625L198.59742736816406 -213.76304626464844L187.83087158203125 -220.99192810058594L176.74209594726563 -227.66583251953125L165.36056518554688 -233.7720184326172L153.7240447998047 -239.29525756835938L141.8589630126953 -244.2180633544922L129.802978515625 -248.53182983398438L127.90413665771484 -249.1594696044922L115.52595520019531 -252.90330505371094L103.02030944824219 -256.01483154296875L90.42167663574219 -258.4839172363281L77.76425170898438 -260.30950927734375L65.07913970947266 -261.4908447265625L62.28648376464844 -261.63323974609375L49.480712890625 -262.1742248535156L36.71485137939453 -262.06304931640625L24.027206420898438 -261.3085021972656L11.450043678283691 -259.908203125L8.1758394241333 -259.38970947265625L-4.358787536621094 -257.34283447265625L-16.720808029174805 -254.66741943359375L-28.876636505126953 -251.3730010986328L-40.7987060546875 -247.47201538085938L-44.281761169433594 -246.23684692382813L-56.00007629394531 -241.71859741210938L-67.42617797851563 -236.6232147216797L-78.53670501708984 -230.96310424804688L-81.935546875 -229.055908203125L-92.72599029541016 -222.8349609375L-103.1479263305664 -216.0840301513672L-113.1767578125 -208.82626342773438L-116.30938720703125 -206.31980895996094L-125.92440795898438 -198.5771026611328L-135.1066436767578 -190.36688232421875L-143.83013916015625 -181.71420288085938L-152.08534240722656 -172.64393615722656L-154.78077697753906 -169.66990661621094L-162.5274658203125 -160.22708129882813L-169.7740020751953 -150.4176025390625L-176.5035400390625 -140.264892578125L-178.63592529296875 -136.96530151367188L-184.80897521972656 -126.54499816894531L-190.44732666015625 -115.8331298828125L-195.53982543945313 -104.85752868652344L-197.024169921875 -101.40420532226563L-201.5310516357422 -90.27195739746094L-205.48240661621094 -78.93099975585938L-208.86968994140625 -67.40801239013672L-211.69207763671875 -55.726646423339844L-212.45484924316406 -52.41510009765625L-214.68605041503906 -40.718658447265625L-216.35214233398438 -28.919261932373047L-217.37913513183594 -17.767854690551758L-216.70278930664063 -20.314302444458008L-215.40127563476563 -22.837190628051758L-213.48275756835938 -25.326705932617188L-213.34255981445313 -25.456993103027344L-210.92462158203125 -28.331655502319336L-207.81866455078125 -30.8918514251709L-204.17196655273438 -33.25210952758789L-199.9875030517578 -35.55682373046875L-195.28814697265625 -37.80758285522461L-190.09034729003906 -39.99543380737305L-184.4195556640625 -42.119956970214844L-190.09535217285156 -39.99827194213867L-184.43209838867188 -41.973140716552734L-178.67178344726563 -43.39195251464844L-178.3389892578125 -43.50930404663086L-171.76327514648438 -45.508087158203125L-164.77239990234375 -47.43407440185547L-157.38290405273438 -49.29062271118164L-149.61729431152344 -51.06986618041992L-141.49285888671875 -52.76992416381836L-133.03369140625 -54.39130783081055L-124.25856018066406 -55.930328369140625L-115.18600463867188 -57.38782501220703L-105.8357162475586 -58.759769439697266L-96.22711944580078 -60.04555130004883L-86.3778305053711 -61.24356460571289L-76.3069076538086 -62.35601806640625L-66.0346908569336 -63.378883361816406L-61.656436920166016 -63.37527084350586L-55.59080505371094 -63.90248107910156L-44.896427154541016 -64.76718139648438L-34.051021575927734 -65.54255676269531L-23.07065773010254 -66.22636413574219L-17.70014762878418 -66.22626495361328L-11.974485397338867 -66.51470184326172L-0.6738278269767761 -67.03876495361328L7.389679431915283 -67.09369659423828L10.699460983276367 -67.22702026367188L22.29584503173828 -67.58829498291016L23.325119018554688 -67.51697540283203L34.05066680908203 -67.66802215576172L34.87700653076172 -67.63902282714844L43.98283004760742 -67.48182678222656L46.05105972290039 -67.55272674560547L50.48854064941406 -67.56175231933594L56.2184944152832 -67.38660430908203L58.56552505493164 -67.44647216796875L60.384403228759766 -67.53992462158203L64.36724090576172 -67.37353515625L67.79303741455078 -67.22233581542969L70.77632141113281 -67.07707214355469L72.2084732055664 -67.1406021118164zM-233.04623413085938 -16.49110984802246L-232.50778198242188 -13.72226619720459L-231.2588348388672 -10.936300277709961L-229.285400390625 -8.141753196716309L-226.57916259765625 -5.344784259796143L-223.1317901611328 -2.5538229942321777L-218.93081665039063 0.22312913835048676L-213.97789001464844 2.9782299995422363L-208.2678985595703 5.702341556549072L-201.80068969726563 8.386327743530273L-198.71728515625 9.512944221496582L-194.53965759277344 11.024252891540527L-186.49627685546875 13.606478691101074L-177.7133026123047 16.121305465698242L-168.20913696289063 18.559648513793945L-163.19944763183594 19.713409423828125L-157.93252563476563 20.91567039489746L-146.90594482421875 23.18059730529785L-138.67515563964844 24.70206069946289L-135.16526794433594 25.344112396240234L-122.6596908569336 27.401775360107422L-111.79856872558594 25.85405921936035L-111.7132568359375 25.512325286865234L-110.30917358398438 21.05586814880371L-108.6854248046875 16.68515396118164L-106.8443374633789 12.409178733825684L-104.79109954833984 8.239933967590332L-102.53099060058594 4.186383247375488L-100.0693359375 0.25758638978004456L-97.40837097167969 -3.5340659618377686L-94.55345916748047 -7.18247652053833L-91.51302337646484 -10.678545951843262L-88.29547119140625 -14.00998592376709L-84.90625 -17.17049789428711L-81.35094451904297 -20.15372657775879L-77.64418029785156 -22.94750213623047L-73.78555297851563 -25.54818344116211L-69.78990173339844 -27.949722290039063L-65.66606140136719 -30.142648696899414L-61.422935485839844 -32.12364959716797L-57.069488525390625 -33.88628005981445L-52.61787796020508 -35.424251556396484L-48.07726287841797 -36.73424530029297L-43.459930419921875 -37.813053131103516L-38.77519989013672 -38.65736770629883L-34.03865432739258 -39.264156341552734L-29.256671905517578 -39.633140563964844L-24.444988250732422 -39.7581901550293L-19.613235473632813 -39.642364501953125L-14.77421760559082 -39.285770416259766L-9.940800666809082 -38.688568115234375L-5.122788429260254 -37.84760665893555L-0.3363109230995178 -36.7696647644043L4.411840438842773 -35.45471954345703L9.105448722839355 -33.90647506713867L13.73452091217041 -32.12835693359375L18.285884857177734 -30.124069213867188L22.746360778808594 -27.89735221862793L27.112152099609375 -25.454700469970703L31.363794326782227 -22.803497314453125L35.49433898925781 -19.947406768798828L39.4905891418457 -16.89675521850586L43.34567642211914 -13.65852165222168L47.04954528808594 -10.236668586730957L50.58908462524414 -6.644932746887207L53.957489013671875 -2.8904402256011963L57.14800262451172 1.0196603536605835L60.14762496948242 5.071481227874756L62.95289611816406 9.25478458404541L65.55717468261719 13.562307357788086L67.9508285522461 17.9802303314209L70.1305160522461 22.501413345336914L72.08991241455078 27.105899810791016L73.82264709472656 31.789501190185547L75.32565307617188 36.53875732421875L75.41738891601563 36.900360107421875L77.98796844482422 39.304481506347656L94.37783813476563 38.916908264160156L99.15554809570313 38.74982833862305L110.44154357910156 38.34224319458008L126.20068359375 37.58826446533203L134.0619354248047 37.11748123168945L141.58499145507813 36.658447265625L156.54248046875 35.556861877441406L171.08595275878906 34.29310607910156L185.17306518554688 32.87295150756836L192.94424438476563 31.975194931030273L198.7210235595703 31.30147361755371L211.67205810546875 29.58527183532715L224.0443572998047 27.73455047607422L235.80023193359375 25.7576847076416L246.91041564941406 23.664113998413086L257.3458251953125 21.46169090270996L267.0818786621094 19.15973472595215L276.09942626953125 16.76822853088379L284.3823547363281 14.295014381408691L291.9152526855469 11.750954627990723L298.69146728515625 9.145009994506836L304.7064514160156 6.485846042633057L309.95599365234375 3.7836520671844482L314.4384460449219 1.0463875532150269L314.73504638671875 0.826691210269928L318.1495666503906 -1.7172942161560059L321.1043701171875 -4.498229026794434L323.3153991699219 -7.288438320159912L324.79266357421875 -10.079931259155273L325.54638671875 -12.865161895751953L325.59283447265625 -15.636713027954102L325.5786437988281 -16.01104736328125L324.38397216796875 -29.607250213623047L322.4987487792969 -43.174720764160156L319.92535400390625 -56.675113677978516L316.6668395996094 -70.07259368896484L316.1454162597656 -71.93209075927734L312.263427734375 -85.00856018066406L307.7235107421875 -97.90983581542969L302.533203125 -110.59979248046875L296.7088928222656 -123.03907775878906L290.26507568359375 -135.19969177246094L283.2193298339844 -147.04241943359375L275.5868225097656 -158.53375244140625L267.3922119140625 -169.64590454101563L258.65740966796875 -180.34283447265625L249.40481567382813 -190.59730529785156L239.66317749023438 -200.38233947753906L229.45558166503906 -209.66859436035156L218.81704711914063 -218.43255615234375L207.77130126953125 -226.6514892578125L196.3565216064453 -234.2999725341797L184.59695434570313 -241.36190795898438L172.53370666503906 -247.81854248046875L160.1939239501953 -253.6547088623047L147.61590576171875 -258.85302734375L145.8163299560547 -259.5718994140625L132.85922241210938 -264.1846618652344L119.73683166503906 -268.1319885253906L106.47885131835938 -271.4035949707031L93.12317657470703 -273.9953308105469L79.70723724365234 -275.9035339355469L76.90287780761719 -276.1604919433594L63.31754684448242 -277.39715576171875L49.743896484375 -277.93896484375L36.2183837890625 -277.79205322265625L22.77688217163086 -276.95721435546875L9.454704284667969 -275.44403076171875L5.969755172729492 -275.00860595703125L-7.307930946350098 -272.80609130859375L-20.398099899291992 -269.93731689453125L-33.269752502441406 -266.412353515625L-36.927978515625 -265.23577880859375L-49.613643646240234 -261.0451354980469L-62.018333435058594 -256.22576904296875L-74.11007690429688 -250.7906036376953L-85.86033630371094 -244.76119995117188L-89.51670837402344 -242.8402557373047L-100.93174743652344 -236.21607971191406L-111.95240783691406 -229.0302734375L-122.55187225341797 -221.3121795654297L-125.94226837158203 -218.74636840820313L-136.10702514648438 -210.50962829589844L-145.80593872070313 -201.78326416015625L-155.02149963378906 -192.59011840820313L-157.9800567626953 -189.49481201171875L-166.6757354736328 -179.8797149658203L-174.85635375976563 -169.85276794433594L-182.50013732910156 -159.4380645751953L-184.88938903808594 -155.95904541015625L-191.95449829101563 -145.23081970214844L-198.462890625 -134.17015075683594L-204.4039764404297 -122.80841827392578L-206.12107849121094 -119.11695861816406L-211.44418334960938 -107.55563354492188L-216.1884307861328 -95.74888610839844L-220.34056091308594 -83.72367858886719L-223.89779663085938 -71.50676727294922L-224.8505859375 -67.91217041015625L-227.78282165527344 -55.648277282714844L-230.11573791503906 -43.25083923339844L-231.8512725830078 -30.745590209960938L-232.89266967773438 -19.236835479736328z"
     style="fill:#DA3737;stroke:#000000;stroke-opacity:1;stroke-width:8.41130153;stroke-dasharray:none;paint-order:stroke fill markers"
     id="path2" />
  <path
     d="M-2.717880964279175 143.3038787841797L4.650369644165039 141.23663330078125L11.745418548583984 138.4354248046875L18.49717903137207 134.9242706298828L24.840320587158203 130.73324584960938L30.71272087097168 125.90036010742188L36.05397415161133 120.46814727783203L43.55562210083008 111.86222076416016L48.24147033691406 105.97319030761719L52.30411911010742 99.60084533691406L55.701690673828125 92.80476379394531L58.397666931152344 85.6512451171875L60.36347198486328 78.20954132080078L61.575435638427734 70.55162048339844L62.02130889892578 62.752601623535156L61.69245147705078 54.89006805419922L60.59197998046875 47.042945861816406L58.726802825927734 39.28929901123047L56.11576461791992 31.706600189208984L52.78326416015625 24.3712215423584L48.7624397277832 17.358476638793945L44.09276580810547 10.73826789855957L38.82161331176758 4.576614856719971L33.000919342041016 -1.0630197525024414L26.69111442565918 -6.125331878662109L19.955331802368164 -10.559502601623535L12.860907554626465 -14.322461128234863L5.480768203735352 -17.377197265625L-2.1106972694396973 -19.69540023803711L-9.837807655334473 -21.254253387451172L-17.623760223388672 -22.042753219604492L-25.390735626220703 -22.05362892150879L-33.06162643432617 -21.29053497314453L-40.56248474121094 -19.764007568359375L-47.81942367553711 -17.491182327270508L-54.76258087158203 -14.497401237487793L-61.326133728027344 -10.815286636352539L-70.65310668945313 -4.360803604125977L-76.86903381347656 0.03755124658346176L-82.57653045654297 5.051377296447754L-87.72389221191406 10.630988121032715L-92.2647476196289 16.719005584716797L-96.15792083740234 23.256107330322266L-99.36970520019531 30.179325103759766L-101.87203979492188 37.42058181762695L-103.64479064941406 44.910560607910156L-104.67231750488281 52.57887649536133L-104.94972229003906 60.35363006591797L-104.4748306274414 68.16177368164063L-103.2558822631836 75.93020629882813L-101.30363464355469 83.58760070800781L-98.6391372680664 91.06388092041016L-95.28740692138672 98.29039001464844L-91.28055572509766 105.19953155517578L-86.65550231933594 111.72884368896484L-81.45549774169922 117.81898498535156L-75.72722625732422 123.4123764038086L-69.524658203125 128.458251953125L-62.903831481933594 132.90907287597656L-55.924434661865234 136.72340393066406L-48.652400970458984 139.86427307128906L-41.15216827392578 142.30186462402344L-33.49469757080078 144.01004028320313L-25.749732971191406 144.97311401367188L-17.989919662475586 145.17774963378906L-10.288505554199219 144.62127685546875z"
     style="fill:#C2C5D5;stroke:#000000;stroke-opacity:1;stroke-width:8.41130153;stroke-dasharray:none;paint-order:stroke fill markers"
     id="path5" />
</svg>
