<?xml version="1.0" encoding="UTF-8" standalone="no"?>
<svg
   height="215.89999999999998mm"
   viewBox="-500, -500, 1000, 1000"
   width="279.4mm"
   version="1.1"
   id="svg55"
   sodipodi:docname="pokeball.glb.svg"
   inkscape:version="1.4.2 (2aeb623e1d, 2025-05-12)"
   xmlns:inkscape="http://www.inkscape.org/namespaces/inkscape"
   xmlns:sodipodi="http://sodipodi.sourceforge.net/DTD/sodipodi-0.dtd"
   xmlns="http://www.w3.org/2000/svg"
   xmlns:svg="http://www.w3.org/2000/svg">
  <defs
     id="defs55" />
  <sodipodi:namedview
     id="namedview55"
     pagecolor="#505050"
     bordercolor="#ffffff"
     borderopacity="1"
     inkscape:showpageshadow="0"
     inkscape:pageopacity="0"
     inkscape:pagecheckerboard="1"
     inkscape:deskcolor="#505050"
     inkscape:document-units="mm"
     inkscape:zoom="1.3847508"
     inkscape:cx="422.0976"
     inkscape:cy="474.81467"
     inkscape:window-width="1920"
     inkscape:window-height="1008"
     inkscape:window-x="0"
     inkscape:window-y="0"
     inkscape:window-maximized="1"
     inkscape:current-layer="svg55" />
  <path
     d="M-283.40 79.32L-285.22 60.53L-292.78 37.58L-292.80 18.54L-291.90 -0.60L-297.54 -4.30L-302.18 -8.02L-305.83 -11.75L-308.51 -15.48L-310.24 -19.21L-311.02 -22.91L-311.92 -4.62L-311.89 13.63L-310.94 31.80L-309.08 49.83L-306.31 67.69L-305.51 71.99L-303.78 76.31L-301.10 80.65L-297.46 84.98L-292.85 89.30L-287.27 93.59L-280.71 97.84z"
     style="fill:#040404"
     id="path1" />
  <path
     d="M-317.50 33.70L-317.81 34.03L-320.77 38.24L-322.84 42.52L-323.99 46.85L-324.19 51.22L-321.98 66.42L-321.36 69.81L-318.08 86.83L-314.02 103.70L-309.18 120.38L-303.59 136.85L-297.27 153.06L-290.21 168.99L-282.44 184.60L-273.97 199.86L-264.83 214.73L-255.03 229.19L-244.60 243.21L-233.55 256.76L-233.46 256.87L-221.92 269.81L-209.71 282.34L-196.96 294.30L-183.70 305.70L-169.95 316.48L-155.73 326.64L-141.09 336.15L-126.04 344.99L-110.62 353.14L-94.86 360.58L-78.78 367.29L-62.44 373.25L-45.85 378.46L-42.53 379.48L-25.49 383.97L-8.27 387.66L9.08 390.54L26.54 392.61L44.06 393.84L48.62 394.08L66.38 394.48L84.12 394.03L101.82 392.72L119.42 390.55L124.62 389.80L142.25 386.74L159.72 382.82L176.98 378.03L199.42 370.57L216.25 364.03L232.73 356.64L248.84 348.41L254.09 345.63L269.85 336.54L285.14 326.64L299.93 315.94L304.74 312.29L319.01 300.80L332.71 288.56L345.79 275.59L349.91 271.25L362.33 257.59L374.05 243.25L385.06 228.28L388.31 223.47L398.52 207.93L407.94 191.83L416.55 175.19L424.31 158.07L426.51 153.14L433.37 135.66L439.33 117.78L444.38 99.53L445.52 94.74L449.60 76.33L452.75 57.66L452.83 57.00L452.92 52.59L452.04 48.20L450.37 44.20L450.22 43.86L447.48 39.56L443.83 35.33L439.33 31.17L433.99 27.09L414.10 25.43L419.02 29.24L423.14 33.12L426.44 37.07L428.90 41.08L428.98 41.29L430.32 46.15L431.00 50.26L430.76 54.41L429.59 58.58L427.48 62.75L424.40 66.93L420.36 71.09L415.74 73.94L437.27 79.17L434.10 98.13L427.94 101.98L423.83 120.62L418.79 138.93L412.84 156.88L405.98 174.42L398.99 177.58L391.33 194.55L382.84 211.03L373.54 226.98L365.85 229.26L355.88 244.50L345.16 259.15L333.72 273.17L325.59 274.35L313.64 287.56L301.06 300.08L287.87 311.91L279.55 311.85L266.02 322.78L251.97 332.98L237.43 342.43L229.25 341.03L214.55 349.55L199.45 357.30L183.98 364.26L176.24 361.50L160.80 367.55L145.07 372.81L129.10 377.27L112.93 380.92L106.35 376.76L90.41 379.56L74.34 381.56L58.19 382.79L41.97 383.22L36.99 377.89L21.20 377.57L5.44 376.48L-10.28 374.65L-25.91 372.07L-41.43 368.76L-43.98 362.70L-58.87 358.80L-73.58 354.20L-88.08 348.93L-102.34 342.99L-116.33 336.40L-130.02 329.18L-143.39 321.34L-156.40 312.90L-169.02 303.88L-167.03 298.89L-178.83 289.64L-190.21 279.87L-201.16 269.61L-211.63 258.86L-221.62 247.66L-231.10 236.04L-240.05 224.00L-248.46 211.59L-256.30 198.83L-263.55 185.73L-268.97 186.71L-275.87 172.85L-282.13 158.70L-287.74 144.30L-292.69 129.68L-296.97 114.87L-300.56 99.90L-303.46 84.80L-304.46 77.86L-282.99 73.51L-288.67 69.29L-293.36 65.05L-297.09 60.80L-299.86 56.57L-301.68 52.34L-302.56 48.15L-302.53 43.99L-301.61 39.88L-299.81 35.82L-297.15 31.83L-296.95 31.61L-293.54 28.91L-309.27 25.84L-313.96 29.90z"
     style="fill:#6A6B75"
     id="path2" />
  <path
     d="M419.22 42.93L418.07 61.98L416.01 80.81L408.96 84.90L406.04 103.54L413.04 99.36L419.06 95.13L424.08 90.85L428.11 86.54L431.17 82.21L433.27 77.88L434.42 73.55L437.43 55.56L439.52 37.38L440.69 19.04L440.86 15.06L441.09 -3.24L440.20 -17.87L439.08 -14.14L436.99 -10.41L433.93 -6.68L429.88 -2.96L424.82 0.73L418.76 4.38L419.45 23.71z"
     style="fill:#040404"
     id="path3" />
  <path
     d="M334.52 30.85L335.05 51.20L334.83 71.36L320.05 74.35L319.14 94.34L317.54 114.00L302.03 116.98L299.87 136.31L315.26 133.27L329.82 130.04L343.51 126.65L356.30 123.11L368.17 119.42L370.85 100.44L372.73 81.12L373.78 61.51L384.86 57.97L385.08 38.26L384.45 18.39L373.39 21.68L361.36 24.86L348.40 27.92z"
     style="fill:#080808"
     id="path12" />
  <path
     d="M-220.96 121.79L-207.73 125.39L-193.62 128.84L-178.66 132.12L-180.63 112.88L-181.95 93.25L-197.79 70.24L-197.78 50.12L-197.06 29.81L-211.37 26.83L-224.78 23.73L-237.28 20.50L-248.83 17.18L-249.66 37.00L-249.65 56.67L-237.27 79.82L-235.67 99.11L-233.29 118.06z"
     style="fill:#080808"
     id="path10" />
  <path
     d="M-302.78 -58.47L-298.37 -73.50L-293.21 -88.28L-297.43 -95.96L-291.39 -110.88L-284.62 -125.49L-277.12 -139.73L-268.90 -153.59L-271.47 -162.37L-262.34 -176.15L-252.51 -189.45L-242.00 -202.25L-243.07 -211.39L-231.66 -223.93L-219.60 -235.89L-206.91 -247.23L-206.53 -256.40L-192.99 -267.31L-178.87 -277.54L-164.18 -287.04L-162.48 -295.94L-147.04 -304.85L-131.10 -312.97L-114.70 -320.28L-111.85 -328.65L-94.81 -335.22L-77.39 -340.93L-59.61 -345.74L-55.84 -353.36L-37.58 -357.32L-19.06 -360.35L-0.32 -362.43L18.59 -363.56L23.13 -370.28L42.29 -370.45L61.53 -369.64L80.78 -367.85L100.01 -365.08L104.92 -370.78L124.15 -367.02L143.24 -362.27L162.14 -356.56L180.79 -349.89L199.16 -342.27L217.19 -333.71L222.11 -338.36L239.76 -328.90L256.97 -318.54L273.68 -307.33L289.85 -295.28L305.42 -282.44L320.37 -268.83L334.64 -254.49L348.20 -239.46L360.99 -223.79L373.00 -207.51L384.19 -190.68L394.51 -173.34L403.96 -155.53L412.50 -137.31L420.11 -118.74L426.77 -99.85L421.58 -95.50L427.28 -76.40L432.00 -57.09L435.73 -37.63L438.47 -18.09L440.21 1.46L440.63 1.16L445.41 -2.40L449.55 -6.30L452.64 -10.20L454.71 -14.11L455.76 -18.01L455.83 -21.89L455.81 -22.42L454.14 -41.45L451.50 -60.44L447.90 -79.35L443.33 -98.10L442.60 -100.70L437.17 -119.01L430.81 -137.07L423.55 -154.84L415.39 -172.25L406.37 -189.28L396.51 -205.86L385.82 -221.95L374.35 -237.50L362.12 -252.48L349.17 -266.84L335.53 -280.54L321.24 -293.54L306.34 -305.81L290.88 -317.31L274.90 -328.02L258.44 -337.91L241.55 -346.95L224.27 -355.12L206.66 -362.39L204.14 -363.40L186.00 -369.86L167.63 -375.38L149.07 -379.97L130.37 -383.59L111.59 -386.26L107.66 -386.62L88.64 -388.36L69.64 -389.11L50.71 -388.91L31.89 -387.74L13.24 -385.62L8.36 -385.01L-10.23 -381.93L-28.56 -377.91L-46.58 -372.98L-51.70 -371.33L-69.46 -365.46L-86.83 -358.72L-103.75 -351.11L-120.20 -342.67L-125.32 -339.98L-141.30 -330.70L-156.73 -320.64L-171.57 -309.84L-176.32 -306.24L-190.55 -294.71L-204.13 -282.50L-217.03 -269.63L-221.17 -265.29L-233.35 -251.83L-244.80 -237.79L-255.50 -223.21L-258.85 -218.34L-268.74 -203.32L-277.85 -187.84L-286.17 -171.93L-288.57 -166.76L-296.02 -150.58L-302.66 -134.05L-308.48 -117.21L-313.46 -100.11L-314.79 -95.08L-318.90 -77.91L-322.16 -60.55L-324.59 -43.04L-326.05 -26.93L-326.26 -23.09L-325.51 -19.21L-323.76 -15.31L-321.00 -11.40L-317.21 -7.48L-312.38 -3.58L-306.50 0.31L-305.86 -6.63L-303.73 -21.71L-309.40 -27.81L-306.46 -43.23z"
     style="fill:#4D0F0F"
     id="path4" />
  <path
     d="M-256.13 86.94L-260.07 85.93L-280.60 90.86z"
     style="fill:#9698A5"
     id="path5" />
  <path
     d="M-181.95 93.25L-180.63 112.88L-178.66 132.12L-162.91 135.23L-160.46 154.07L-144.12 157.04L-141.31 175.40L-124.49 178.19L-121.41 195.98L-104.23 198.57L-101.01 215.71L-83.60 218.07L-65.69 220.19L-44.89 238.46L-26.57 240.06L-7.93 241.39L10.96 242.44L9.84 226.03L29.37 226.80L28.80 209.64L8.86 208.87L-10.88 207.82L-30.34 206.49L-31.87 188.63L-51.33 187.05L-70.39 185.20L-88.97 183.10L-109.37 162.34L-129.15 140.87L-130.72 121.45L-131.75 101.60L-132.25 81.40L-132.22 60.91L-149.76 58.47L-149.14 37.85L-147.93 17.09L-146.14 -3.74L-143.77 -24.56L-160.16 -26.76L-162.70 -6.04L-164.61 14.68L-165.90 35.33L-181.89 32.65L-197.06 29.81L-197.78 50.12L-197.79 70.24z"
     style="fill:#080808"
     id="path15" />
  <path
     d="M-280.71 97.84L-273.16 102.04L-264.64 106.18L-255.15 110.24L-244.69 114.20L-233.29 118.06L-235.67 99.11L-237.27 79.82L-249.65 56.67L-249.66 37.00L-248.83 17.18L-259.42 13.76L-269.03 10.26L-277.65 6.69L-285.27 3.07L-291.90 -0.60L-292.80 18.54L-292.78 37.58L-285.22 60.53L-283.40 79.32z"
     style="fill:#070707"
     id="path6" />
  <path
     d="M394.53 15.00L384.45 18.39L385.08 38.26L384.86 57.97L373.78 61.51L372.73 81.12L370.85 100.44L368.17 119.42L379.10 115.60L389.06 111.68L398.04 107.65L406.04 103.54L408.96 84.90L416.01 80.81L418.07 61.98L419.22 42.93L419.45 23.71L418.76 4.38L411.69 7.98L403.61 11.53z"
     style="fill:#070707"
     id="path7" />
  <path
     d="M157.66 -321.33L175.41 -313.92L192.84 -305.62L209.87 -296.43L226.49 -286.39L242.62 -275.53L258.23 -263.86L273.28 -251.43L287.71 -238.26L301.50 -224.38L314.60 -209.85L326.97 -194.70L338.58 -178.97L349.40 -162.70L359.40 -145.94L368.55 -128.74L376.82 -111.15L384.21 -93.21L390.68 -74.98L396.22 -56.50L400.82 -37.82L390.43 -32.54L394.04 -14.02L396.71 4.58L398.14 20.01L408.68 16.45L418.17 12.80L426.59 9.08L433.94 5.30L440.21 1.46L438.47 -18.09L435.73 -37.63L432.00 -57.09L427.28 -76.40L421.58 -95.50L426.77 -99.85L420.11 -118.74L412.50 -137.31L403.96 -155.53L394.51 -173.34L384.19 -190.68L373.00 -207.51L360.99 -223.79L348.20 -239.46L334.64 -254.49L320.37 -268.83L305.42 -282.44L289.85 -295.28L273.68 -307.33L256.97 -318.54L239.76 -328.90L222.11 -338.36L217.19 -333.71L199.16 -342.27L180.79 -349.89L162.14 -356.56L143.24 -362.27L124.15 -367.02L104.92 -370.78L100.01 -365.08L80.78 -367.85L61.53 -369.64L42.29 -370.45L23.13 -370.28L18.59 -363.56L-0.32 -362.43L-19.06 -360.35L-37.58 -357.32L-55.84 -353.36L-59.61 -345.74L-77.39 -340.93L-94.81 -335.22L-111.85 -328.65L-114.70 -320.28L-131.10 -312.97L-147.04 -304.85L-162.48 -295.94L-164.18 -287.04L-178.87 -277.54L-192.99 -267.31L-206.53 -256.40L-206.91 -247.23L-219.60 -235.89L-231.66 -223.93L-243.07 -211.39L-242.00 -202.25L-252.51 -189.45L-262.34 -176.15L-271.47 -162.37L-268.90 -153.59L-277.12 -139.73L-284.62 -125.49L-291.39 -110.88L-297.43 -95.96L-293.21 -88.28L-298.37 -73.50L-302.78 -58.47L-306.46 -43.23L-309.40 -27.81L-303.73 -21.71L-305.86 -6.63L-306.50 0.31L-299.57 4.17L-291.58 7.98L-282.52 11.74L-278.20 13.32L-272.36 15.43L-261.09 19.05L-259.87 10.73L-270.70 4.05L-268.25 -8.50L-265.19 -20.90L-261.53 -33.12L-257.26 -45.12L-252.41 -56.89L-266.43 -54.33L-261.34 -66.73L-255.64 -78.84L-249.33 -90.65L-242.43 -102.12L-249.55 -113.35L-241.73 -124.99L-233.33 -136.22L-224.34 -147.02L-229.54 -159.27L-219.61 -170.05L-209.12 -180.32L-198.08 -190.04L-201.31 -202.93L-189.34 -212.46L-176.86 -221.37L-163.89 -229.64L-165.17 -242.78L-151.30 -250.67L-137.00 -257.85L-122.29 -264.30L-121.70 -277.33L-106.18 -283.22L-90.30 -288.32L-74.11 -292.60L-71.84 -305.20L-54.95 -308.77L-37.83 -311.48L-20.50 -313.31L-3.03 -314.26L1.10 -326.18L19.07 -326.26L37.11 -325.43L55.17 -323.66L60.44 -334.58L78.82 -331.87L97.11 -328.22L115.27 -323.65L133.25 -318.14L151.00 -311.73z"
     style="fill:#972424"
     id="path8" />
  <path
     d="M-143.26 234.32L-150.87 227.81L-158.18 220.97L-165.19 213.80L-171.86 206.33L-178.19 198.56L-184.17 190.52L-189.77 182.23L-195.00 173.70L-199.83 164.95L-204.25 156.01L-208.26 146.88L-211.85 137.60L-215.00 128.18L-217.71 118.64L-219.55 110.81L-226.88 108.90L-233.85 107.06L-247.07 103.18L-259.29 99.18L-270.49 95.06L-268.32 106.51L-265.31 119.15L-261.72 131.65L-257.56 144.00L-252.83 156.17L-243.10 154.49L-238.11 165.79L-232.62 176.88L-226.62 187.71L-220.14 198.28L-213.19 208.55L-205.78 218.51L-197.94 228.13L-189.67 237.39L-181.00 246.28L-171.94 254.77L-162.52 262.84L-152.75 270.48L-142.66 277.67L-132.26 284.39L-135.60 293.56L-124.31 300.16L-112.74 306.24L-100.92 311.78L-88.89 316.77L-76.65 321.19L-64.23 325.03L-51.68 328.29L-39.00 330.95L-36.83 341.23L-23.40 343.41L-9.91 344.94L3.62 345.83L17.16 346.06L30.67 345.65L36.21 355.17L50.30 354.06L64.30 352.26L78.18 349.77L91.90 346.59L99.78 354.78L113.90 350.78L127.79 346.07L141.43 340.67L154.77 334.57L164.52 341.05L178.05 334.04L191.20 326.34L203.95 317.95L214.66 322.75L227.40 313.42L239.66 303.42L251.41 292.77L262.71 295.83L274.25 284.24L285.21 272.04L295.54 259.23L307.07 260.58L317.02 246.87L326.27 232.62L334.79 217.84L346.20 217.57L354.17 201.98L361.33 185.93L367.68 169.46L378.67 167.73L384.31 150.56L389.07 133.04L392.93 115.22L403.23 112.27L405.88 96.22L395.38 100.27L383.85 104.21L371.30 108.02L357.75 111.68L356.03 122.45L352.47 139.13L348.08 155.54L334.11 156.41L329.08 172.03L323.26 187.30L316.68 202.19L302.47 201.18L295.42 215.18L287.68 228.74L279.27 241.83L265.17 238.81L256.47 250.95L247.17 262.58L223.72 268.59L213.76 278.72L203.31 288.28L179.70 290.15L168.88 298.18L157.66 305.63L134.70 303.42L123.41 309.37L111.84 314.72L100.00 319.48L90.28 308.65L78.90 312.59L67.32 315.95L55.58 318.72L43.71 320.89L36.76 308.43L25.52 309.94L14.21 310.90L2.85 311.29L-8.54 311.14L-12.33 297.57L-22.92 296.93L-33.50 295.78L-44.03 294.12L-54.50 291.96L-64.86 289.30L-75.12 286.15L-85.23 282.52L-83.17 269.27L-92.36 265.50L-101.37 261.30L-110.20 256.69L-118.82 251.67L-127.22 246.27L-135.37 240.48z"
     style="fill:#FFFFFF"
     id="path9" />
  <path
     d="M7.33 172.45L8.02 190.99L-12.06 189.95L-31.87 188.63L-30.34 206.49L-10.88 207.82L8.86 208.87L28.80 209.64L29.37 226.80L49.03 227.29L48.86 210.12L68.98 210.32L89.08 210.22L89.66 192.33L90.16 173.78L69.40 173.87L48.63 173.68L27.91 173.20z"
     style="fill:#080808"
     id="path22" />
  <path
     d="M-141.31 175.40L-121.41 195.98L-124.49 178.19zM-144.12 157.04L-160.46 154.07L-141.31 175.40zM-104.23 198.57L-121.41 195.98L-101.01 215.71z"
     style="fill:#080808"
     id="path11" />
  <path
     d="M-37.83 -311.48L-54.95 -308.77L-71.84 -305.20L-74.11 -292.60L-90.30 -288.32L-106.18 -283.22L-121.70 -277.33L-122.29 -264.30L-137.00 -257.85L-151.30 -250.67L-165.17 -242.78L-163.89 -229.64L-176.86 -221.37L-189.34 -212.46L-201.31 -202.93L-198.08 -190.04L-209.12 -180.32L-219.61 -170.05L-229.54 -159.27L-224.34 -147.02L-233.33 -136.22L-241.73 -124.99L-249.55 -113.35L-242.43 -102.12L-249.33 -90.65L-255.64 -78.84L-261.34 -66.73L-266.43 -54.33L-252.41 -56.89L-257.26 -45.12L-261.53 -33.12L-265.19 -20.90L-268.25 -8.50L-270.70 4.05L-259.87 10.73L-261.09 19.05L-248.80 22.57L-235.49 25.98L-228.48 27.60L-221.11 29.28L-205.67 32.45L-219.55 21.55L-217.17 12.16L-214.33 2.91L-211.04 -6.17L-207.30 -15.06L-219.94 -25.83L-215.43 -35.26L-210.43 -44.44L-204.98 -53.35L-199.08 -61.97L-209.32 -75.34L-202.52 -84.29L-195.26 -92.87L-187.56 -101.08L-195.55 -115.89L-186.89 -124.24L-177.79 -132.13L-168.27 -139.56L-173.89 -155.39L-163.39 -162.77L-152.49 -169.61L-141.22 -175.88L-144.42 -192.30L-132.18 -198.33L-119.60 -203.73L-106.70 -208.49L-107.53 -225.08L-93.72 -229.41L-79.65 -233.02L-65.36 -235.93L-63.91 -252.28L-48.80 -254.58L-33.52 -256.10L-18.11 -256.84L-14.58 -272.59L1.51 -272.58L17.66 -271.74L33.82 -270.08L39.17 -284.91L55.84 -282.37L72.45 -278.98L88.93 -274.75L105.25 -269.69L112.59 -283.21L129.18 -277.16L145.52 -270.28L161.54 -262.58L177.22 -254.08L192.50 -244.79L207.34 -234.75L216.97 -246.17L231.72 -235.12L245.92 -223.35L259.56 -210.89L272.58 -197.77L284.96 -184.04L296.66 -169.71L307.63 -154.85L317.87 -139.47L327.33 -123.64L336.00 -107.39L323.35 -99.47L331.00 -83.28L337.84 -66.76L343.83 -49.98L348.98 -32.97L353.27 -15.78L356.69 1.54L344.77 23.76L345.67 33.13L360.28 30.05L373.91 26.82L386.54 23.48L398.14 20.01L396.71 4.58L394.04 -14.02L390.43 -32.54L400.82 -37.82L396.22 -56.50L390.68 -74.98L384.21 -93.21L376.82 -111.15L368.55 -128.74L359.40 -145.94L349.40 -162.70L338.58 -178.97L326.97 -194.70L314.60 -209.85L301.50 -224.38L287.71 -238.26L273.28 -251.43L258.23 -263.86L242.62 -275.53L226.49 -286.39L209.87 -296.43L192.84 -305.62L175.41 -313.92L157.66 -321.33L151.00 -311.73L133.25 -318.14L115.27 -323.65L97.11 -328.22L78.82 -331.87L60.44 -334.58L55.17 -323.66L37.11 -325.43L19.07 -326.26L1.10 -326.18L-3.03 -314.26L-20.50 -313.31z"
     style="fill:#A92929"
     id="path13" />
  <path
     d="M279.27 241.83L287.68 228.74L295.42 215.18L302.47 201.18L316.68 202.19L323.26 187.30L329.08 172.03L334.11 156.41L348.08 155.54L352.47 139.13L356.03 122.45L357.75 111.68L343.23 115.19L327.77 118.52L311.42 121.67L310.60 126.97L307.45 142.07L303.54 156.92L287.01 156.54L282.58 170.51L277.46 184.18L271.66 197.50L255.14 194.82L249.00 207.19L242.24 219.17L225.75 214.70L218.81 225.69L211.33 236.27L203.32 246.41L187.59 239.55L179.59 248.69L171.14 257.38L162.27 265.60L147.72 256.42L139.06 263.68L130.03 270.46L120.67 276.77L107.73 265.41L98.76 270.82L89.52 275.76L80.04 280.21L60.18 270.58L51.07 273.78L41.80 276.53L32.39 278.81L24.65 263.66L15.97 265.32L7.21 266.55L-1.61 267.34L-10.48 267.69L-19.38 267.61L-22.63 251.29L-30.64 250.84L-38.63 250.00L-46.60 248.78L-54.51 247.18L-62.36 245.20L-70.13 242.84L-77.79 240.12L-85.33 237.04L-81.15 221.59L-74.47 224.31L-65.80 210.06L-72.04 207.53L-78.17 204.70L-84.18 201.59L-90.04 198.21L-95.75 194.55L-101.30 190.63L-106.67 186.46L-111.84 182.05L-116.82 177.40L-121.58 172.54L-126.11 167.46L-130.42 162.18L-134.48 156.72L-138.28 151.09L-141.82 145.29L-145.09 139.34L-148.09 133.25L-150.80 127.05L-153.22 120.74L-155.34 114.34L-155.47 113.85L-170.50 121.14L-187.89 117.86L-192.77 116.84L-204.22 114.42L-219.55 110.81L-217.71 118.64L-215.00 128.18L-211.85 137.60L-208.26 146.88L-204.25 156.01L-199.83 164.95L-195.00 173.70L-189.77 182.23L-184.17 190.52L-178.19 198.56L-171.86 206.33L-165.19 213.80L-158.18 220.97L-150.87 227.81L-143.26 234.32L-135.37 240.48L-127.22 246.27L-118.82 251.67L-110.20 256.69L-101.37 261.30L-92.36 265.50L-83.17 269.27L-85.23 282.52L-75.12 286.15L-64.86 289.30L-54.50 291.96L-44.03 294.12L-33.50 295.78L-22.92 296.93L-12.33 297.57L-8.54 311.14L2.85 311.29L14.21 310.90L25.52 309.94L36.76 308.43L43.71 320.89L55.58 318.72L67.32 315.95L78.90 312.59L90.28 308.65L100.00 319.48L111.84 314.72L123.41 309.37L134.70 303.42L157.66 305.63L168.88 298.18L179.70 290.15L203.31 288.28L213.76 278.72L223.72 268.59L247.17 262.58L256.47 250.95L265.17 238.81z"
     style="fill:#FFFFFF"
     id="path14" />
  <path
     d="M266.78 141.79L283.70 139.15L299.87 136.31L302.03 116.98L317.54 114.00L319.14 94.34L320.05 74.35L334.83 71.36L335.05 51.20L334.52 30.85L319.76 33.64L304.15 36.26L287.74 38.72L288.16 59.37L270.95 61.74L270.76 82.26L270.00 102.49L252.14 104.80L250.91 124.73L249.17 144.22z"
     style="fill:#080808"
     id="path16" />
  <path
     d="M276.05 128.34L276.21 127.34L268.17 128.42z"
     style="fill:#FFFFFF"
     id="path17" />
  <path
     d="M-78.30 189.96L-87.84 184.74L-96.90 178.66L-105.38 171.76L-113.21 164.11L-120.32 155.79L-126.64 146.86L-132.12 137.41L-136.70 127.53L-140.35 117.31L-141.83 117.02L-138.09 127.49L-133.40 137.61L-127.79 147.28L-121.32 156.42L-114.04 164.95L-106.02 172.78L-97.33 179.84L-88.07 186.07L-78.29 191.41L-68.11 195.81L-68.36 194.25z"
     style="fill:#B9BCCB"
     id="path18" />
  <path
     d="M6.04 217.30L-0.46 218.25L-7.01 218.87L-13.59 219.17L-20.20 219.15L-26.81 218.80L-33.42 218.13L-40.00 217.14L-46.55 215.84L-53.04 214.22L-59.46 212.29L-65.80 210.06L-74.47 224.31L-67.69 226.71L-60.82 228.78L-53.87 230.53L-46.87 231.94L-39.82 233.00L-32.75 233.73L-25.67 234.11L-18.60 234.15L-11.55 233.84L-4.55 233.18L2.41 232.18L9.28 230.83L16.07 229.14L22.76 227.11L29.32 224.75L35.75 222.06L37.16 207.78L31.16 210.31L25.04 212.54L18.80 214.44L12.46 216.03z"
     style="fill:#FFFFFF"
     id="path19" />
  <path
     d="M95.41 229.96L88.42 235.28L81.18 240.24L67.66 226.50L60.94 230.62L54.03 234.39L46.91 237.78L39.63 240.82L29.32 224.75L22.76 227.11L16.07 229.14L9.28 230.83L2.41 232.18L-4.55 233.18L-11.55 233.84L-18.60 234.15L-25.67 234.11L-32.75 233.73L-39.82 233.00L-46.87 231.94L-53.87 230.53L-60.82 228.78L-67.69 226.71L-74.47 224.31L-81.15 221.59L-85.33 237.04L-77.79 240.12L-70.13 242.84L-62.36 245.20L-54.51 247.18L-46.60 248.78L-38.63 250.00L-30.64 250.84L-22.63 251.29L-19.38 267.61L-10.48 267.69L-1.61 267.34L7.21 266.55L15.97 265.32L24.65 263.66L32.39 278.81L41.80 276.53L51.07 273.78L60.18 270.58L80.04 280.21L89.52 275.76L98.76 270.82L107.73 265.41L120.67 276.77L130.03 270.46L139.06 263.68L147.72 256.42L162.27 265.60L171.14 257.38L179.59 248.69L187.59 239.55L203.32 246.41L211.33 236.27L218.81 225.69L225.75 214.70L242.24 219.17L249.00 207.19L255.14 194.82L271.66 197.50L277.46 184.18L282.58 170.51L287.01 156.54L303.54 156.92L307.45 142.07L310.60 126.97L311.42 121.67L294.21 124.61L276.21 127.34L276.05 128.34L268.17 128.42L257.37 129.84L254.98 141.61L251.67 154.50L229.26 164.75L224.96 176.42L220.09 187.81L201.68 183.48L196.61 193.85L191.03 203.91L184.95 213.63L167.28 206.64L161.21 215.34L154.72 223.69L137.68 214.74L131.34 222.09L124.64 229.09L117.59 235.72L102.10 224.26z"
     style="fill:#FFFFFF"
     id="path20" />
  <path
     d="M-168.27 -139.56L-177.79 -132.13L-186.89 -124.24L-195.55 -115.89L-187.56 -101.08L-195.26 -92.87L-202.52 -84.29L-209.32 -75.34L-199.08 -61.97L-204.98 -53.35L-210.43 -44.44L-215.43 -35.26L-219.94 -25.83L-207.30 -15.06L-211.04 -6.17L-214.33 2.91L-217.17 12.16L-219.55 21.55L-205.67 32.45L-194.15 34.58L-189.23 35.48L-171.72 38.36L-171.55 37.68L-169.46 31.00L-167.03 24.45L-164.28 18.04L-161.22 11.79L-157.84 5.70L-154.16 -0.18L-168.02 -13.75L-163.53 -20.20L-158.71 -26.41L-153.58 -32.37L-165.11 -47.93L-159.07 -54.27L-152.70 -60.30L-146.01 -65.98L-154.98 -83.12L-147.32 -89.01L-139.35 -94.50L-131.08 -99.57L-137.35 -117.85L-128.07 -122.92L-118.52 -127.52L-108.70 -131.63L-112.20 -150.56L-101.38 -154.47L-90.33 -157.83L-91.84 -176.75L-79.82 -179.76L-67.62 -182.15L-55.26 -183.92L-54.10 -202.72L-40.85 -203.96L-27.49 -204.53L-14.05 -204.42L-10.40 -222.67L3.80 -221.86L18.02 -220.33L32.20 -218.08L38.10 -235.41L52.91 -232.32L67.61 -228.49L82.15 -223.91L96.51 -218.61L104.99 -234.48L119.74 -228.22L134.21 -221.21L148.36 -213.49L162.16 -205.06L175.56 -195.96L188.53 -186.20L200.09 -199.48L213.08 -188.69L225.55 -177.28L237.46 -165.27L248.78 -152.69L259.49 -139.58L269.54 -125.97L278.91 -111.91L287.58 -97.43L295.53 -82.56L280.43 -73.62L287.37 -58.99L293.58 -44.07L299.03 -28.91L303.72 -13.54L307.64 1.99L310.78 17.64L293.74 23.04L296.01 38.11L296.34 41.42L313.66 38.83L330.12 36.06L345.67 33.13L344.77 23.76L356.69 1.54L353.27 -15.78L348.98 -32.97L343.83 -49.98L337.84 -66.76L331.00 -83.28L323.35 -99.47L336.00 -107.39L327.33 -123.64L317.87 -139.47L307.63 -154.85L296.66 -169.71L284.96 -184.04L272.58 -197.77L259.56 -210.89L245.92 -223.35L231.72 -235.12L216.97 -246.17L207.34 -234.75L192.50 -244.79L177.22 -254.08L161.54 -262.58L145.52 -270.28L129.18 -277.16L112.59 -283.21L105.25 -269.69L88.93 -274.75L72.45 -278.98L55.84 -282.37L39.17 -284.91L33.82 -270.08L17.66 -271.74L1.51 -272.58L-14.58 -272.59L-18.11 -256.84L-33.52 -256.10L-48.80 -254.58L-63.91 -252.28L-65.36 -235.93L-79.65 -233.02L-93.72 -229.41L-107.53 -225.08L-106.70 -208.49L-119.60 -203.73L-132.18 -198.33L-144.42 -192.30L-141.22 -175.88L-152.49 -169.61L-163.39 -162.77L-173.89 -155.39z"
     style="fill:#B02B2B"
     id="path21" />
  <path
     d="M-58.03 193.74L-67.84 190.55L-77.35 186.45L-86.48 181.47L-95.14 175.65L-103.25 169.05L-110.74 161.74L-117.54 153.77L-123.59 145.23L-128.83 136.20L-133.21 126.75L-136.69 116.97L-139.24 106.96L-140.83 96.80L-141.45 86.59L-141.08 76.43L-139.73 66.41L-143.54 64.44L-144.95 74.92L-145.33 85.55L-144.68 96.22L-143.01 106.84L-140.35 117.31L-136.70 127.53L-132.12 137.41L-126.64 146.86L-120.32 155.79L-113.21 164.11L-105.38 171.76L-96.90 178.66L-87.84 184.74L-78.30 189.96L-68.36 194.25L-58.10 197.58L-47.64 199.92L-37.05 201.23L-26.44 201.51L-27.76 197.48L-37.90 197.22L-48.02 195.97z"
     style="fill:#FFFFFF"
     id="path23" />
  <path
     d="M-93.73 23.30L-92.35 2.19L-90.54 -18.94L-88.30 -39.99L-85.64 -60.91L-103.47 -62.43L-106.42 -41.61L-123.95 -43.38L-140.83 -45.31L-143.77 -24.56L-146.14 -3.74L-147.93 17.09L-149.14 37.85L-149.76 58.47L-132.22 60.91L-131.64 40.20L-113.46 42.36L-112.43 21.42z"
     style="fill:#080808"
     id="path24" />
  <path
     d="M234.16 44.99L234.46 65.88L215.30 67.64L215.12 88.36L214.53 108.77L194.90 110.39L194.00 130.46L174.02 131.88L172.94 151.51L192.74 150.06L212.09 148.36L230.92 146.41L249.17 144.22L250.91 124.73L252.14 104.80L270.00 102.49L270.76 82.26L270.95 61.74L288.16 59.37L287.74 38.72L270.57 41.00L252.69 43.09z"
     style="fill:#080808"
     id="path25" />
  <path
     d="M-141.83 117.02L-140.35 117.31L-143.01 106.84L-144.68 96.22L-145.33 85.55L-144.95 74.92L-143.54 64.44L-141.12 54.20L-137.69 44.30L-133.30 34.84L-127.98 25.91L-121.77 17.59L-122.81 14.88L-129.17 23.41L-134.62 32.56L-139.12 42.25L-142.62 52.39L-145.10 62.87L-146.54 73.61L-146.93 84.50L-146.26 95.43L-144.56 106.30z"
     style="fill:#E9EDFF"
     id="path26" />
  <path
     d="M-154.16 -0.18L-157.84 5.70L-161.22 11.79L-164.28 18.04L-167.03 24.45L-169.46 31.00L-171.55 37.68L-171.72 38.36L-156.52 36.20L-156.40 35.72L-154.43 29.48L-152.16 23.36L-149.58 17.37L-146.71 11.54L-143.54 5.86L-140.10 0.36L-136.37 -4.95L-132.37 -10.06L-128.12 -14.95L-123.61 -19.61L-118.87 -24.04L-113.89 -28.22L-108.70 -32.13L-103.30 -35.77L-97.71 -39.13L-91.93 -42.20L-102.66 -45.82L-108.84 -42.53L-114.83 -38.92L-120.61 -35.01L-126.16 -30.82L-131.48 -26.34L-136.55 -21.60L-141.37 -16.59L-145.91 -11.35L-150.18 -5.87z"
     style="fill:#962424"
     id="path27" />
  <path
     d="M23.42 187.48L14.20 192.28L4.50 196.12L-5.57 198.94L-15.92 200.75L-26.44 201.51L-37.05 201.23L-47.64 199.92L-58.10 197.58L-68.36 194.25L-68.11 195.81L-57.61 199.22L-46.89 201.61L-36.05 202.96L-25.19 203.25L-14.40 202.47L-3.81 200.63L6.51 197.73L16.44 193.81L25.90 188.89z"
     style="fill:#EAEEFF"
     id="path28" />
  <path
     d="M46.91 237.78L54.03 234.39L60.94 230.62L67.66 226.50L81.18 240.24L88.42 235.28L95.41 229.96L102.10 224.26L117.59 235.72L124.64 229.09L131.34 222.09L137.68 214.74L154.72 223.69L161.21 215.34L167.28 206.64L184.95 213.63L191.03 203.91L196.61 193.85L201.68 183.48L220.09 187.81L224.96 176.42L229.26 164.75L251.67 154.50L254.98 141.61L257.37 129.84L237.78 132.10L217.56 134.12L216.52 139.35L196.43 137.63L193.78 148.19L190.61 158.56L170.54 154.77L167.18 164.11L163.35 173.22L139.70 175.40L135.43 183.23L130.76 190.81L112.03 182.03L107.54 188.60L102.71 194.90L84.88 184.07L80.36 189.40L75.58 194.48L70.54 199.30L65.26 203.83L59.75 208.09L54.03 212.04L48.11 215.69L42.01 219.03L35.75 222.06L29.32 224.75L39.63 240.82z"
     style="fill:#FFFFFF"
     id="path29" />
  <path
     d="M-8.90 -165.07L2.96 -163.72L14.81 -161.79L26.58 -159.25L33.12 -178.52L45.62 -175.20L57.99 -171.25L70.19 -166.69L79.08 -184.66L91.84 -179.19L104.35 -173.08L116.59 -166.35L128.52 -159.03L140.11 -151.12L152.28 -166.67L164.11 -157.73L175.53 -148.23L186.48 -138.18L196.95 -127.60L206.90 -116.54L216.32 -105.01L225.16 -93.05L233.41 -80.68L241.05 -67.95L248.06 -54.89L254.41 -41.53L236.92 -32.50L242.32 -19.60L247.08 -6.48L251.17 6.82L254.61 20.25L257.37 33.79L238.15 39.11L239.52 48.01L259.24 46.02L270.12 44.77L278.21 43.82L296.34 41.42L296.01 38.11L293.74 23.04L310.78 17.64L307.64 1.99L303.72 -13.54L299.03 -28.91L293.58 -44.07L287.37 -58.99L280.43 -73.62L295.53 -82.56L287.58 -97.43L278.91 -111.91L269.54 -125.97L259.49 -139.58L248.78 -152.69L237.46 -165.27L225.55 -177.28L213.08 -188.69L200.09 -199.48L188.53 -186.20L175.56 -195.96L162.16 -205.06L148.36 -213.49L134.21 -221.21L119.74 -228.22L104.99 -234.48L96.51 -218.61L82.15 -223.91L67.61 -228.49L52.91 -232.32L38.10 -235.41L32.20 -218.08L18.02 -220.33L3.80 -221.86L-10.40 -222.67L-14.05 -204.42L-27.49 -204.53L-40.85 -203.96L-54.10 -202.72L-55.26 -183.92L-67.62 -182.15L-79.82 -179.76L-91.84 -176.75L-90.33 -157.83L-101.38 -154.47L-112.20 -150.56L-108.70 -131.63L-118.52 -127.52L-128.07 -122.92L-137.35 -117.85L-131.08 -99.57L-139.35 -94.50L-147.32 -89.01L-154.98 -83.12L-146.01 -65.98L-152.70 -60.30L-159.07 -54.27L-165.11 -47.93L-153.58 -32.37L-158.71 -26.41L-163.53 -20.20L-168.02 -13.75L-154.16 -0.18L-150.18 -5.87L-145.91 -11.35L-141.37 -16.59L-136.55 -21.60L-131.48 -26.34L-126.16 -30.82L-120.61 -35.01L-114.83 -38.92L-108.84 -42.53L-102.66 -45.82L-96.30 -48.79L-89.78 -51.44L-95.23 -72.02L-87.67 -74.66L-79.96 -76.92L-83.19 -97.80L-74.45 -99.90L-65.57 -101.55L-66.64 -122.46L-56.76 -123.81L-46.78 -124.65L-45.74 -145.35L-34.81 -145.74L-23.82 -145.59L-12.81 -144.87z"
     style="fill:#B22B2B"
     id="path30" />
  <path
     d="M-129.93 38.12L-124.83 29.59L-118.89 21.64L-112.16 14.36L-104.70 7.82L-106.93 3.12L-114.73 9.97L-121.77 17.59L-127.98 25.91L-133.30 34.84L-137.69 44.30L-141.12 54.20L-143.54 64.44L-139.73 66.41L-137.41 56.62L-134.13 47.16z"
     style="fill:#FFFFFF"
     id="path31" />
  <path
     d="M194.90 110.39L214.53 108.77L215.12 88.36L215.30 67.64L234.46 65.88L234.16 44.99L215.04 46.67L195.39 48.15L175.27 49.40L175.44 70.47L154.88 71.53L154.73 92.38L133.85 93.23L133.51 113.79L112.46 114.40L91.24 114.75L69.92 114.84L69.77 135.01L48.56 134.83L48.57 154.52L27.61 154.06L27.91 173.20L48.63 173.68L69.40 173.87L90.16 173.78L110.83 173.41L111.51 154.26L132.25 153.61L152.75 152.70L172.94 151.51L174.02 131.88L194.00 130.46z"
     style="fill:#090909"
     id="path32" />
  <path
     d="M-73.24 3.80L-71.64 -17.40L-52.24 -16.06L-32.43 -14.90L-30.99 -36.17L-29.28 -57.32L-9.73 -56.46L-27.31 -78.24L-46.14 -79.21L-64.59 -80.33L-67.30 -59.55L-85.64 -60.91L-88.30 -39.99L-90.54 -18.94L-92.35 2.19z"
     style="fill:#090909"
     id="path33" />
  <path
     d="M32.09 181.75L40.11 175.15L35.84 172.24L28.18 178.56L19.90 184.05L11.08 188.64L1.82 192.31L-7.80 195.02L-17.70 196.75L-27.76 197.48L-26.44 201.51L-15.92 200.75L-5.57 198.94L4.50 196.12L14.20 192.28L23.42 187.48z"
     style="fill:#FFFFFF"
     id="path34" />
  <path
     d="M80.36 189.40L84.88 184.07L89.13 178.50L93.08 172.70L96.74 166.68L100.08 160.46L103.11 154.06L105.81 147.49L102.52 138.07L100.00 144.21L97.18 150.19L94.06 155.99L90.65 161.61L86.97 167.03L83.01 172.24L78.80 177.22L74.33 181.97L69.63 186.48L64.71 190.72L59.57 194.70L54.23 198.40L48.71 201.82L43.02 204.95L37.16 207.78L35.75 222.06L42.01 219.03L48.11 215.69L54.03 212.04L59.75 208.09L65.26 203.83L70.54 199.30L75.58 194.48z"
     style="fill:#DEE2F5"
     id="path35" />
  <path
     d="M108.38 140.08L104.86 131.31L104.72 131.79L102.52 138.07L105.81 147.49L108.18 140.76z"
     style="fill:#A6A9B7"
     id="path36" />
  <path
     d="M311.42 121.67L327.77 118.52L343.23 115.19L357.75 111.68L371.30 108.02L383.85 104.21L395.38 100.27L405.88 96.22L403.23 112.27L392.93 115.22L389.07 133.04L384.31 150.56L378.67 167.73L367.68 169.46L361.33 185.93L354.17 201.98L346.20 217.57L334.79 217.84L326.27 232.62L317.02 246.87L307.07 260.58L295.54 259.23L285.21 272.04L274.25 284.24L262.71 295.83L251.41 292.77L239.66 303.42L227.40 313.42L214.66 322.75L203.95 317.95L191.20 326.34L178.05 334.04L164.52 341.05L154.77 334.57L141.43 340.67L127.79 346.07L113.90 350.78L99.78 354.78L91.90 346.59L78.18 349.77L64.30 352.26L50.30 354.06L36.21 355.17L30.67 345.65L17.16 346.06L3.62 345.83L-9.91 344.94L-23.40 343.41L-36.83 341.23L-39.00 330.95L-51.68 328.29L-64.23 325.03L-76.65 321.19L-88.89 316.77L-100.92 311.78L-112.74 306.24L-124.31 300.16L-135.60 293.56L-132.26 284.39L-142.66 277.67L-152.75 270.48L-162.52 262.84L-171.94 254.77L-181.00 246.28L-189.67 237.39L-197.94 228.13L-205.78 218.51L-213.19 208.55L-220.14 198.28L-226.62 187.71L-232.62 176.88L-238.11 165.79L-243.10 154.49L-252.83 156.17L-257.56 144.00L-261.72 131.65L-265.31 119.15L-268.32 106.51L-270.49 95.06L-259.29 99.18L-247.07 103.18L-233.85 107.06L-226.88 108.90L-219.55 110.81L-204.22 114.42L-192.77 116.84L-187.89 117.86L-170.50 121.14L-155.47 113.85L-172.30 110.57L-176.81 109.56L-187.67 107.58L-202.21 104.01L-209.20 102.15L-215.66 100.89L-228.22 97.11L-239.85 93.23L-250.53 89.25L-256.13 86.94L-280.60 90.86L-260.07 85.93L-268.69 81.84L-276.33 77.69L-282.99 73.51L-304.46 77.86L-303.46 84.80L-300.56 99.90L-296.97 114.87L-292.69 129.68L-287.74 144.30L-282.13 158.70L-275.87 172.85L-268.97 186.71L-263.55 185.73L-256.30 198.83L-248.46 211.59L-240.05 224.00L-231.10 236.04L-221.62 247.66L-211.63 258.86L-201.16 269.61L-190.21 279.87L-178.83 289.64L-167.03 298.89L-169.02 303.88L-156.40 312.90L-143.39 321.34L-130.02 329.18L-116.33 336.40L-102.34 342.99L-88.08 348.93L-73.58 354.20L-58.87 358.80L-43.98 362.70L-41.43 368.76L-25.91 372.07L-10.28 374.65L5.44 376.48L21.20 377.57L36.99 377.89L41.97 383.22L58.19 382.79L74.34 381.56L90.41 379.56L106.35 376.76L112.93 380.92L129.10 377.27L145.07 372.81L160.80 367.55L176.24 361.50L183.98 364.26L199.45 357.30L214.55 349.55L229.25 341.03L237.43 342.43L251.97 332.98L266.02 322.78L279.55 311.85L287.87 311.91L301.06 300.08L313.64 287.56L325.59 274.35L333.72 273.17L345.16 259.15L355.88 244.50L365.85 229.26L373.54 226.98L382.84 211.03L391.33 194.55L398.99 177.58L405.98 174.42L412.84 156.88L418.79 138.93L423.83 120.62L427.94 101.98L434.10 98.13L437.27 79.17L415.74 73.94L415.47 74.18L409.43 78.27L402.40 82.32L394.37 86.31L385.35 90.23L375.36 94.05L364.40 97.78L352.49 101.38L339.66 104.86L325.93 108.20L311.33 111.37L295.90 114.38L279.69 117.21L262.73 119.84L255.40 120.16L245.13 121.54L226.71 123.78L207.71 125.80L188.18 127.59L178.54 127.82L168.20 128.59L147.63 129.92L132.85 130.24L126.76 130.56L104.86 131.31L108.38 140.08L131.16 139.46L137.80 139.20L153.49 138.55L175.39 137.35L186.32 136.60L196.77 135.87L217.56 134.12L237.78 132.10L257.37 129.84L268.17 128.42L276.21 127.34L294.21 124.61z"
     style="fill:#DBDFF1"
     id="path37" />
  <path
     d="M100.08 160.46L96.74 166.68L93.08 172.70L89.13 178.50L84.88 184.07L102.71 194.90L107.54 188.60L112.03 182.03L130.76 190.81L135.43 183.23L139.70 175.40L163.35 173.22L167.18 164.11L170.54 154.77L190.61 158.56L193.78 148.19L196.43 137.63L216.52 139.35L217.56 134.12L196.77 135.87L186.32 136.60L175.39 137.35L153.49 138.55L137.80 139.20L131.16 139.46L108.38 140.08L108.18 140.76L105.81 147.49L103.11 154.06z"
     style="fill:#FFFFFF"
     id="path38" />
  <path
     d="M-79.71 -15.59L-89.58 -11.34L-98.91 -6.11L-107.62 0.05L-115.61 7.07L-122.81 14.88L-121.77 17.59L-114.73 9.97L-106.93 3.12L-98.43 -2.89L-89.32 -7.99L-79.68 -12.14L-69.61 -15.28L-69.39 -18.81z"
     style="fill:#FFFFFF"
     id="path39" />
  <path
     d="M133.85 93.23L154.73 92.38L154.88 71.53L175.44 70.47L175.27 49.40L154.76 50.42L133.94 51.22L112.86 51.77L112.71 30.43L91.46 9.28L70.44 -12.13L49.90 -33.69L30.10 -55.29L10.09 -55.78L-9.73 -56.46L-29.28 -57.32L-30.99 -36.17L-32.43 -14.90L-12.27 -13.94L8.17 -13.18L28.31 8.84L49.10 30.66L48.91 52.00L70.17 73.34L70.06 94.26L69.92 114.84L91.24 114.75L112.46 114.40L133.51 113.79z"
     style="fill:#090909"
     id="path40" />
  <path
     d="M32.09 181.75L23.42 187.48L25.90 188.89L34.78 183.03L43.00 176.26L50.48 168.66L57.14 160.28L62.91 151.22L67.73 141.56L64.24 141.27L59.54 150.70L53.90 159.55L47.41 167.72L40.11 175.15z"
     style="fill:#FFFFFF"
     id="path41" />
  <path
     d="M-69.03 -9.74L-59.20 -17.39L-69.61 -15.28L-79.68 -12.14L-89.32 -7.99L-98.43 -2.89L-106.93 3.12L-104.70 7.82L-96.58 2.08L-87.87 -2.79L-78.66 -6.74z"
     style="fill:#FFFFFF"
     id="path42" />
  <path
     d="M47.41 167.72L53.90 159.55L59.54 150.70L64.24 141.27L58.87 139.85L54.38 148.87L49.01 157.33L42.81 165.14L35.84 172.24L40.11 175.15z"
     style="fill:#FFFFFF"
     id="path43" />
  <path
     d="M-12.81 -144.87L-23.82 -145.59L-34.81 -145.74L-45.74 -145.35L-46.78 -124.65L-56.76 -123.81L-66.64 -122.46L-65.57 -101.55L-74.45 -99.90L-83.19 -97.80L-79.96 -76.92L-87.67 -74.66L-95.23 -72.02L-89.78 -51.44L-83.11 -53.75L-76.30 -55.73L-69.37 -57.35L-62.35 -58.62L-55.24 -59.54L-48.07 -60.10L-40.85 -60.29L-33.60 -60.12L-26.34 -59.58L-23.29 -81.43L-15.06 -80.43L-6.85 -79.02L-1.67 -100.33L7.45 -98.32L16.48 -95.85L23.67 -116.38L33.51 -113.19L43.22 -109.51L52.77 -105.35L62.64 -124.54L72.84 -119.51L82.82 -113.99L92.55 -107.98L102.00 -101.49L114.92 -118.48L124.79 -111.00L134.30 -103.06L143.44 -94.65L152.16 -85.82L160.47 -76.58L168.32 -66.96L175.71 -56.98L182.61 -46.66L188.99 -36.05L194.86 -25.15L200.18 -14.01L204.95 -2.65L185.50 5.92L189.41 16.62L192.79 27.47L195.63 38.43L174.96 44.38L176.68 52.62L187.69 51.96L198.22 51.32L219.16 49.78L239.52 48.01L238.15 39.11L257.37 33.79L254.61 20.25L251.17 6.82L247.08 -6.48L242.32 -19.60L236.92 -32.50L254.41 -41.53L248.06 -54.89L241.05 -67.95L233.41 -80.68L225.16 -93.05L216.32 -105.01L206.90 -116.54L196.95 -127.60L186.48 -138.18L175.53 -148.23L164.11 -157.73L152.28 -166.67L140.11 -151.12L128.52 -159.03L116.59 -166.35L104.35 -173.08L91.84 -179.19L79.08 -184.66L70.19 -166.69L57.99 -171.25L45.62 -175.20L33.12 -178.52L26.58 -159.25L14.81 -161.79L2.96 -163.72L-8.90 -165.07z"
     style="fill:#B32C2C"
     id="path44" />
  <path
     d="M70.69 121.00L72.36 110.36L72.97 99.53L67.19 99.97L66.61 110.32L65.02 120.49L62.43 130.36L58.87 139.85L64.24 141.27L67.97 131.33z"
     style="fill:#FFFFFF"
     id="path45" />
  <path
     d="M-13.77 -29.76L-24.67 -30.86L-35.55 -30.88L-46.29 -29.81L-56.79 -27.67L-66.95 -24.49L-76.67 -20.30L-85.86 -15.14L-98.91 -6.11L-89.58 -11.34L-79.71 -15.59L-69.39 -18.81L-58.72 -20.98L-47.81 -22.05L-36.76 -22.03L-25.68 -20.89L-14.68 -18.66L-3.88 -15.35L6.63 -11.00L18.01 -20.05L7.67 -24.33L-2.95 -27.57z"
     style="fill:#7A7C86"
     id="path46" />
  <path
     d="M-59.20 -17.39L-69.03 -9.74L-59.08 -11.75L-48.90 -12.74L-38.60 -12.70L-28.27 -11.64L-18.02 -9.55L-16.22 -15.12L-26.95 -17.30L-37.76 -18.41L-48.55 -18.44z"
     style="fill:#FFFFFF"
     id="path47" />
  <path
     d="M-58.72 -20.98L-69.39 -18.81L-69.61 -15.28L-59.20 -17.39L-48.55 -18.44L-37.76 -18.41L-26.95 -17.30L-16.22 -15.12L-5.67 -11.88L-3.88 -15.35L-14.68 -18.66L-25.68 -20.89L-36.76 -22.03L-47.81 -22.05z"
     style="fill:#FFFFFF"
     id="path48" />
  <path
     d="M64.24 141.27L67.73 141.56L71.56 131.38L74.35 120.79L76.07 109.90L76.69 98.80L76.21 87.60L74.64 76.43L70.96 77.70L72.50 88.60L72.97 99.53L72.36 110.36L70.69 121.00L67.97 131.33z"
     style="fill:#FFFFFF"
     id="path49" />
  <path
     d="M50.48 168.66L60.98 156.61L67.54 148.36L73.23 139.44L77.98 129.93L81.76 119.91L84.51 109.49L86.21 98.77L86.83 87.85L86.37 76.85L84.83 65.86L82.22 55.01L78.56 44.39L68.25 54.59L71.97 65.39L74.64 76.43L76.21 87.60L76.69 98.80L76.07 109.90L74.35 120.79L71.56 131.38L67.73 141.56L62.91 151.22L57.14 160.28z"
     style="fill:#7A7C86"
     id="path50" />
  <path
     d="M68.25 54.59L78.56 44.39L73.90 34.12L68.27 24.30L61.73 15.03L54.35 6.41L46.20 -1.49L37.37 -8.58L27.94 -14.78L18.01 -20.05L6.63 -11.00L16.73 -5.63L26.32 0.69L35.31 7.91L43.60 15.95L51.11 24.73L57.76 34.16L63.49 44.15z"
     style="fill:#CCCFE0"
     id="path51" />
  <path
     d="M-76.30 -55.73L-83.11 -53.75L-89.78 -51.44L-96.30 -48.79L-102.66 -45.82L-91.93 -42.20L-85.99 -44.97L-79.90 -47.44L-73.67 -49.59L-67.31 -51.43L-60.84 -52.94L-54.29 -54.12L-47.65 -54.97L-40.96 -55.49L-34.22 -55.66L-27.46 -55.50L-20.68 -55.00L-13.92 -54.16L-7.17 -52.99L-0.47 -51.48L6.18 -49.64L12.75 -47.47L19.23 -44.98L25.60 -42.17L31.84 -39.06L37.96 -35.64L43.91 -31.92L49.69 -27.93L55.29 -23.66L60.68 -19.12L65.87 -14.33L70.82 -9.30L75.54 -4.05L80.01 1.43L84.21 7.10L88.13 12.96L91.78 18.99L95.13 25.17L98.18 31.50L100.93 37.95L103.35 44.51L105.46 51.15L105.58 51.66L109.18 55.03L108.99 54.31L106.73 47.17L104.13 40.14L101.19 33.21L97.92 26.43L94.32 19.79L90.41 13.32L86.20 7.03L81.69 0.94L76.90 -4.93L71.83 -10.57L66.51 -15.97L60.95 -21.11L55.16 -25.97L49.15 -30.56L42.95 -34.85L36.56 -38.83L30.01 -42.49L23.30 -45.84L16.47 -48.85L9.51 -51.52L2.47 -53.84L-4.66 -55.81L-11.85 -57.43L-19.08 -58.69L-26.34 -59.58L-33.60 -60.12L-40.85 -60.29L-48.07 -60.10L-55.24 -59.54L-62.35 -58.62L-69.37 -57.35z"
     style="fill:#470D0D"
     id="path52" />
  <path
     d="M81.69 0.94L86.20 7.03L90.41 13.32L94.32 19.79L97.92 26.43L101.19 33.21L104.13 40.14L106.73 47.17L108.99 54.31L109.18 55.03L132.13 54.48L138.82 54.25L154.62 53.68L176.68 52.62L174.96 44.38L195.63 38.43L192.79 27.47L189.41 16.62L185.50 5.92L204.95 -2.65L200.18 -14.01L194.86 -25.15L188.99 -36.05L182.61 -46.66L175.71 -56.98L168.32 -66.96L160.47 -76.58L152.16 -85.82L143.44 -94.65L134.30 -103.06L124.79 -111.00L114.92 -118.48L102.00 -101.49L92.55 -107.98L82.82 -113.99L72.84 -119.51L62.64 -124.54L52.77 -105.35L43.22 -109.51L33.51 -113.19L23.67 -116.38L16.48 -95.85L7.45 -98.32L-1.67 -100.33L-6.85 -79.02L-15.06 -80.43L-23.29 -81.43L-26.34 -59.58L-19.08 -58.69L-11.85 -57.43L-4.66 -55.81L2.47 -53.84L9.51 -51.52L16.47 -48.85L23.30 -45.84L30.01 -42.49L36.56 -38.83L42.95 -34.85L49.15 -30.56L55.16 -25.97L60.95 -21.11L66.51 -15.97L71.83 -10.57L76.90 -4.93z"
     style="fill:#B42C2C"
     id="path53" />
  <path
     d="M14.44 -2.39L23.80 3.79L32.57 10.83L40.66 18.67L47.99 27.24L54.48 36.45L60.08 46.20L64.72 56.39L68.35 66.93L70.96 77.70L74.64 76.43L71.97 65.39L68.25 54.59L63.49 44.15L57.76 34.16L51.11 24.73L43.60 15.95L35.31 7.91L26.32 0.69L16.73 -5.63L6.63 -11.00L-3.88 -15.35L-5.67 -11.88L4.58 -7.63z"
     style="fill:#FFFFFF"
     id="path54" />
  <path
     d="M-7.80 195.02L1.82 192.31L11.08 188.64L19.90 184.05L28.18 178.56L35.84 172.24L42.81 165.14L49.01 157.33L54.38 148.87L58.87 139.85L62.43 130.36L65.02 120.49L66.61 110.32L67.19 99.97L72.97 99.53L72.50 88.60L70.96 77.70L68.35 66.93L64.72 56.39L60.08 46.20L54.48 36.45L47.99 27.24L40.66 18.67L32.57 10.83L23.80 3.79L14.44 -2.39L4.58 -7.63L-5.67 -11.88L-16.22 -15.12L-18.02 -9.55L-28.27 -11.64L-38.60 -12.70L-48.90 -12.74L-59.08 -11.75L-69.03 -9.74L-78.66 -6.74L-87.87 -2.79L-96.58 2.08L-104.70 7.82L-112.16 14.36L-118.89 21.64L-124.83 29.59L-129.93 38.12L-134.13 47.16L-137.41 56.62L-139.73 66.41L-141.08 76.43L-141.45 86.59L-140.83 96.80L-139.24 106.96L-136.69 116.97L-133.21 126.75L-128.83 136.20L-123.59 145.23L-117.54 153.77L-110.74 161.74L-103.25 169.05L-95.14 175.65L-86.48 181.47L-77.35 186.45L-67.84 190.55L-58.03 193.74L-48.02 195.97L-37.90 197.22L-27.76 197.48L-17.70 196.75z"
     style="fill:#FFFFFF"
     id="path55" />
</svg>
