<?xml version="1.0" encoding="UTF-8"?>
<!DOCTYPE svg PUBLIC "-//W3C//DTD SVG 1.0//EN" "http://www.w3.org/TR/2001/REC-SVG-20010904/DTD/svg10.dtd">
<svg height="279.4mm" viewBox="-500, -500, 1000, 1000" width="215.89999999999998mm" xmlns="http://www.w3.org/2000/svg" xmlns:xlink="http://www.w3.org/1999/xlink">
	<g class="Mesh2">
		<path d="M28.728 37.503 L3.146 70.141 L0.797 75.248 L54.562 143.556 L100.628 157.064 L214.782 154.954 L237.560 133.406 L250.943 107.444 L245.910 98.595 L227.269 70.730 L170.070 75.949 L96.008 104.903 L115.059 102.921 z" fill="#E58200" />
	</g>
	<g class="Mesh3">
		<path d="M-137.676 209.892 L-100.914 164.310 L-83.227 68.875 L-82.593 67.701 L-35.493 66.575 L-37.991 166.294 L-31.466 188.003 L-31.834 197.293 L-45.524 291.085 L-76.823 299.137 L-113.929 296.905 L-151.118 265.580 L-151.223 256.089 z" fill="#E58200" />
	</g>
	<g class="Mesh0">
		<path d="M2.563 -174.747 L-74.033 -253.563 L-109.309 -155.763 L-131.458 -80.737 L-150.692 -6.220 L-166.639 58.101 L-158.747 111.039 L-119.401 163.244 L-102.639 181.604 L19.442 174.735 L141.593 146.847 L190.682 59.081 L169.255 6.677 L118.450 -48.777 L59.327 -112.010 z" fill="#2E47AA" />
		<path d="M-131.458 -80.737 L-179.504 29.866 L-192.888 136.655 L-119.295 19.426 L-109.547 -66.551 z" fill="#2E47AA" />
		<path d="M-150.098 9.011 L-111.599 -41.321 L-150.692 -6.220 L-192.888 136.655 z" fill="#2E47AA" />
		<path d="M166.564 -23.967 L59.327 -112.010 L32.445 -89.621 L81.473 -11.822 L235.310 73.700 z" fill="#2E47AA" />
		<path d="M235.310 73.700 L141.653 -36.758 L116.990 -58.045 z" fill="#2E47AA" />
	</g>
	<g class="Mesh1">
		<path d="M-77.606 -94.281 L-80.232 -107.945 L-70.931 -121.197 L-38.739 -126.553 L-23.051 -119.804 L-9.410 -95.542 L-19.068 -76.902 L-35.164 -48.313 L-46.626 -33.005 L-51.647 -32.207 L-62.813 -43.888 L-68.089 -55.145 z" fill="#E58200" />
		<path d="M-69.722 -68.690 L-74.359 -84.923 L-80.232 -107.945 z" fill="#E58200" />
	</g>
</svg>
