<?xml version="1.0" encoding="UTF-8"?>
<!DOCTYPE svg PUBLIC "-//W3C//DTD SVG 1.0//EN" "http://www.w3.org/TR/2001/REC-SVG-20010904/DTD/svg10.dtd">
<svg height="279.4mm" viewBox="-100, -100, 200, 200" width="215.89999999999998mm" xmlns="http://www.w3.org/2000/svg" xmlns:xlink="http://www.w3.org/1999/xlink">
	<g class="Mesh2">
		<path d="M11.866 78.005 L19.428 78.106 L28.686 75.834 L39.200 67.443 L37.754 57.897 L36.795 55.147 L30.308 46.828 L20.194 20.512 L19.200 20.071 L6.771 22.171 L12.063 50.087 L9.733 55.540 L10.907 75.255 z" fill="#E58200" />
	</g>
	<g class="Mesh3">
		<path d="M-16.250 29.955 L4.868 12.442 L4.731 12.080 L-3.667 2.110 L-26.096 16.555 L-43.842 14.298 L-56.378 17.553 L-58.204 19.406 L-58.936 30.808 L-53.540 38.541 L-46.820 43.975 L-22.511 35.938 L-13.183 27.224 z" fill="#E58200" />
	</g>
	<g class="Mesh0">
		<path d="M-38.726 34.220 L-6.343 42.084 L26.540 44.588 L42.363 26.898 L43.985 11.186 L39.037 -6.884 L33.462 -26.513 L27.563 -45.184 L18.726 -68.362 L6.095 -56.246 L-0.309 -49.612 L-15.055 -34.220 L-31.467 -18.084 L-46.345 -3.164 L-53.820 11.619 z" fill="#2E47AA" />
		<path d="M39.037 -6.884 L28.692 -16.129 L39.503 -2.154 L52.188 34.440 z" fill="#2E47AA" />
		<path d="M30.488 -0.609 L52.188 34.440 L47.179 3.129 L33.462 -26.513 L27.744 -22.801 z" fill="#2E47AA" />
		<path d="M-8.986 -39.820 L-44.763 -11.476 L-66.027 15.660 L-20.772 -8.752 L-7.728 -28.436 L-15.055 -34.220 z" fill="#2E47AA" />
		<path d="M-35.217 -13.173 L-46.345 -3.164 L-22.499 -24.261 z" fill="#2E47AA" />
		<path d="M-39.674 -14.732 L-66.027 15.660 L-32.003 -20.500 z" fill="#2E47AA" />
	</g>
	<g class="Mesh1">
		<path d="M13.931 -17.557 L11.697 -14.728 L10.497 -14.919 L7.255 -18.617 L4.034 -25.453 L2.078 -30.059 L3.913 -35.677 L7.807 -37.899 L15.749 -36.638 L18.394 -33.959 L18.310 -27.481 L16.532 -23.468 z" fill="#E58200" />
	</g>
</svg>
