<?xml version="1.0" encoding="UTF-8"?>
<!DOCTYPE svg PUBLIC "-//W3C//DTD SVG 1.0//EN" "http://www.w3.org/TR/2001/REC-SVG-20010904/DTD/svg10.dtd">
<svg height="279.4mm" viewBox="-100, -100, 200, 200" width="215.89999999999998mm" xmlns="http://www.w3.org/2000/svg" xmlns:xlink="http://www.w3.org/1999/xlink">
	<g class="Mesh0">
		<path d="M29.864 -26.938 L20.902 -45.557 L8.593 -68.489 L-7.693 -48.144 L-19.910 -31.441 L-32.932 -13.698 L-44.709 2.680 L-49.195 18.386 L-35.046 39.321 L-1.804 45.002 L31.912 45.379 L49.481 27.314 L47.962 11.064 L39.399 -7.154 z" fill="#FF0000" />
		<path d="M-44.742 -5.957 L-61.036 23.280 L-23.670 -5.598 L-13.583 -26.494 L-19.910 -31.441 z" fill="#FF0000" />
		<path d="M39.399 -7.154 L30.111 -15.278 L43.337 -1.756 z" fill="#FF0000" />
		<path d="M39.014 -9.306 L60.243 34.253 L43.337 -1.756 z" fill="#FF0000" />
		<path d="M-32.221 -15.751 L-37.892 -9.105 L-61.036 23.280 z" fill="#FF0000" />
		<path d="M28.919 -0.840 L60.243 34.253 L49.583 2.577 L29.864 -26.938 L22.809 -23.202 z" fill="#FF0000" />
		<path d="M-22.408 -20.030 L-32.932 -13.698 L-37.892 -9.105 z" fill="#FF0000" />
	</g>
	<g class="Mesh1">
		<path d="M3.391 -14.931 L6.274 -17.715 L10.315 -23.373 L12.937 -27.245 L11.760 -33.896 L8.607 -36.459 L0.459 -37.196 L-2.984 -34.643 L-3.716 -28.751 L-2.507 -24.533 L-0.574 -18.335 L2.160 -15.043 z" fill="#FF0000" />
	</g>
	<g class="Mesh2">
		<path d="M2.702 77.420 L9.908 78.857 L19.340 78.275 L31.533 71.938 L32.582 62.356 L32.049 59.471 L28.281 50.224 L22.726 22.491 L21.674 21.865 L9.257 21.718 L9.691 50.152 L6.069 55.066 L2.169 74.535 z" fill="#FF0000" />
	</g>
	<g class="Mesh3">
		<path d="M-64.766 19.536 L-62.930 17.388 L-49.870 17.032 L-31.691 23.179 L-35.179 23.918 L-9.156 6.959 L-1.237 16.816 L-1.012 17.787 L-19.195 34.461 L-29.345 39.934 L-54.788 42.056 L-61.298 36.289 L-66.295 28.862 z" fill="#FF0000" />
	</g>
</svg>
