<?xml version="1.0" encoding="UTF-8"?>
<!DOCTYPE svg PUBLIC "-//W3C//DTD SVG 1.0//EN" "http://www.w3.org/TR/2001/REC-SVG-20010904/DTD/svg10.dtd">
<svg height="279.4mm" viewBox="-500, -500, 1000, 1000" width="215.89999999999998mm" xmlns="http://www.w3.org/2000/svg" xmlns:xlink="http://www.w3.org/1999/xlink">
	<g class="Mesh2">
		<path d="M179.065 210.323 L124.231 175.201 L126.897 187.037 L112.163 77.517 L65.884 80.520 L64.428 82.634 L65.894 169.729 L68.250 211.242 L114.068 293.773 L147.339 297.566 L182.425 291.549 L207.275 259.827 L208.013 249.721 z" fill="#E58200" />
	</g>
	<g class="Mesh3">
		<path d="M-59.399 77.517 L-78.108 175.201 L-131.047 210.323 L-158.465 249.721 L-157.904 259.827 L-131.836 291.549 L-96.520 297.566 L-63.394 293.773 L-20.744 211.242 L-19.988 169.729 L-20.412 181.391 L-11.879 82.634 L-12.986 80.520 z" fill="#E58200" />
	</g>
	<g class="Mesh0">
		<path d="M-73.360 -11.362 L-42.278 -100.153 L-67.710 -113.192 L-149.114 -0.736 L-193.375 114.174 z" fill="#2E47AA" />
		<path d="M-69.564 -59.311 L-109.021 -35.578 L-193.375 114.174 L-105.116 -41.034 L-121.622 -12.078 z" fill="#2E47AA" />
		<path d="M-144.441 32.442 L-152.447 92.522 L-97.873 165.870 L28.926 176.093 L155.581 165.870 L208.162 92.522 L201.323 32.442 L167.252 -35.578 L127.502 -113.192 L87.448 -187.608 L30.937 -280.741 L-26.628 -187.608 L-67.710 -113.192 L-109.021 -35.578 z" fill="#2E47AA" />
		<path d="M103.239 -100.153 L133.259 -11.362 L248.981 114.174 L206.609 -0.736 L127.502 -113.192 z" fill="#2E47AA" />
		<path d="M248.981 114.174 L167.252 -35.578 L126.470 -59.311 L177.823 -12.078 z" fill="#2E47AA" />
	</g>
	<g class="Mesh1">
		<path d="M-3.946 -112.454 L2.304 -99.131 L12.486 -79.375 L25.189 -68.776 L30.358 -68.776 L40.925 -79.375 L54.271 -99.131 L62.579 -112.454 L55.960 -140.617 L42.538 -150.535 L9.600 -150.535 L-3.238 -138.072 z" fill="#E58200" />
	</g>
</svg>
