<?xml version="1.0" encoding="UTF-8"?>
<!DOCTYPE svg PUBLIC "-//W3C//DTD SVG 1.0//EN" "http://www.w3.org/TR/2001/REC-SVG-20010904/DTD/svg10.dtd">
<svg height="279.4mm" viewBox="-500, -500, 1000, 1000" width="215.89999999999998mm" xmlns="http://www.w3.org/2000/svg" xmlns:xlink="http://www.w3.org/1999/xlink">
	<g class="Mesh0">
		<path d="M5.401 -24.219 L96.244 -30.381 L26.958 19.973 L53.004 -1.626 z" fill="#FFFFFF" />
		<path d="M136.026 30.939 L121.780 51.056 L90.517 86.581 L86.889 86.680 L67.065 92.262 L-97.998 58.922 L-4.848 -10.073 L9.172 -19.707 L47.999 4.101 L31.912 82.953 L4.784 144.365 L7.506 134.340 L-8.070 128.753 L23.799 77.857 L-4.744 128.670 L19.440 118.710 L33.307 121.194 L39.276 158.082 L39.054 167.078 L1.963 153.928 L-4.430 71.981 L14.559 44.191 L-0.840 51.481 L29.880 30.992 L16.516 40.643 L-0.840 51.481 L-41.488 48.540 L-140.441 19.883 L-56.120 33.213 L5.267 5.473 L24.924 -2.073 L-97.998 58.922 L-72.152 56.938 L-71.849 90.379 L-88.809 107.470 L-136.406 134.998 L-190.310 143.100 L-173.055 172.072 L-218.659 202.754 L-216.217 153.300 L-156.334 92.748 L-118.272 89.991 L-125.320 93.637 L-139.037 81.696 L-159.856 36.320 L-201.465 -51.438 L-194.260 -37.363 L-185.185 -18.622 L-159.322 -0.596 L-242.874 -24.810 L-299.701 -53.619 L-343.983 -48.190 L-393.358 -74.877 L-396.805 -84.518 L-392.083 -91.498 L-363.740 -109.778 L-335.532 -129.594 L-295.859 -178.051 L-281.501 -187.960 L-217.651 -196.021 L-203.971 -187.077 L-267.080 -180.451 L-233.776 -246.970 L-203.971 -187.077 L-158.954 -152.751 L-217.651 -196.021 L-191.645 -184.631 L-76.494 -162.056 L-44.358 -141.478 L-9.374 -109.407 L62.026 -102.541 L78.845 -105.115 L128.147 -110.044 L185.684 -100.796 L225.028 -73.317 L234.905 -29.054 L233.574 -21.369 L226.347 -2.152 L214.220 18.339 L177.466 84.696 L196.176 131.238 L200.538 150.250 L173.674 195.836 L158.863 216.372 L147.957 233.839 L124.554 225.572 L117.351 218.963 L147.223 190.955 L140.835 203.061 L164.956 140.127 L101.116 52.714 z" fill="#FFFFFF" />
		<path d="M1.963 153.928 L-12.257 137.575 L-3.762 72.282 L7.036 33.438 L14.559 44.191 L-2.306 72.463 z" fill="#FFFFFF" />
		<path d="M60.544 129.751 L-17.186 178.033 L-34.606 171.568 L-47.853 151.556 L-42.139 148.986 L-4.574 142.451 L27.417 108.187 L25.349 79.077 L5.401 -24.219 L6.040 -26.902 L53.004 -1.626 L59.694 19.714 L67.663 27.401 L102.618 33.523 L59.713 109.501 L68.054 55.763 L102.618 33.523 L209.771 1.889 L160.166 18.008 L70.963 60.062 L65.422 106.664 z" fill="#FFFFFF" />
		<path d="M196.176 131.238 L175.873 83.018 L193.129 123.343 L195.174 128.475 z" fill="#FFFFFF" />
		<path d="M108.313 57.934 L130.866 53.166 L110.270 81.471 L75.317 91.500 z" fill="#FFFFFF" />
		<path d="M-295.859 -178.051 L-297.927 -149.746 L-310.609 -235.552 L-233.562 -184.569 z" fill="#FFFFFF" />
		<path d="M267.537 -17.987 L232.034 -47.767 L317.559 -23.309 L415.977 -25.451 L428.767 -16.186 L435.290 3.156 L393.698 63.291 L343.795 89.960 L318.872 92.779 L292.917 83.691 L231.660 59.740 L212.658 48.206 L180.469 -31.786 L193.450 -4.429 L209.771 1.889 L226.347 -2.152 L234.905 -29.054 L229.402 -50.142 z" fill="#FFFFFF" />
		<path d="M121.780 51.056 L75.317 91.500 L67.065 92.262 z" fill="#FFFFFF" />
		<path d="M99.343 65.077 L136.026 30.939 L121.780 51.056 L90.517 86.581 L86.889 86.680 L67.065 92.262 L-97.998 58.922 L-4.848 -10.073 L9.172 -19.707 L47.999 4.101 L31.912 82.953 L4.784 144.365 L7.506 134.340 L-8.070 128.753 L23.799 77.857 L-4.744 128.670 L19.440 118.710 L33.307 121.194 L39.276 158.082 L39.054 167.078 L1.963 153.928 L-4.430 71.981 L14.559 44.191 L-0.840 51.481 L29.880 30.992 L16.516 40.643 L-0.840 51.481 L-41.488 48.540 L-140.441 19.883 L-56.120 33.213 L5.267 5.473 L24.924 -2.073 L-97.998 58.922 L-72.152 56.938 L-71.849 90.379 L-88.809 107.470 L-136.406 134.998 L-190.310 143.100 L-173.055 172.072 L-218.659 202.754 L-216.217 153.300 L-156.334 92.748 L-118.272 89.991 L-125.320 93.637 L-139.037 81.696 L-159.856 36.320 L-201.465 -51.438 L-194.260 -37.363 L-185.185 -18.622 L-159.322 -0.596 L-242.874 -24.810 L-299.701 -53.619 L-343.983 -48.190 L-393.358 -74.877 L-396.805 -84.518 L-392.083 -91.498 L-363.740 -109.778 L-335.532 -129.594 L-295.859 -178.051 L-281.501 -187.960 L-217.651 -196.021 L-203.971 -187.077 L-267.080 -180.451 L-233.776 -246.970 L-203.971 -187.077 L-158.954 -152.751 L-217.651 -196.021 L-191.645 -184.631 L-76.494 -162.056 L-44.358 -141.478 L-9.374 -109.407 L62.026 -102.541 L78.845 -105.115 L128.147 -110.044 L185.684 -100.796 L225.028 -73.317 L234.905 -29.054 L233.574 -21.369 L226.347 -2.152 L214.220 18.339 L177.466 84.696 L196.176 131.238 L200.538 150.250 L173.674 195.836 L158.863 216.372 L147.957 233.839 L124.554 225.572 L117.351 218.963 L147.223 190.955 L140.835 203.061 L164.956 140.127 L101.116 52.714 L136.026 30.939 L116.389 52.640 L180.949 -23.364 L136.026 30.939 L104.061 61.418 z" fill="#FFFFFF" />
		<path d="M-199.051 126.213 L-151.610 128.468 L-203.135 142.628 z" fill="#FFFFFF" />
		<path d="M-158.028 100.841 L-216.217 153.300 L-211.844 144.580 z" fill="#FFFFFF" />
	</g>
</svg>
