<?xml version="1.0" encoding="UTF-8"?>
<!DOCTYPE svg PUBLIC "-//W3C//DTD SVG 1.0//EN" "http://www.w3.org/TR/2001/REC-SVG-20010904/DTD/svg10.dtd">
<svg height="279.4mm" viewBox="-500, -500, 1000, 1000" width="215.89999999999998mm" xmlns="http://www.w3.org/2000/svg" xmlns:xlink="http://www.w3.org/1999/xlink">
	<g class="Mesh0">
		<path d="M-9.827 -4.737 L2.745 -13.107 L30.981 11.482 L9.004 72.465 L-20.468 116.190 L-18.065 108.093 L-30.723 103.177 L2.355 69.309 L-27.909 103.435 L-7.305 96.284 L3.871 98.326 L7.818 129.124 L7.478 136.766 L-22.900 124.031 L-18.145 56.630 L15.059 29.450 L3.697 37.402 L-11.292 45.395 L-43.449 38.911 L-118.676 10.689 L-54.785 26.870 L-4.192 10.590 L12.253 5.843 L-86.200 45.009 L-65.209 45.092 L-66.426 72.456 L-80.957 85.396 L-121.028 105.773 L-165.972 110.966 L-156.807 137.413 L-198.229 154.801 L-188.662 114.962 L-135.586 70.185 L-104.308 70.522 L-110.255 72.782 L-121.053 62.254 L-136.360 23.939 L-165.740 -45.979 L-159.772 -34.554 L-152.247 -19.342 L-131.063 -4.777 L-198.547 -22.923 L-245.476 -45.107 L-281.497 -39.668 L-322.324 -60.298 L-325.323 -68.184 L-321.625 -73.885 L-298.844 -89.644 L-276.223 -106.428 L-244.780 -147.057 L-233.284 -155.187 L-181.282 -163.244 L-169.967 -155.954 L-221.392 -149.077 L-195.545 -203.705 L-169.967 -155.954 L-131.858 -128.640 L-181.282 -163.244 L-158.715 -154.471 L-61.966 -134.990 L-36.335 -116.964 L-8.683 -89.453 L48.262 -82.284 L62.035 -84.119 L102.416 -87.313 L149.087 -78.632 L180.938 -56.066 L188.745 -19.754 L188.009 -15.152 L150.635 74.294 L149.404 71.633 L167.040 101.106 L169.021 105.679 L170.008 108.144 L175.105 122.507 L155.459 161.976 L144.428 179.809 L136.453 194.723 L117.317 188.460 L110.926 184.638 L133.911 159.059 L129.406 168.991 L145.571 117.869 L85.413 60.570 L107.774 33.865 L96.634 50.004 L69.494 72.327 L66.536 72.405 L50.320 76.946 L-86.200 45.009 z" fill="#FFFFFF" />
		<path d="M86.103 55.637 L104.847 49.835 L85.568 68.733 L57.035 76.438 z" fill="#FFFFFF" />
		<path d="M189.415 50.620 L173.695 41.045 L144.415 -22.133 L154.814 0.264 L168.070 5.470 L181.602 2.214 L188.745 -19.754 L184.401 -36.987 L162.612 -56.663 L186.955 -36.950 L257.483 -20.217 L337.786 -26.297 L348.418 -18.893 L354.185 -3.385 L321.572 47.535 L281.315 71.817 L261.122 74.082 z" fill="#FFFFFF" />
		<path d="M43.690 98.633 L53.449 55.075 L80.276 32.086 L168.070 5.470 L128.512 18.311 L55.994 58.869 L48.320 96.876 L43.541 115.322 L-19.278 155.940 L-33.590 150.697 L-44.638 134.670 L-39.991 132.719 L-9.351 126.470 L16.801 96.983 L17.176 72.239 L3.792 -12.309 L4.385 -14.610 L51.638 27.159 L80.276 32.086 z" fill="#FFFFFF" />
		<path d="M57.035 76.438 L50.320 76.946 L96.634 50.004 z" fill="#FFFFFF" />
		<path d="M-257.923 -194.191 L-194.025 -153.805 L-244.780 -147.057 L-245.872 -124.173 z" fill="#FFFFFF" />
		<path d="M-4.060 31.939 L1.764 40.353 L-16.978 58.595 L-22.900 124.031 L-34.201 110.547 L-18.565 59.395 z" fill="#FFFFFF" />
		<path d="M-11.292 45.395 L15.059 29.450 L1.764 40.353 z" fill="#FFFFFF" />
		<path d="M173.442 17.333 L188.009 -15.152 L181.602 2.214 z" fill="#FFFFFF" />
		<path d="M-176.633 110.022 L-170.596 96.761 L-133.182 100.172 z" fill="#FFFFFF" />
		<path d="M75.086 -21.946 L38.945 3.840 L3.792 -12.309 z" fill="#FFFFFF" />
		<path d="M-183.926 109.658 L-137.297 76.974 L-188.662 114.962 z" fill="#FFFFFF" />
		<path d="M44.535 21.263 L4.385 -14.610 L38.945 3.840 z" fill="#FFFFFF" />
		<path d="M96.634 50.004 L85.413 60.570 L86.103 55.637 z" fill="#FFFFFF" />
	</g>
</svg>
