<?xml version="1.0" encoding="UTF-8"?>
<!DOCTYPE svg PUBLIC "-//W3C//DTD SVG 1.0//EN" "http://www.w3.org/TR/2001/REC-SVG-20010904/DTD/svg10.dtd">
<svg height="279.4mm" viewBox="-100, -100, 200, 200" width="215.89999999999998mm" xmlns="http://www.w3.org/2000/svg" xmlns:xlink="http://www.w3.org/1999/xlink">
	<g class="Mesh0">
		<path d="M-4994.806 -1360.557 L-5081.005 -1499.873 L-4994.761 -1590.106 L-4735.802 -1924.385 L-4392.476 -2251.408 L-3979.888 -3057.283 L-3718.295 -3158.451 L-2890.448 -3429.649 L-2144.219 -3248.252 L-1357.422 -2818.172 L-812.015 -2771.804 L-155.492 -2580.528 L1452.157 -2725.654 L1740.579 -2751.691 L2630.540 -2752.404 L3627.870 -2453.934 L4156.905 -1948.253 L4255.479 -1520.006 L3887.356 -1957.358 L4522.143 -1508.932 L6310.290 -131.582 L7237.672 1164.876 L6139.609 -241.334 L7797.141 1494.632 L7889.313 1676.190 L7789.726 2051.409 L7598.169 2116.343 L6252.661 2138.529 L4854.353 1456.472 L3893.438 193.689 L3492.295 -1229.561 L3647.906 -741.340 L3882.034 -631.249 L4133.086 -700.626 L4023.984 -582.069 L4240.086 -1201.398 L3859.025 935.504 L4023.984 -582.069 L3926.230 901.651 L4143.570 1700.532 L4242.347 2063.596 L3746.786 3700.604 L3677.052 3740.416 L3122.139 3702.527 L3571.595 3051.618 L3604.429 1931.443 L3697.955 2117.851 L3469.823 1665.553 L3604.429 1931.443 L2103.187 322.352 L2265.055 292.684 L1697.658 357.885 L-139.371 568.982 L173.606 300.737 L-70.691 1082.288 L-259.893 2185.057 L-291.772 3117.451 L-388.647 3372.453 L-419.504 3889.556 L-630.956 3873.089 L-1171.535 3880.711 L-1137.003 3809.109 L-815.675 3312.820 L-892.010 2217.129 L-960.661 1231.718 L-1082.951 918.338 L-1373.242 174.438 L-1062.567 920.740 L-961.549 1163.405 L-1085.784 919.033 L-1397.536 305.807 L-779.697 638.876 L-1801.583 226.271 L-1643.222 285.190 L-779.697 638.876 L-704.966 521.519 L-846.422 923.677 L-1022.408 2039.510 L-1148.801 3306.239 L-1183.102 3826.755 L-1969.773 3813.726 L-1598.901 3247.094 L-1684.546 2150.622 L-1761.572 1164.508 L-1872.096 852.116 L-2134.455 110.559 L-2859.871 -737.191 L-3051.164 -907.383 L-3819.084 -1224.163 L-4369.773 -1074.247 z" fill="#FFFFFF" />
		<path d="M3141.560 835.809 L3355.872 1634.436 L3453.273 1997.384 L2966.902 3635.165 L2903.903 3677.158 L2493.731 3649.799 L2362.401 3633.924 L2804.221 3006.704 L2837.306 2045.633 L2594.670 1592.117 L1487.781 444.137 L1320.349 -76.660 L1496.660 228.205 L1686.616 287.396 L2303.261 189.346 L3375.772 -577.744 z" fill="#FFFFFF" />
		<path d="M-3161.344 -3301.126 L-3979.888 -3057.283 L-4066.881 -2710.393 L-4379.690 -3985.969 z" fill="#FFFFFF" />
		<path d="M-3444.438 -3012.351 L-2962.950 -3867.084 L-2634.284 -3256.896 z" fill="#FFFFFF" />
		<path d="M1331.756 477.484 L-779.697 638.876 L1642.670 363.452 L2265.055 292.684 L1443.828 468.918 z" fill="#FFFFFF" />
	</g>
</svg>
