<?xml version="1.0" encoding="UTF-8"?>
<!DOCTYPE svg PUBLIC "-//W3C//DTD SVG 1.0//EN" "http://www.w3.org/TR/2001/REC-SVG-20010904/DTD/svg10.dtd">
<svg height="279.4mm" viewBox="-10000, -10000, 20000, 20000" width="215.89999999999998mm" xmlns="http://www.w3.org/2000/svg" xmlns:xlink="http://www.w3.org/1999/xlink">
	<g class="Mesh0">
		<path d="M3712.067 1538.503 L3925.347 1839.480 L3614.194 3561.543 L3474.639 3598.995 L3306.403 3625.279 L2960.919 3629.125 L3347.520 2955.037 L3299.240 2058.031 L2953.475 1854.472 L1565.157 1441.882 L1230.999 1088.393 L1415.077 1148.845 L940.266 1200.610 L1392.237 1067.421 L2312.928 826.218 L1996.872 922.921 L2933.247 -109.789 L3249.949 941.419 z" fill="#FF0000" />
		<path d="M2014.498 1252.262 L940.266 1200.610 L2168.301 1172.519 L811.755 1204.688 L-1777.157 1075.949 L-2558.720 1053.303 L-1885.850 983.522 L-2354.689 1113.972 L-3507.871 1105.582 L-4403.935 976.728 L-4080.877 863.442 L-3388.015 1024.654 L-4265.212 951.673 L-4525.953 1379.642 L-4737.399 1360.426 L-5146.382 915.386 L-4574.127 665.368 L-3494.654 386.562 L-2887.822 357.706 L-2937.304 473.978 L-2890.205 244.825 L-2429.797 -631.717 L-2841.971 202.520 L-2790.381 72.792 L-2429.797 -631.717 L-1857.468 -850.396 L-1215.553 -1014.088 L-2346.723 -534.482 L-2398.672 -322.546 L-2457.842 -40.598 L-2824.594 176.814 L-3787.695 -234.607 L-4537.839 -604.825 L-5093.737 -493.157 L-5522.560 -723.289 L-5702.946 -822.968 L-5782.862 -962.261 L-5691.972 -1052.559 L-5419.271 -1357.133 L-5061.338 -1662.558 L-4612.796 -2430.867 L-4345.295 -2532.488 L-3507.433 -2746.195 L-3030.792 -2609.637 L-1756.624 -2374.037 L-1223.968 -2237.858 L-598.115 -1939.147 L853.329 -1986.098 L1138.189 -2022.186 L2003.646 -2074.708 L2969.946 -1791.461 L3555.965 -1311.745 L3695.994 -975.827 L3275.658 -1374.512 L3750.865 -1891.103 L6048.613 -2328.198 L6254.821 -2170.073 L7428.001 -1045.444 L6048.613 -2328.198 L7996.954 -747.279 L8093.451 -563.946 L8003.410 -184.830 L7813.863 -119.023 L6468.229 -46.369 L5664.713 -330.652 L4665.376 -431.578 L3448.967 -140.115 L3687.450 -204.876 L3572.678 -164.850 L3671.153 -711.798 L4133.686 770.574 L3572.678 -164.850 L4092.780 602.616 L4729.080 745.914 L5024.167 833.071 L5992.916 2051.868 L6103.220 2255.671 L5880.097 2628.110 L5726.769 2657.420 L5397.811 1878.609 L4576.038 1316.888 L4864.816 1452.538 L4400.161 1431.942 L2922.518 1794.484 z" fill="#FF0000" />
		<path d="M-2429.797 -631.717 L-2455.416 438.745 L-2824.594 176.814 z" fill="#FF0000" />
		<path d="M-2866.064 38.366 L-1777.157 1075.949 L-2819.331 1292.338 L-3952.864 1514.031 L-4871.425 1527.381 L-5110.893 1924.419 L-5325.210 1903.804 L-5704.230 1532.587 L-5774.648 1469.682 L-5196.293 1208.082 L-4135.876 798.958 L-3551.401 703.762 L-3499.651 402.608 L-3230.231 -374.036 L-2455.416 438.745 z" fill="#FF0000" />
		<path d="M-1777.157 1075.949 L-2455.416 438.745 L-2622.101 -225.979 z" fill="#FF0000" />
		<path d="M-3258.417 -2573.925 L-4077.346 -2385.935 L-3553.540 -3238.003 z" fill="#FF0000" />
		<path d="M-4970.279 -3356.889 L-3785.478 -2618.154 L-4612.796 -2430.867 L-4718.013 -2071.320 z" fill="#FF0000" />
		<path d="M2345.675 950.534 L3331.765 -95.637 L3448.967 -140.115 z" fill="#FF0000" />
		<path d="M-5088.690 1469.716 L-4811.153 1382.018 L-4183.466 1407.065 z" fill="#FF0000" />
	</g>
</svg>
