<?xml version="1.0" encoding="UTF-8"?>
<!DOCTYPE svg PUBLIC "-//W3C//DTD SVG 1.0//EN" "http://www.w3.org/TR/2001/REC-SVG-20010904/DTD/svg10.dtd">
<svg height="200mm" viewBox="-90, -100, 190, 200" width="200mm" xmlns="http://www.w3.org/2000/svg" xmlns:xlink="http://www.w3.org/1999/xlink">
	<g class="Mesh2">
		<path d="M18.424 22.517 L18.137 23.262 L18.962 51.109 L18.980 58.745 L29.739 76.589 L38.303 77.356 L47.640 76.138 L55.465 69.527 L55.464 66.584 L49.266 57.866 L35.584 50.184 L31.446 21.733 z" fill="#E58200" />
	</g>
	<g class="Mesh3">
		<path d="M-25.091 77.356 L-16.527 76.589 L-5.769 58.745 L-5.751 51.109 L-3.344 23.262 L-3.631 22.517 L-16.653 21.733 L-22.373 50.184 L-36.055 57.866 L-42.252 66.584 L-42.253 69.527 L-34.429 76.138 z" fill="#E58200" />
	</g>
	<g class="Mesh0">
		<path d="M-53.234 31.431 L-33.127 -3.290 L-28.109 -10.973 z" fill="#2E47AA" />
		<path d="M48.435 -3.290 L68.542 31.431 L43.417 -10.973 z" fill="#2E47AA" />
		<path d="M34.021 -15.955 L43.968 -9.353 L48.435 -3.290 z" fill="#2E47AA" />
		<path d="M-17.335 -28.979 L-6.702 -47.219 L7.654 -69.456 L22.010 -47.219 L32.643 -28.979 L43.968 -9.353 L54.179 8.731 L57.194 25.421 L41.270 43.999 L7.654 46.595 L-25.962 43.999 L-41.886 25.421 L-38.871 8.731 L-28.660 -9.353 z" fill="#2E47AA" />
		<path d="M-18.748 -2.904 L-53.234 31.431 L-39.702 -0.196 L-17.335 -28.979 L-10.616 -25.149 z" fill="#2E47AA" />
		<path d="M-28.660 -9.353 L-18.713 -15.955 L-33.127 -3.290 z" fill="#2E47AA" />
		<path d="M55.009 -0.196 L68.542 31.431 L34.056 -2.904 L25.924 -25.149 L32.643 -28.979 z" fill="#2E47AA" />
	</g>
	<g class="Mesh1">
		<path d="M3.019 -19.194 L6.024 -16.447 L7.260 -16.447 L9.896 -19.194 L13.445 -24.559 L15.729 -28.265 L13.942 -35.035 L10.566 -37.391 L2.385 -37.391 L-0.807 -34.428 L-0.992 -28.265 L0.571 -24.559 z" fill="#E58200" />
	</g>
</svg>
