<?xml version="1.0" encoding="UTF-8"?>
<!DOCTYPE svg PUBLIC "-//W3C//DTD SVG 1.0//EN" "http://www.w3.org/TR/2001/REC-SVG-20010904/DTD/svg10.dtd">
<svg height="279.4mm" viewBox="-100, -100, 200, 200" width="215.89999999999998mm" xmlns="http://www.w3.org/2000/svg" xmlns:xlink="http://www.w3.org/1999/xlink">
	<g class="Mesh2">
		<path d="M63.291 35.542 L56.958 41.092 L28.006 43.713 L15.657 41.194 L0.223 21.096 L0.877 19.548 L8.107 10.584 L32.672 29.225 L27.787 30.362 L48.006 21.439 L62.743 19.526 L64.333 22.006 L67.641 28.961 z" fill="#E58200" />
	</g>
	<g class="Mesh3">
		<path d="M-10.691 46.796 L-8.720 52.103 L-8.857 54.892 L-11.883 75.980 L-19.928 77.595 L-29.561 77.037 L-39.978 70.259 L-39.841 67.469 L-37.444 57.084 L-28.669 46.680 L-23.235 19.228 L-22.902 18.773 L-9.869 18.512 z" fill="#E58200" />
	</g>
	<g class="Mesh0">
		<path d="M-48.709 8.104 L-33.854 -20.792 L-27.654 -16.800 L-30.899 5.032 L-54.685 38.743 z" fill="#2E47AA" />
		<path d="M8.497 -34.279 L43.959 -6.325 L64.463 20.190 L20.765 -3.013 L8.097 -22.367 L15.046 -28.406 z" fill="#2E47AA" />
		<path d="M-40.165 -1.658 L-33.854 -20.792 L-27.454 -39.122 L-18.084 -61.937 L-5.926 -50.196 L0.638 -43.496 L15.046 -28.406 L30.896 -12.723 L45.262 1.785 L52.227 16.182 L37.823 39.226 L5.236 47.055 L-27.959 49.469 L-44.715 31.277 L-45.780 15.962 z" fill="#2E47AA" />
		<path d="M38.279 -9.933 L64.463 20.190 L31.027 -15.394 z" fill="#2E47AA" />
		<path d="M-38.956 -4.497 L-54.685 38.743 L-40.165 -1.658 L-30.277 -11.210 L-41.522 2.493 z" fill="#2E47AA" />
	</g>
	<g class="Mesh1">
		<path d="M-16.444 -13.318 L-15.242 -10.650 L-12.395 -7.729 L-11.185 -7.918 L-8.514 -11.697 L-4.715 -19.017 L-2.356 -23.923 L-5.714 -29.700 L-9.578 -31.290 L-17.583 -30.044 L-20.002 -26.910 L-19.063 -23.159 z" fill="#E58200" />
		<path d="M-20.002 -26.910 L-18.717 -21.376 L-17.312 -17.056 z" fill="#E58200" />
		<path d="M-19.063 -23.159 L-17.312 -17.056 L-15.242 -10.650 z" fill="#E58200" />
	</g>
</svg>
