{
	"asset":{
		"generator":"Khronos glTF Blender I/O v4.2.60",
		"version":"2.0"
	},
	"scene":0,
	"scenes":[
		{
			"name":"Scene",
			"nodes":[
				22
			]
		}
	],
	"nodes":[
		{
			"mesh":0,
			"name":"Sphere.003",
			"rotation":[
				0.5592308640480042,
				-0.21945735812187195,
				-0.7573449611663818,
				0.2559843063354492
			],
			"scale":[
				1.0000001192092896,
				0.9999997019767761,
				1.0000001192092896
			],
			"translation":[
				0.0313301645219326,
				0.4660605490207672,
				-0.0049736881628632545
			]
		},
		{
			"children":[
				0
			],
			"name":"Bone.007",
			"rotation":[
				-0.14838260412216187,
				-0.7503213882446289,
				-0.052815794944763184,
				0.6420365571975708
			],
			"scale":[
				1,
				1,
				0.9999999403953552
			],
			"translation":[
				8.42846930027008e-08,
				1.424578070640564,
				-1.1175870895385742e-08
			]
		},
		{
			"mesh":1,
			"name":"Sphere.004",
			"rotation":[
				0.7929404973983765,
				-0.6074381470680237,
				-0.03882421553134918,
				0.027513887733221054
			],
			"scale":[
				1,
				0.999999463558197,
				1.0000001192092896
			],
			"translation":[
				-0.0007650023326277733,
				0.448210746049881,
				0.015357274562120438
			]
		},
		{
			"children":[
				1,
				2
			],
			"name":"Bone.006",
			"rotation":[
				-0.9462064504623413,
				0.3205908238887787,
				0.04373910650610924,
				0.0013359226286411285
			],
			"scale":[
				1.0000001192092896,
				1,
				0.9999999403953552
			],
			"translation":[
				-0.885448157787323,
				2.709507942199707,
				-0.034738101065158844
			]
		},
		{
			"name":"ik r arm",
			"rotation":[
				0.9968434572219849,
				-0.07883439213037491,
				0.0007406302611343563,
				0.009366028942167759
			],
			"scale":[
				0.9999956488609314,
				0.9999999403953552,
				0.9999998807907104
			],
			"translation":[
				-2.3528499603271484,
				-0.0899086594581604,
				0.19932836294174194
			]
		},
		{
			"mesh":2,
			"name":"Sphere.001",
			"rotation":[
				-0.5871705412864685,
				0.01752682402729988,
				0.8091325759887695,
				0.015104908496141434
			],
			"scale":[
				0.9999997019767761,
				0.9999995827674866,
				1
			],
			"translation":[
				0.025400741025805473,
				0.475321888923645,
				-0.024223564192652702
			]
		},
		{
			"children":[
				5
			],
			"name":"Bone.009",
			"rotation":[
				0.10277845710515976,
				-0.7794500589370728,
				0.11417153477668762,
				0.6073377728462219
			],
			"scale":[
				0.9999999403953552,
				0.9999997615814209,
				0.9999999403953552
			],
			"translation":[
				3.229361027479172e-07,
				1.424578070640564,
				-2.9802322387695312e-08
			]
		},
		{
			"mesh":3,
			"name":"Sphere.008",
			"rotation":[
				-0.9987342953681946,
				-0.0008271068218164146,
				0.0502585805952549,
				0.0018102885223925114
			],
			"scale":[
				0.9999999403953552,
				0.9999997615814209,
				0.9999999403953552
			],
			"translation":[
				0.0037374584935605526,
				0.44821006059646606,
				0.014915253967046738
			]
		},
		{
			"children":[
				6,
				7
			],
			"name":"Bone.008",
			"rotation":[
				0.9459532499313354,
				0.3191877603530884,
				-0.048910096287727356,
				0.029990848153829575
			],
			"scale":[
				1.0000001192092896,
				1.0000001192092896,
				1
			],
			"translation":[
				0.885448157787323,
				2.709507942199707,
				-0.034737683832645416
			]
		},
		{
			"name":"ik l arm",
			"rotation":[
				0.9968434572219849,
				0.0788344070315361,
				-0.000740413146559149,
				0.009366062469780445
			],
			"scale":[
				0.9999960660934448,
				0.9999999403953552,
				1
			],
			"translation":[
				2.3681836128234863,
				-0.089908666908741,
				0.1993294656276703
			]
		},
		{
			"name":"ik r elbow",
			"rotation":[
				-0.7137190699577332,
				-1.3514095087430178e-07,
				-1.3576341473253706e-07,
				0.7004321217536926
			],
			"scale":[
				1,
				0.9999999403953552,
				0.9999999403953552
			],
			"translation":[
				-1.7498916387557983,
				1.537885308265686,
				-2.120532512664795
			]
		},
		{
			"name":"ik l elbow",
			"rotation":[
				-0.7137190699577332,
				-1.3514095087430178e-07,
				-1.3576341473253706e-07,
				0.7004321217536926
			],
			"scale":[
				1,
				0.9999999403953552,
				0.9999999403953552
			],
			"translation":[
				1.7498925924301147,
				1.537885308265686,
				-2.1205315589904785
			]
		},
		{
			"mesh":4,
			"name":"Sphere",
			"rotation":[
				-0.0053913043811917305,
				6.542605727886041e-15,
				2.2204698720519546e-16,
				0.9999854564666748
			],
			"scale":[
				1,
				0.9999998211860657,
				0.9999999403953552
			],
			"translation":[
				-1.002621541346116e-09,
				0.5204262137413025,
				-0.011464310809969902
			]
		},
		{
			"mesh":5,
			"name":"Sphere.009",
			"rotation":[
				-0.022593636065721512,
				-1.1917884989998129e-07,
				-2.693379741458557e-09,
				0.999744713306427
			],
			"scale":[
				1,
				0.9999999403953552,
				1.0000001192092896
			],
			"translation":[
				-2.5337499209854286e-08,
				3.6418488025665283,
				0.8401626944541931
			]
		},
		{
			"mesh":6,
			"name":"Sphere.010",
			"rotation":[
				-0.009395263157784939,
				-1.192040031128272e-07,
				-1.1200115279663692e-09,
				0.9999558925628662
			],
			"scale":[
				1,
				0.9999999403953552,
				1.0000001192092896
			],
			"translation":[
				1.6087652099372463e-08,
				3.3250603675842285,
				0.6589376926422119
			]
		},
		{
			"children":[
				3,
				4,
				8,
				9,
				10,
				11,
				12,
				13,
				14
			],
			"name":"Bone",
			"rotation":[
				0.009395265020430088,
				1.192040031128272e-07,
				1.1200055327620362e-09,
				0.9999558925628662
			],
			"scale":[
				1,
				0.9999999403953552,
				0.9999999403953552
			],
			"translation":[
				1.0026303121080105e-09,
				0.8900169730186462,
				-0.06499999016523361
			]
		},
		{
			"mesh":7,
			"name":"Circle",
			"rotation":[
				0.05757656693458557,
				-0.7047589421272278,
				-0.7047588229179382,
				0.057574689388275146
			],
			"scale":[
				1,
				0.9999998807907104,
				0.9999998807907104
			],
			"translation":[
				-0.6624717116355896,
				0.37653449177742004,
				-0.24354474246501923
			]
		},
		{
			"children":[
				16
			],
			"name":"Bone.003",
			"rotation":[
				-0.08080480247735977,
				-0.5462133884429932,
				0.8326007723808289,
				0.04355959966778755
			],
			"scale":[
				0.9999999403953552,
				1,
				1
			],
			"translation":[
				4.842877388000488e-08,
				1.300179362297058,
				7.450580596923828e-09
			]
		},
		{
			"children":[
				17
			],
			"name":"Bone.002",
			"rotation":[
				-0.9695871472358704,
				0.07115766406059265,
				-0.10563486814498901,
				0.2089943289756775
			],
			"scale":[
				0.9999999403953552,
				1,
				1
			],
			"translation":[
				-0.4705739915370941,
				1.4169753789901733,
				0.06741178035736084
			]
		},
		{
			"mesh":8,
			"name":"Circle.001",
			"rotation":[
				0.05757648125290871,
				0.7047589421272278,
				0.7047588229179382,
				0.0575747936964035
			],
			"scale":[
				0.9999999403953552,
				0.9999997615814209,
				0.9999999403953552
			],
			"translation":[
				0.6624717712402344,
				0.37653493881225586,
				-0.24354422092437744
			]
		},
		{
			"children":[
				19
			],
			"name":"Bone.005",
			"rotation":[
				0.12055113911628723,
				0.5199682116508484,
				-0.8277806639671326,
				0.1728573739528656
			],
			"scale":[
				1,
				1,
				1.0000001192092896
			],
			"translation":[
				-1.1175870895385742e-08,
				1.3001794815063477,
				-2.2351741790771484e-08
			]
		},
		{
			"children":[
				20
			],
			"name":"Bone.004",
			"rotation":[
				-0.9667311906814575,
				-0.019139643758535385,
				-0.1291850358247757,
				0.2199447602033615
			],
			"scale":[
				1,
				1,
				1.0000001192092896
			],
			"translation":[
				0.4705739915370941,
				1.4169753789901733,
				0.06741178035736084
			]
		},
		{
			"children":[
				15,
				18,
				21
			],
			"name":"Armature"
		}
	],
	"materials":[
		{
			"doubleSided":true,
			"name":"Material",
			"pbrMetallicRoughness":{
				"baseColorFactor":[
					0.02732062339782715,
					0.06300989538431168,
					0.40197786688804626,
					1
				],
				"metallicFactor":0,
				"roughnessFactor":0.5
			}
		},
		{
			"doubleSided":true,
			"name":"Material.002",
			"pbrMetallicRoughness":{
				"baseColorFactor":[
					1,
					1,
					1,
					1
				],
				"metallicFactor":0,
				"roughnessFactor":0.5
			}
		},
		{
			"doubleSided":true,
			"name":"Material.006",
			"pbrMetallicRoughness":{
				"baseColorFactor":[
					1,
					1,
					1,
					1
				],
				"metallicFactor":0,
				"roughnessFactor":0.5
			}
		},
		{
			"doubleSided":true,
			"name":"Material.004",
			"pbrMetallicRoughness":{
				"baseColorFactor":[
					0,
					0,
					0,
					1
				],
				"metallicFactor":0,
				"roughnessFactor":0.5
			}
		},
		{
			"doubleSided":true,
			"name":"Material.009",
			"pbrMetallicRoughness":{
				"baseColorFactor":[
					0.7835375666618347,
					0.22146464884281158,
					0,
					1
				],
				"metallicFactor":0,
				"roughnessFactor":0.5
			}
		}
	],
	"meshes":[
		{
			"name":"Sphere.004",
			"primitives":[
				{
					"attributes":{
						"POSITION":0,
						"NORMAL":1
					},
					"indices":2,
					"material":0
				}
			]
		},
		{
			"name":"Sphere.005",
			"primitives":[
				{
					"attributes":{
						"POSITION":3,
						"NORMAL":4
					},
					"indices":2,
					"material":0
				}
			]
		},
		{
			"name":"Sphere.012",
			"primitives":[
				{
					"attributes":{
						"POSITION":5,
						"NORMAL":6
					},
					"indices":7,
					"material":0
				}
			]
		},
		{
			"name":"Sphere.011",
			"primitives":[
				{
					"attributes":{
						"POSITION":8,
						"NORMAL":9
					},
					"indices":7,
					"material":0
				}
			]
		},
		{
			"name":"Sphere.001",
			"primitives":[
				{
					"attributes":{
						"POSITION":10,
						"NORMAL":11
					},
					"indices":12,
					"material":0
				},
				{
					"attributes":{
						"POSITION":13,
						"NORMAL":14
					},
					"indices":15,
					"material":1
				}
			]
		},
		{
			"name":"Sphere.002",
			"primitives":[
				{
					"attributes":{
						"POSITION":16,
						"NORMAL":17
					},
					"indices":18,
					"material":2
				},
				{
					"attributes":{
						"POSITION":19,
						"NORMAL":20
					},
					"indices":21,
					"material":0
				},
				{
					"attributes":{
						"POSITION":22,
						"NORMAL":23
					},
					"indices":24,
					"material":3
				}
			]
		},
		{
			"name":"Sphere.003",
			"primitives":[
				{
					"attributes":{
						"POSITION":25,
						"NORMAL":26
					},
					"indices":27,
					"material":4
				}
			]
		},
		{
			"name":"Circle",
			"primitives":[
				{
					"attributes":{
						"POSITION":28,
						"NORMAL":29
					},
					"indices":30,
					"material":4
				}
			]
		},
		{
			"name":"Circle.007",
			"primitives":[
				{
					"attributes":{
						"POSITION":31,
						"NORMAL":32
					},
					"indices":33,
					"material":4
				}
			]
		}
	],
	"skins":[
		{
			"inverseBindMatrices":34,
			"joints":[
				15,
				3,
				1,
				4,
				8,
				6,
				9,
				10,
				11,
				18,
				17,
				21,
				20
			],
			"name":"Armature"
		}
	],
	"accessors":[
		{
			"bufferView":0,
			"componentType":5126,
			"count":762,
			"max":[
				0.3982674777507782,
				0.4639216959476471,
				0.2866334617137909
			],
			"min":[
				-0.8405364751815796,
				-1.0252976417541504,
				-0.25843295454978943
			],
			"type":"VEC3"
		},
		{
			"bufferView":1,
			"componentType":5126,
			"count":762,
			"type":"VEC3"
		},
		{
			"bufferView":2,
			"componentType":5123,
			"count":4560,
			"type":"SCALAR"
		},
		{
			"bufferView":3,
			"componentType":5126,
			"count":762,
			"max":[
				0.5602260828018188,
				0.2659730911254883,
				0.34688612818717957
			],
			"min":[
				-1.0432993173599243,
				-0.36014509201049805,
				-0.3559596836566925
			],
			"type":"VEC3"
		},
		{
			"bufferView":4,
			"componentType":5126,
			"count":762,
			"type":"VEC3"
		},
		{
			"bufferView":5,
			"componentType":5126,
			"count":762,
			"max":[
				0.14564460515975952,
				0.5697702765464783,
				0.2866334915161133
			],
			"min":[
				-0.13784314692020416,
				-1.3198509216308594,
				-0.2584329843521118
			],
			"type":"VEC3"
		},
		{
			"bufferView":6,
			"componentType":5126,
			"count":762,
			"type":"VEC3"
		},
		{
			"bufferView":7,
			"componentType":5123,
			"count":4560,
			"type":"SCALAR"
		},
		{
			"bufferView":8,
			"componentType":5126,
			"count":762,
			"max":[
				0.1884843409061432,
				0.5749585628509521,
				0.34688612818717957
			],
			"min":[
				-0.18848451972007751,
				-1.0793211460113525,
				-0.3559596836566925
			],
			"type":"VEC3"
		},
		{
			"bufferView":9,
			"componentType":5126,
			"count":762,
			"type":"VEC3"
		},
		{
			"bufferView":10,
			"componentType":5126,
			"count":1018,
			"max":[
				1.6367923021316528,
				3.728510856628418,
				0.9180605411529541
			],
			"min":[
				-1.6367923021316528,
				-1.1656889915466309,
				-1.3141603469848633
			],
			"type":"VEC3"
		},
		{
			"bufferView":11,
			"componentType":5126,
			"count":1018,
			"type":"VEC3"
		},
		{
			"bufferView":12,
			"componentType":5123,
			"count":6015,
			"type":"SCALAR"
		},
		{
			"bufferView":13,
			"componentType":5126,
			"count":222,
			"max":[
				1.136620044708252,
				3.0013017654418945,
				1.5063267946243286
			],
			"min":[
				-1.136620044708252,
				-0.8328534364700317,
				-0.09407579898834229
			],
			"type":"VEC3"
		},
		{
			"bufferView":14,
			"componentType":5126,
			"count":222,
			"type":"VEC3"
		},
		{
			"bufferView":15,
			"componentType":5123,
			"count":1320,
			"type":"SCALAR"
		},
		{
			"bufferView":16,
			"componentType":5126,
			"count":762,
			"max":[
				0.01575089991092682,
				0.15323951840400696,
				-0.1821933388710022
			],
			"min":[
				-0.2746780514717102,
				-0.25382205843925476,
				-0.48419034481048584
			],
			"type":"VEC3"
		},
		{
			"bufferView":17,
			"componentType":5126,
			"count":762,
			"type":"VEC3"
		},
		{
			"bufferView":18,
			"componentType":5123,
			"count":4560,
			"type":"SCALAR"
		},
		{
			"bufferView":19,
			"componentType":5126,
			"count":441,
			"max":[
				0.024663403630256653,
				0.15802644193172455,
				-0.2580546736717224
			],
			"min":[
				-0.2907000184059143,
				-0.2113979607820511,
				-0.5409879088401794
			],
			"type":"VEC3"
		},
		{
			"bufferView":20,
			"componentType":5126,
			"count":441,
			"type":"VEC3"
		},
		{
			"bufferView":21,
			"componentType":5123,
			"count":2634,
			"type":"SCALAR"
		},
		{
			"bufferView":22,
			"componentType":5126,
			"count":3120,
			"max":[
				-0.06720792502164841,
				0.017325062304735184,
				-0.15790972113609314
			],
			"min":[
				-0.16028253734111786,
				-0.08479087054729462,
				-0.23627768456935883
			],
			"type":"VEC3"
		},
		{
			"bufferView":23,
			"componentType":5126,
			"count":3120,
			"type":"VEC3"
		},
		{
			"bufferView":24,
			"componentType":5123,
			"count":4560,
			"type":"SCALAR"
		},
		{
			"bufferView":25,
			"componentType":5126,
			"count":401,
			"max":[
				0.00014445495617110282,
				0.18710321187973022,
				0.5369129776954651
			],
			"min":[
				-0.3593508005142212,
				-0.31113046407699585,
				-0.25228849053382874
			],
			"type":"VEC3"
		},
		{
			"bufferView":26,
			"componentType":5126,
			"count":401,
			"type":"VEC3"
		},
		{
			"bufferView":27,
			"componentType":5123,
			"count":2280,
			"type":"SCALAR"
		},
		{
			"bufferView":28,
			"componentType":5126,
			"count":288,
			"max":[
				-0.13093030452728271,
				0.4808284640312195,
				1.3814444541931152
			],
			"min":[
				-1.4614896774291992,
				0.0014957061503082514,
				-0.7672537565231323
			],
			"type":"VEC3"
		},
		{
			"bufferView":29,
			"componentType":5126,
			"count":288,
			"type":"VEC3"
		},
		{
			"bufferView":30,
			"componentType":5123,
			"count":1716,
			"type":"SCALAR"
		},
		{
			"bufferView":31,
			"componentType":5126,
			"count":288,
			"max":[
				1.4614899158477783,
				0.48083269596099854,
				1.3814446926116943
			],
			"min":[
				0.13093072175979614,
				0.0014980767155066133,
				-0.7672536373138428
			],
			"type":"VEC3"
		},
		{
			"bufferView":32,
			"componentType":5126,
			"count":288,
			"type":"VEC3"
		},
		{
			"bufferView":33,
			"componentType":5123,
			"count":1716,
			"type":"SCALAR"
		},
		{
			"bufferView":34,
			"componentType":5126,
			"count":13,
			"type":"MAT4"
		}
	],
	"bufferViews":[
		{
			"buffer":0,
			"byteLength":9144,
			"byteOffset":0,
			"target":34962
		},
		{
			"buffer":0,
			"byteLength":9144,
			"byteOffset":9144,
			"target":34962
		},
		{
			"buffer":0,
			"byteLength":9120,
			"byteOffset":18288,
			"target":34963
		},
		{
			"buffer":0,
			"byteLength":9144,
			"byteOffset":27408,
			"target":34962
		},
		{
			"buffer":0,
			"byteLength":9144,
			"byteOffset":36552,
			"target":34962
		},
		{
			"buffer":0,
			"byteLength":9144,
			"byteOffset":45696,
			"target":34962
		},
		{
			"buffer":0,
			"byteLength":9144,
			"byteOffset":54840,
			"target":34962
		},
		{
			"buffer":0,
			"byteLength":9120,
			"byteOffset":63984,
			"target":34963
		},
		{
			"buffer":0,
			"byteLength":9144,
			"byteOffset":73104,
			"target":34962
		},
		{
			"buffer":0,
			"byteLength":9144,
			"byteOffset":82248,
			"target":34962
		},
		{
			"buffer":0,
			"byteLength":12216,
			"byteOffset":91392,
			"target":34962
		},
		{
			"buffer":0,
			"byteLength":12216,
			"byteOffset":103608,
			"target":34962
		},
		{
			"buffer":0,
			"byteLength":12030,
			"byteOffset":115824,
			"target":34963
		},
		{
			"buffer":0,
			"byteLength":2664,
			"byteOffset":127856,
			"target":34962
		},
		{
			"buffer":0,
			"byteLength":2664,
			"byteOffset":130520,
			"target":34962
		},
		{
			"buffer":0,
			"byteLength":2640,
			"byteOffset":133184,
			"target":34963
		},
		{
			"buffer":0,
			"byteLength":9144,
			"byteOffset":135824,
			"target":34962
		},
		{
			"buffer":0,
			"byteLength":9144,
			"byteOffset":144968,
			"target":34962
		},
		{
			"buffer":0,
			"byteLength":9120,
			"byteOffset":154112,
			"target":34963
		},
		{
			"buffer":0,
			"byteLength":5292,
			"byteOffset":163232,
			"target":34962
		},
		{
			"buffer":0,
			"byteLength":5292,
			"byteOffset":168524,
			"target":34962
		},
		{
			"buffer":0,
			"byteLength":5268,
			"byteOffset":173816,
			"target":34963
		},
		{
			"buffer":0,
			"byteLength":37440,
			"byteOffset":179084,
			"target":34962
		},
		{
			"buffer":0,
			"byteLength":37440,
			"byteOffset":216524,
			"target":34962
		},
		{
			"buffer":0,
			"byteLength":9120,
			"byteOffset":253964,
			"target":34963
		},
		{
			"buffer":0,
			"byteLength":4812,
			"byteOffset":263084,
			"target":34962
		},
		{
			"buffer":0,
			"byteLength":4812,
			"byteOffset":267896,
			"target":34962
		},
		{
			"buffer":0,
			"byteLength":4560,
			"byteOffset":272708,
			"target":34963
		},
		{
			"buffer":0,
			"byteLength":3456,
			"byteOffset":277268,
			"target":34962
		},
		{
			"buffer":0,
			"byteLength":3456,
			"byteOffset":280724,
			"target":34962
		},
		{
			"buffer":0,
			"byteLength":3432,
			"byteOffset":284180,
			"target":34963
		},
		{
			"buffer":0,
			"byteLength":3456,
			"byteOffset":287612,
			"target":34962
		},
		{
			"buffer":0,
			"byteLength":3456,
			"byteOffset":291068,
			"target":34962
		},
		{
			"buffer":0,
			"byteLength":3432,
			"byteOffset":294524,
			"target":34963
		},
		{
			"buffer":0,
			"byteLength":832,
			"byteOffset":297956
		}
	],
	"buffers":[
		{
			"byteLength":298788,
			"uri":"penguin.bin"
		}
	]
}
